<mxfile host="app.diagrams.net" modified="2024-05-16T20:53:47.312Z" agent="Mozilla/5.0 (Windows NT 10.0; Win64; x64) AppleWebKit/537.36 (KHTML, like Gecko) Chrome/124.0.0.0 Safari/537.36" etag="5fiNQptfOtMQ8LVF7sR4" version="24.4.3" type="device">
  <diagram name="Sayfa -1" id="QguYhUOed32_P-r-O9nl">
    <mxGraphModel dx="1450" dy="941" grid="0" gridSize="10" guides="1" tooltips="1" connect="1" arrows="1" fold="1" page="0" pageScale="1" pageWidth="827" pageHeight="1169" math="0" shadow="0">
      <root>
        <mxCell id="0" />
        <mxCell id="1" parent="0" />
        <mxCell id="Fb7DKyUG0hWQXaiTz3AM-1" value="Google Cloud Kubernetes Cluster" style="swimlane;whiteSpace=wrap;html=1;" parent="1" vertex="1">
          <mxGeometry x="99" y="-158" width="1296" height="745" as="geometry" />
        </mxCell>
        <mxCell id="Fb7DKyUG0hWQXaiTz3AM-10" value="" style="outlineConnect=0;dashed=0;verticalLabelPosition=bottom;verticalAlign=top;align=center;html=1;shape=mxgraph.aws3.api_gateway;fillColor=#D9A741;gradientColor=none;" parent="Fb7DKyUG0hWQXaiTz3AM-1" vertex="1">
          <mxGeometry x="81" y="280" width="77" height="94" as="geometry" />
        </mxCell>
        <mxCell id="Fb7DKyUG0hWQXaiTz3AM-11" value="&lt;span style=&quot;background-color: initial;&quot;&gt;API Gateway&lt;/span&gt;&lt;div&gt;dışarıdan gelen isteklerin ilgili servislere iletilmesini sağlayacak.&lt;br&gt;&lt;div style=&quot;&quot;&gt;/user&lt;/div&gt;&lt;/div&gt;&lt;div style=&quot;&quot;&gt;/auth -&amp;gt; http://10.0.2.1/auth/**&lt;/div&gt;&lt;div style=&quot;&quot;&gt;/sale&lt;/div&gt;" style="text;html=1;align=left;verticalAlign=middle;whiteSpace=wrap;rounded=0;fontSize=16;" parent="Fb7DKyUG0hWQXaiTz3AM-1" vertex="1">
          <mxGeometry x="61" y="159" width="250" height="149" as="geometry" />
        </mxCell>
        <mxCell id="Fb7DKyUG0hWQXaiTz3AM-16" value="In Memory Cache apps" style="swimlane;whiteSpace=wrap;html=1;" parent="Fb7DKyUG0hWQXaiTz3AM-1" vertex="1">
          <mxGeometry x="1105" y="35" width="179" height="246" as="geometry" />
        </mxCell>
        <mxCell id="nlwU2PpXcWKmxTWrh6bV-4" value="" style="shape=image;verticalLabelPosition=bottom;labelBackgroundColor=default;verticalAlign=top;aspect=fixed;imageAspect=0;image=data:image/png,iVBORw0KGgoAAAANSUhEUgAAATcAAACiCAMAAAATIHpEAAABIFBMVEX///8jHyDwvxoAAAA+vrAHpd7XoikBm48gHB0TDA7vvAAbFhj09PTPz8+LiYpYVlfn6esNAwaSlZfi4uIAlIfy5M3VnQtSUFCioaH67MzBwcEAntsru6zr9vwXEROT0O6Bf4AqJidjYWK2tbWenZ2wr682MzSPjo7FxcVLSEk+OzzZ2NhraWp3dXY5NjexsbH+/PT66sL99+f114X335603fIjGBTO7Oiv4Nofppl8z8ZEQUH88dj22Y/yy1bzzmTnvlnpzprdqSTbrEn003jxxDru2K/ptx3dsVnhvHQATG5AseIhJiwkBwCAx+oPkMEUfqnV7PcXbpIbV3MdS2FfveaLy+skBgAMmM0JL0GTrruV189ktq675eBEqZ+b2dES4PzuAAAKWElEQVR4nO2d+X/bthmHRcNOAPMQITkVozgsKYqiTttJ08Szsqbduu7o7ntLu/z//8Ve8ARPybIdKtX7/BKJosgvH4LACyifpNNBEARBEARBEARBEARBEARBEARBDperl29fAG9fth3k0+Hqxc+/Os04evfqaduR9p+rV6GzIwnx/t2LtoPtNU/fFZxJ7r7AR7aGp19VS0vUvUNzFbz8ukFabO6LtkPuH9989ugXG7yBuSPs53Jc/fKzR8BGcUen37YddZ94ElrbTtyvrtpOuzd8l2jbRtzRKQ4PEd9k2rYT97btxHtBTtsWgwOKC/kup21LcfioPiloe/To11uIOzr0weGqpG27Lu5V28Fb5jdlbdvUv4c+cSh2bts9qQff2qqe0o1P6unRwQ+nv63W1tDgTk8PvrGJsbSO0xqOvsWJfafz8kkdTyt5e+jVB4IgyE8as4nnRdpOuz+QJn73rMj3n7cdeD/oE6Ue+vuTEs+efdl25n3gkjd4U/5Q9gbm/th26D3AYY3e/lQp7p9tp26frtro7c9V3k6e/aXt2K2j0CZvr/9a6e3k+7Zjt05j96a8/lu1t4NvcFrTcNrg7dCrkU3e/l7t7eQfbQdvGRO97QR6240d+7eTQ6/gdh0XDn6upe5Uv520Hbt15o3zhdc184VDL0M6nZXd5K1mnoXThY7VOGH4178rveHyZUdvHBiq1pGeYWsTEFYP/89JacH35OCH0gir18B/Py/wJT6iCIIgCFLJ9Vkdj8+rOL55/6btzHvB4xrOjmsAeTdYkHTenFV7+1mdt9DdTdux2+eH2zW3WNwxPq23b26huR/bzt02VU/qhuaG4gTvy+I2Njfwhk/qDyVxW2i7bjv1HvC/s1tr+9B25r0gJ+7sfLO2920n3hNkcZs7N2xtKVkft4U27Nsyrs+2HkpxJJV58/hsq4IX51hF3p+dbdKGE6wqnt80D6XnOCDUAOZq1Z0fo7UGro+r1J2f3xz8hHQTz69vjsPF3diYWOZFadvx/M31hxvB+w8/vtHaToMgCIIgCIIgCIIgCBIzvLzU285wL5i+53/E080Ice5+lJ7jeHc/yp3QCScfcbGqqzLj7keZcRLc/Sh3QifKJ+BtOrbkp2Kgst59JdqRT8ObQchMersm2N62wmBqV3qrT4eL+0q0I5+ktz0Ave0GetuNT8NbcFDedGeu2MrcmWabJG8LL1jNJq6tut2xnECzRhPVdiezVXCpiw/88bir0rk1FoT1hzXuSce8XF3AaS5Ghp9s7PcG4rgXA6fnSQNIRR5zajmj+YTC91fZ5kUvOk9HD9xplora7nxp+OERI2+LMWQtXsAdMdeEUapSahM3DZ95g5kDs+FTQOVkmH4tIDzeajNO9HBPrioK5SEk/m5ah/iE2NH+jERtUlsSlh6CkGTH/jzKo9pkkuTRCeHxvhBzkOw6JOF5fJcwEk0LjTiVOOI49sasSbKVE+le3I0+URVO+IQRrlCSBM28LbN/B5UpSrrDiICheDtn4WbZW6RBqnt7RFHU5ECrUJvCsi1wiCwPLeXpE56moApP+oIhoazjUdhEIyGQSrGTHa3Ym8LgVoWosF//nrzBvSWWaL6axSnlWtHbpTXU+6bYbBpEUeOy1oeXrt/XOprZn3q9pUgz9LylStfwB3CZ9ybik9HQFF9YDMO2sWQKHwzNTrjlMhhleXich8DLaKMWeNMoRGc6oUrcuMCb4nbFXmRtwIE6FtxM4ujimP2F109PPAmmIqo+YIq9vB9tAc9uwYIovFf0JmOwpJNdq9StOlp+XMi8dVWFXOZ21UjlNUAeXpEn/8Uk21A0YpVMLDN6Dx0BKRTaon/LVnYGEKMi9g5AzOx6DEbt6FW1tz6EiDoIuKKq5RmjxpuQtMrvKi6o4pmBrdkSCuRRyrus7KTVD8NWnGqZVqTKj6d5i3cATiXdgEV6LTV1CLS3cGTQas5f5w0usNgQppUFwlT0WBV5ZKA/ids6HJZLMQJWbk2FOqTmft+agOUeFpbc7RpvKo0/v2V765WvqLq9Gfk8RJFG8IScN1lKVy1XjwVvc8ruZaVhpLKx9HZC+TiO0OzNhUG9Yspe5y17tFJMGFkGpQbXVbmcR6G5txF+nTdKy6H1olrbKce+PSBKbjez5MxFb1pf96xgRZP2GIgiYT3WCxde5w1awqhTYK1CGTLy8/YvKJdXiGe55gED79QfOzNa4w0egpLlgreVXexndwNu+srKmFd50415WP9wLgq46LI0l0PRBJvdpSVdeZ23NS3HXRAbRkOoyy5WvplshIGpkCfx5o/cOARUYbXeSp1HwZtjq/dSiIg6kWdQJc6ZedO6UNWzsOxkEyUb7QIG26HMhSt30xG5ztsFZU7p3CaU1OEhbE5mel2e6AAe1NQ2D1O4k5r2pm3jjZUb/i6Iajr/nyOEVbbkbQLlqWuI4leT+jfBNOiS8MopSbLUeZvTym5FGzozcQgKT+y4KY8nCtrR2J8uNK22f/u43ljP7MtEJ0m9QQkurXXnvIVZ9fFaFFFxi6vzNlDruxVzaLhciQdXRtm4X84Dkwg3fZZrx1PwZhWP/kDeXFo+lSD1NlPlkbDkLY6W2KrztrSb15fGSZdeGKeyM0gT8gZv5Z+BHshb3Tpbul2lcqFS6Q26OkqTV+pA+iD15jA6acwBA8cy/kZFHp8rPHtX621eMfo8kDcjf6EpiTfRZ0imqr15PKlqeyxXp6XeLL5h9dCJG6pTufDZy823ar0t7fLdeSBvXs1yaOqN5/qMTd6ySwpJvem5aWcFUB+M6vOMuTz7qvUm7k5xCvJA3sTiglOxPX1O3VzbB2/leQ8Uk/QielW47Gw9hFA6b8rhxoWKtNgh4eXmZLXzhX559eChvEHbVkh5KpN5E58nkU1fTeo7Tb7N2bUu8qVA5s1hChvlG5IpvV4lCwbVeXJC9JGqxMuEBW9iCkIK1h/KmynWT90gXGv0x4bjRJtTb3BeqvqLxdQz1gTqULgqccEOmQycwILvOK6YciUSbJiJObC154iwmTcNTmOTUc/z4Bzd8CScX4ycnu951ooxRZ005ZmBquV0oQ+tpUqgVFZn4Qyv6C1c3IUJh3c5NlYD/yG9daZi9TicD0B9zvig4K2zjBfEuVhtFoVWuKQPXbD4XUF8RQhJiwRLJOdi2dvMeYP8YlYlvsFsPooUU5WFhwDZnJpNefqhdrHNtonKxMw2qPAG9Ywqph/hWdLfFx7GW6c/EFLEv6srgsW3Xfp7XE74KXzoBv1OQKKfQlbRjwLRB0upMzaSrWLiJP/9EDGrCg8EXwi7url8COnpSvJwOc9CSVKMPPHLDQ/nEUPYIf/w62uS7BgdU8/vArnv74dK0+sZhgGPjN5PTmGaZno27RI+tYZxgxj2oms0F54ViA+mhW7Lh4cr/mVQPoqYVVlifzhLsqvuiS2BX1gClfJkG/UxbEp+LVz4jviO1jdLS3gm9AQG9CB6lLewiwaRtlGCIAiCIAiCIAiCIAiCIAiCIAiCIMhPjv8Dxnke7G48tcAAAAAASUVORK5CYII=;" parent="Fb7DKyUG0hWQXaiTz3AM-16" vertex="1">
          <mxGeometry x="10.279999999999973" y="35" width="149.74" height="78" as="geometry" />
        </mxCell>
        <mxCell id="nlwU2PpXcWKmxTWrh6bV-5" value="" style="shape=image;verticalLabelPosition=bottom;labelBackgroundColor=default;verticalAlign=top;aspect=fixed;imageAspect=0;image=data:image/jpeg,/9j/4AAQSkZJRgABAQAAAQABAAD/2wCEAAkGBxESEBUSExITEBAVFRUXExUSEhAXFRUZFhIWGBUVHhYYHSghGBolGxYVITEiJSkrLi4uFx8zODMtNygtLisBCgoKDg0OGhAQGi4jHyUtLS0tLS0yLTcrLS0tLSstLS01Ly0tKy0tLS0tLS0tKy0tLS0tLS0tMC0tLS0tLSstLf/AABEIAKUBMgMBIgACEQEDEQH/xAAbAAEAAgMBAQAAAAAAAAAAAAAABgcCBAUDAf/EAEAQAAIBAgIHBAYIBQMFAAAAAAABAgMRBCEFBhITMUFRImFxoTJSgZGxsgcUMzRCYnPRcsHC4fAjkvEWJENTgv/EABoBAQADAQEBAAAAAAAAAAAAAAABAgMEBQb/xAAoEQEAAgEDBAICAQUAAAAAAAAAAQIRAyExBBIyURNBBSLwQmFxgZH/2gAMAwEAAhEDEQA/ALn3j6jePqYgDLePqN4+piAMt4+o3j6mIAy3j6jePqYgDLePqN4+piAMt4+o3j6mIAy3j6jePqYgDLePqN4+piAMt4+o3j6mIAy3j6jePqYgDLePqN4+piAMt4+o3j6mIAy3j6jePqYgDLePqN4+piAMt4+o3j6mIAy3j6jePqYgDLePqN4+piAMt4+o3j6mIAy3j6jePqYgDLePqDEAAAAAAAAAAAAAAAAAAAAAAAA0cfpehR+0qRT9VO8vciJmI5WrW1pxWMt4ESr6800+xRlJdZSUfLM2MDrnQm7TjKi+r7Ufev2KfLT26J6LXiM9qSg88PiIVFtQlGa6xaZ6GjmmJjaQABAAAAAAAAAAAAAAAAAAAAAAAAAAAAAAAAAAAAAAA88TXjThKcsoxTk/BK7IRpHXWpK6owVNetLOXu4LzKX1K15dGh02preEJxXrRgtqclCK5yaS8yO6R1yoQypp1pdV2Y+98fcQuM6uJqxjOo5SnJRTm3ZXdvYTzBajYaKW251Zc89le5GUal7+Ltt0uh0+PmmZn1CIaR1mxNX8e6j6tPLz4nPwWBqVpWja/NznGK98nmWTU1OwTX2bXepz/ciuteq0cNDe05tw2knGdrq/R8zK+nfm27r0Or0J/TTjtmf7O7DVHD1acNq0KyS23QktmT8Hl5HI1q1adNQ+r0b04puctq82+9N3tbp1ODoPSs8NVVSOas1KN8pJ/wB7M0sVipSblJyk223m3xdxN6TXjdbT6fXpqZm+ax/PbPD4mpSleEpU5dza95ItHa6VYWVWKqrquzL9mQyWIfLI0a2KnGeUumT4FaTaOJa68aN4/euV06O1iw1bKNTZl6s+y/PJ+w6pRuDxjnxg/FcDv6O07iKOUKjcfVn2o+fA2jXxtaHBf8ZFo7tK3/Vpg5Wrel/rVHbcVGSlsySd1dJO/mdU6InMZh5N6TS01nmAAEqgAAAAAAAAAAAAAAAAAAAAAAAAAAAAAAAOdrJ9zxH6NT5WU5TxEl3ou3HzgqU3UV6ahJzVr3jbNW8CndI0KcpuVGLpwfCMpXt7Tm18bZet+N7sW7WNPExfOz/zmSDBa14umrKptrlvEpefHzIlODXFWPsKrXBmEZjiXpWmt9tSuU2nrvjGv/EvCD/mz6tE47G2nKpCceV6sbK/5Y8CIU8Wuasb2Dxk4PapzcJdYuxPdP8AUj4aRGdGIif8Jbh9QKr9OtCP8MZS+LRyNZdE0cLJU41JVavGd9lRiuSsub8To4DXmvCLVSEartlL0Xe2V+TIvisS5ylUnK8pO8m+pN5pj9YU0K9T8kzqztHrG7xnST5HisHC92rvvFTFrlma06jfFlIiXRe9PWW3PERWSz8DWqYiT7l3GEKbfBG1Rwtmm7Pu5E7Qrm9+Fg/Rov8AtJfqv5YktOLqjpCNbD9mEaag9jZh6OSTyXLido7qeMPm+oz8ts+wAFmIAAAAAAAAAAAAAAAAAAAAAAAAAAAAAAADnayfc8R+jU+RlN08RJd67y7NJVYwo1JTW1CMJOUeqSd0U7jaMZTcqcVSi3lC7aXtZza+Mw9f8b3Yt2vkMRF8cvE+Tw0Xwy8DVnTa4oQqNcGYY9PT+T6tDKdCS5XXcecXbhkbVPF9V7j0cIT7+9cRn2dkT4y1vrMuvkeUpN8Xc2vqff5HpGnGOfmxmDsvPMtWnQk+5d5sQw0Vxz8eBjUxfRe81p1G+LG8maV43bc8TFcM/A16leT7l3GMKbfBGzTwqWbz+A2gze6wfo0i/qkssnVlbv7KJacHUvSDrYbhFbEnBbCssknwWS4neO2njD5vqc/LbPsABdiAAAAAAAAAAAAAAAAAAAAAAAAAAAAAAAA52sf3Ov8Ao1PlZTNOq1weXQvdq+TzRFdMajYeq3Kk3h5vlFXg/wD55ewx1aTbh3dH1NdLMSruGKT4q3wPsqEZZrLwN7S2q2Kw93KnvIL8dPtL2rijixk1wdmc00mHs0163j29Z4eS713HknbuZsU8U+av4Hr2J+PmRmY5W7Kz4y1vrEuvkecpN8Xdm19TXVmajCHj5jMfSey0+Utenh5PuXee8aEY5vPxPOpinyVvE15SbeebG8ozSvG7anilyV/ga9So3xZ29E6pYqvZ7G6pv8VTL3R4sm2h9ScNR7U1v5/nS2V4R/e5pXSmXJrdbWvM/wCoeX0b0pRwjbTSlUbjdcVZK67iVhK2SyQOusYjDxNS/fabewAEqAAAAAAAAAAAAAAAAAAAAAAAAAAAAAAAAAAAHI0tqzhcRnOmoz9eHZl5cfadcETETytW1qzmJVppbUGvTvKjJV4+q7Rn55PyIricPOnLZnGVOS5STTL1NfHYClWjs1acai/Mk7eD5GVtGPp26fXWja8ZUhvZdWfaNGc5KMIynN8FFNtlmy1Cwe1f/US9Xby99rnd0boqhh47NKnGHVpdp+MuLKRoz9t7/kK42zKv9EahV6lpVpKhH1cpT/ZEs0PozAUJ7unu5V1xcpKU/wC3sO9U9F+D+BUeBm99B3z3kXfn6SN6adYebr9XqW5nZblWrGMXKTUYri27JHlhMZTqq9OcZpZNxd7HJ10w854VqCcrSi5JcWl3c+TON9H+GqKdSbjKMHFLNNJu9/b/AHL42YTb9sJsACFwAAAAAAAAAAAAAAAAAAAAAAAAAAAAAAAHlisRGnCU5u0Iq7ZydE6z0K8nFbVNpNrbsk0uLuemtv3Or4L5kVhctEZZ3vMSsXG64YaDtHaqvnsLL3vj7Do6G0vTxMHKF007SjLiiEaJ1Ur1oqbtRg+G0ntPv2enib2kraPo7mnNyr1s5T4bMVlkuXPzGIRFrczwkek9YsPQbjKe1Nfhgrv28kcyGvFC+dOol17L8rkY0HoGrim2ns00+1OV3n0S5skNbUWOz2K0tr80VZ+7gMQd153hI9HaUo11enNStxWakvFPM3Cqa9Cvg6yv2Kizi16Ml/NFi6O0vCphlXbUUotz/K4+kiJhat88tvGYunSjt1JKEerfl3sj1fXbDp2jCpNdbJLzzIfpjSdTE1dqV7XtCC5LkrdTr4HUyvOO1OUaV+EWm37bcCcR9q98zP6pFhNasNVTjtOnJp2VRWTy9bgV9gftYfxx+ZG7pnQNbDZzSlB5KceHg+jNLA/aw/jj8yJiGdpmZ3WrpPHwoU3Um3srpxbfBI1NB6dpYnaUE4yjxjK17dcjQ19+6r9SPwZxvo++3qfp/wBSIxs1m092E4xeKhSi5zkoRXN/5mR2vrth07RhUmuqSS88yP66Y+VTEyp37FOyS77Jt+Z66K1QqVqaqOpGmpK8VZyduTfQYj7RN5mcQlGjdaMNWajtOnN8FUyv7eB2isdK6t4ii/RdSHKVNN+9cUTjVanVjhYKrdTzspcVG/ZT9hEwmtpmcS6wAIaAAAAAAAAAAAAAAAAAAAAAAAAAAA5Gtv3Or4L5kQPVrCxq4qnGSvG7bXXZTdvInmtv3Or4L5kQvU377T8J/Iy0cMb+ULLKz1xqOWMqX5bKXhsr9yzCvte8E4YhVfw1Es/zRya91hXlbU4amjtZ69GnGnBU1GN+MXd3d23mbP8A1piulL/Y/wBzd1O0hh3Dc1YwU03sSnGPaTd7XfNEu+o0f/XT/wBkf2E4VrEzG0q10vp6riYqNRQ7LunGLT+PA2MHVktHV1nsurBJ+PpfBEtxGlMBCpu5bva4O1NNLxklZGxrBo/eYSdOCSdtqKVkrxd+Qydv3lDdScLGeKTf4IuSXfkl8Sxyp9CaReHrxqWbSupLrF8V/nQs/BY+lVipU5xkn35rxXIWTpzGDSWGjVozhLhKL9mWT9jKowP2tP8Ajj8yJ9rTp+nSpSpwkpVpprsu+ynk22QHA/a0/wCOHzImOFdSYynmvv3VfqR+DON9H329T9P+pHZ19+6r9SPwZxvo++3qfp/1Ij6TPnDY1y0BN1HiKcXNNf6kVxTS9K3NWI3gtK16OVOpKC9W+XuZNcXrhRp1nTcJOMXsymrWT55c0jp7jCYmO1s0qqfNJX9/FDPtM1iZ2lFdHa7VYtKtFTjzlHKXu4PyJrgsXCrBVIPai+D/AJeJX+tmjcPRlHcz7TvtQvtbPffl4M630dzls1Y/hTi14tO/wQmNslbTnEpgACrUAAAAAAAAAAAAAAAAAAAAAAAAAAHN1jw0qmFqQgryccl1s07eRDtS8FU+tRnsSUYKW05Jq14tJZ88ywwTlWa5nIauk9Hwr03Tmsnwa4xfJo2gQsrLSmrWIot9h1YcpQTfvXFHOjGs+ylVf5VvPgW8C3cy+L0rvQ+qVaq06qdGnzv6b7kuXtLDhFJJLgkkvYfQRM5XrWKofrJqm5ydWha7zlB5XfVfsRGtgqsHaVOcX3xkW8CYsrOnEqr0foLEVn2abS9aacY+fH2DA6LrfWY093JSU1fsuySlm79C1AO5HxQ4OuuGnUwr2IuTjKMmlm7K6eXtOPqBhJqpUqOLjDZ2U2mru98ibAjOy813yhmsOqUpTlVoO+025QeWb42f8iKVcFWpu0qdSD/hkv8Akt4ExZWdOJVXo/QWIrPs05Jc5TTjFe18fYWJoTRUcNSVOOb4yl6z/Y6AImcprSIAAQuAAAAAAAAAAAAAAAAAAAAAAAAAAAAAAAAAAAAAAAAAAAAAAAAAAAAAAAAAAAAAAAAAAD//2Q==;" parent="Fb7DKyUG0hWQXaiTz3AM-16" vertex="1">
          <mxGeometry x="12.539999999999964" y="130" width="153.92" height="83" as="geometry" />
        </mxCell>
        <mxCell id="zMH5ilQVq5EZoSpTPkEi-1" value="10.84.0.23" style="text;html=1;align=center;verticalAlign=middle;whiteSpace=wrap;rounded=0;" parent="Fb7DKyUG0hWQXaiTz3AM-16" vertex="1">
          <mxGeometry x="9.54" y="208" width="66" height="30" as="geometry" />
        </mxCell>
        <mxCell id="Fb7DKyUG0hWQXaiTz3AM-19" value="Database" style="swimlane;whiteSpace=wrap;html=1;" parent="Fb7DKyUG0hWQXaiTz3AM-1" vertex="1">
          <mxGeometry x="1105" y="307" width="179" height="200" as="geometry" />
        </mxCell>
        <mxCell id="Fb7DKyUG0hWQXaiTz3AM-18" value="" style="sketch=0;outlineConnect=0;fontColor=#232F3E;gradientColor=none;fillColor=#C925D1;strokeColor=none;dashed=0;verticalLabelPosition=bottom;verticalAlign=top;align=center;html=1;fontSize=12;fontStyle=0;aspect=fixed;pointerEvents=1;shape=mxgraph.aws4.rds_postgresql_instance;" parent="Fb7DKyUG0hWQXaiTz3AM-19" vertex="1">
          <mxGeometry x="19" y="37" width="68" height="68" as="geometry" />
        </mxCell>
        <mxCell id="Fb7DKyUG0hWQXaiTz3AM-20" value="" style="shape=image;verticalLabelPosition=bottom;labelBackgroundColor=default;verticalAlign=top;aspect=fixed;imageAspect=0;image=data:image/png,iVBORw0KGgoAAAANSUhEUgAABfoAAAGHCAYAAADocOPUAAAAAXNSR0IArs4c6QAAAARnQU1BAACxjwv8YQUAAAAJcEhZcwAALiMAAC4jAXilP3YAAIBsSURBVHhe7d3bc5TXue97dffbLVjmJBFTCM+JyMKWWZZqWrDsMl6rwNixM2fiC8s38d5VSZlULvbaV1b+guC7ta9Crva8SUWuzKod5wblwkkqcRIMVduk7DLy2sKFsZlB7GWgcCxx8gZJfdj9G4wWQujQh3eM9/T9VDHp0XjGpvX2+47xjGc8TxcAAAAAAAAAAAAAAAAAAAAAAAAAAAAAAAAAAAAAAAAAAAAAAAAAAAAAAAAAAMiIXCnYUnpxeDw4MDRm3wIAAAAAAAAAwLmC/R0dKj3/T7/K9297Jb9143DXXPl69cvrp+wfAQAAAAAAAADgTN7+jg4UHttxWEF+O+wK9u4+YgL+AAAAAAAAAAA4RqC/Q7kN63cVn9lz1A7v6g42Fw8Ojqmcj30HAAAAAAAAAAAnKN3Toe6Xnzqe27i+3w4X5NZ3b88FhfXV//n339u3AAAAAAAAAAAIHYH+DhT37zm6uGTPUvltm/fXpm9+XLv+9Vn7FgAAAAAAAAAAoaJ0T5vyfb2HCoM737DDFRUPDI2pvI8dAgAAAAAAAAAQKgL9bVDt/dK3hsftcHXdwebguaExOwIAAAAAAAAAIFSU7mlD8V/+8+/zWx563A7XlFdGf64rV708c9y+BQAAAAAAAABAKMjob1Gwb/eRwvae5+ywacHe3T9RuR87BAAAAAAAAAAgFDn7O5qQ37pxuDTy7Gk7bN1s+frsr0/sqs2Vr9l3AAAAAAAAAADoCBn9TVJd/uDFJuvyr0T1+l/a29n/BgAAAAAAAAAAi1Cjv0ml5//pV/ltW56xw7aZev1z5evVL6+fsm8BAAAAAAAAANA2MvqbEAz2j+b7t71ihx0L9j/+U5UBskMAAAAAAAAAANpGoH8NCsgrMG+HoVEZIJUDskMAAAAAAAAAANpCoH8VodTlX0F+w/r+4sGhMTsEAAAAAAAAAKAt1OhfRVh1+VeS2/LQnq5cV656eea4fQsAAAAAAAAAgJYQ6F9BsG/3kcKef/zf7NCZfF/voeqVmfdqt25fsG8BAAAAAAAAANC0nP0diyj4XvruU3+xQ/dmy9dnf31iV22ufM2+AwAAAAAAAABAU6jRv4Tq8pe+5aYu/4q6g83BS3v9/jsBAAAAAAAAAKlA6Z4liv/yn3+f3/LQ43boTX7D+l257mJP9X/+/ff2LQAAAAAAAAAA1kSgf5Hi/j1HC/9x+2t26F1+2+b9tembH9euf33WvgUAAAAAAAAAwKoo3WMV+reNFAZ3vmGHkSkeGBrLb904bIcAAAAAAAAAAKyKQH+dAusKsNthtLqDzcWDg2PqFWDfAQAAAAAAAABgRZkv3WOa7740PJ7buL7fvhW53Pru7V3ru/uqF6/SoBcAAAAAAAAAsKrMB/qD//LEvxb+4Rv/bIexYcr3zJWvV7+8fsq+BQAAAAAAAADAAzJduicY7B8NBna8boexE+x//KfU6wcAAAAAAAAArCazgf58X+8hBdLtMLZK33n6OPX6AQAAAAAAAAAryWSgP7dh/a7St4aTUf++O9hcevmp43YEAAAAAAAAAMB9Mlej3zTf/Zd9v49T8921mOa8G9Z/k+a8AAAAAAAAAIClMhfoj2vz3bWoVn/t1u2p2vTNCfsWAAAAAAAAAADZKt0T9+a7aykeHPoFzXkBAAAAAAAAAItlJtCflOa7a6E5LwAAAAAAAABgsUwE+pUFn5jmu2uxzXkJ9gMAAAAAAAAAJPU1+k3z3ZeGx5PUfHctpjnv+u4+mvMCAAAAAAAAAFIf6C89/0+/yvf1PmeHqWFq9c+Vr1e/vH7KvgUAAAAAAAAAyKBUB/qL+/ccLTyW3Oa7a8n/wzf+pTZ98+Pa9a/P2rcAAAAAAAAAABmT2hr9hcd2HC4M7nzDDlOreGBozGT3AwAAAAAAAAAyKZWBfgW+iweHfmGH6dYdbA5eHB6nOS8AAAAAAAAAZFPqAv25Det3lb7z9HE7zIT8hvX9pZefytTfGQAAAAAAAABwV6pq9CurvfQv+36f27i+376VGbn13du7Nqz/ZvXi1XH7FgAAAAAAAAAgA1IV6A/+yxP/WviHb/yzHWaOShbVbt2eqk3fnLBvAQAAAAAAAABSLjWle9R8NxjY8bodZlbxmT1Hac4LAAAAAAAAANmRikC/ab77zJ6jdpht3cHm4sHBMZrzAgAAAAAAAEA2JL50j6nL/9LweBbr8q9E9frzWx76T5V/v/Ir+xYAAAAAAAAAIKUSH+gvPf9Pv8r39T5nh7ByWx7a0zVXvl798vop+xYAAAAAAAAAIIUSXbonGOwfzfdve8UOsUSw//GfUq8fAAAAAAAAANItsYF+BbCDvbuP2CFWELw4PE69fgAAAAAAAABIr0SW7qEuf/NypeKWrvXdfdWLV8ftWwAAAAAAAACAFElkoD/4L0/8a+EfvvHPdog16PRD7dbtqdr0zQn7FgAAAAAAAAAgJRJXuqfQv20kGNjxuh2iScVn9hzNbVi/yw4BAAAAAAAAACmRqEC/AtXFA0NjdohWdAebSy89SfkeAAAAAAAAAEiZRJXuKb60dzy/5aHH7RAtyq3v3t6V68pVL88ct28BAAAAAAAAABIuMRn9wb7dRwrbe56zQ7Qp2Lv7J/m+3kN2CAAAAAAAAABIuEQE+tVMVgFqO0SHgoODY7lSsMUOAQAAAAAAAAAJFvvSPQpIl14aHjdlZxCKXKm4pWt9d1/14lVq9gMAAAAAAABAwsU+0F98euC/5/u3vWKHCIlOSdSmb35cu/71WfsWAAAAAAAAACCBYl26R7XkC4M737BDhKx4YIgSPgAAAAAAAACQcLEN9CsArVrydggXuoPNxYNDfMYAAAAAAAAAkGCxDfQH+x49kt+wvt8O4YjKIhX6t43YIQAAAAAAAAAgYWIZ6Kdkj1+U8AEAAAAAAACA5IpdoJ+SPRGghA8AAAAAAAAAJFbsAv2U7IkGJXwAAAAAAAAAIJliFeinZE+0KOEDAAAAAAAAAMlTsL/HQumlJ8dz67u32yF8C/LrutZ391UvXh237wAAAAAAAAAAYi42Gf3Bvt1Hcr2bnrRDRCQY2PG6TlbYIQAAAAAAAAAg5mIR6M9tWL8r2Lv7J3aIiNEMGQAAAAAAAACSIxale4ov7R3Pb1i/yw4RsVypuKUr15WrXp45bt8CAAAAAAAAAMRU5Bn9hcd2HC5s73nODhETOmGhkxZ2CAAAAAAAAACIqUgD/blSsKX4zJ6jdoiYCZ4booQPAAAAAAAAAMRcpKV7ik8P/Pd8H9n8caVySrVbt6dq0zcn7FsAAAAAAAAAgJiJLKM/v3XjcGFw5xt2iJjSiQudvLBDAAAAAAAAAEDMRJbRH7zw5K9owJsAQX5dV7U6S2NeAAAAAAAAAIinSDL6acCbLDTmBQAAAAAAAID48h7opwFvMtGYFwAAAAAAAADiyXugvzDUP9rVHWy2QySETmDk+3oP2SEAAAAAAAAAICa8BvpV/kVlYOwQCRMcHCSrHwAAAAAAAABixmsz3tLBobHclof22CESJlcqbumaK1+vfnn9lH0LAAAAAAAAABAxbxn9KvuS79/2ih0ioYK9u4+oz4IdAgAAAAAAAAAi5i2jX81c8xvW77JDJFWQX9dVrc5WL88ct+8AAAAAAAAAACLkJaO/8NiOw2rmaodIOPVZUL8FOwQAAAAAAAAARMhLRn/xpeFxU98d6VEq9lQvXh23IwAAAAAAAABARJxn9CubP79hfb8dIiWCgR2v57duHLZDAAAAAAAAAEBEnAb61bS1+Myeo3aIlCns52cLAAAAAAAAAFFzGugvDPWPdnUHm+0QKaO+C/m+3kN2CAAAAAAAAACIgLNAv7L5gyf6R+0QKVXYt/uIfQkAAAAAAAAAiICzQD/Z/NlAVj8AAAAAAAAARMtJoJ9s/mwhqx8AAAAAAAAAouMk0E82f7aQ1Q8AAAAAAAAA0Qk90E82fzaR1Q8AAAAAAAAA0Qg90E82fzaR1Q8AAAAAAAAA0Qg10E82f7aR1Q8AAAAAAAAA/oUa6CebP9vI6gcAAAAAAAAA/0IN9JPND7L6AQAAAAAAAMCv0AL9hcd2HCabH8rqz21Yv8sOAQAAAAAAAACOFezvHSu+NDyeKxW32CGyrFTsqV68Om5HAAAAAAAAAACHQsnoVzZ/fsP6fjtExgUDO14nqx8AAAAAAAAA/Agl0J8feOSwfQkYhYEdXBMAAAAAAAAA4EHHgf58X+8h1WW3Q8BQY+ZcKaCUEwAAAAAAAAA41nmg/1Eyt7GM7mBzvn/biB0BAAAAAAAAABzpKNCvOuyqx26HwH0K+3YfsS8BAAAAAAAAAI50FOinDjtWowbNKu1khwAAAAAAAAAABzoK9KsOu30JLCsY3Mk1AgAAAAAAAAAOtR3oLzy247DqsNshsKx8/7ZXVOLJDgEAAAAAAAAAIWs70J8feISyPWgKJZ4AAAAAAAAAwJ22Av3K0C5s73nODoFV5XX6AwAAAAAAAADgRFuB/mCI2vxonpryFvq3jdghAAAAAAAAACBEbQX6C4+SoY3WmJ4OAAAAAAAAAIDQtRzoN5nZNOFFi2jKCwAAAAAAAAButB7oJzMbbaJ8DwAAAAAAAACEr6VAf64UbFFmth0CLckP7aS3AwAAAAAAAACErKVAf+GxR8jmR9vUlDe/deOwHQIAAAAAAAAAQtBaoH+gj0A/OsJmEQAAAAAAAACEq+lAvxqp5no3PWmHQFty/Q9Tpx8AAAAAAAAAQtR0oD8Y6qe+Ojqm8j005QUAAAAAAACA8DSf0U8mNkKS20mgHwAAAAAAAADC0lSgXw1UlYlth0BHAjL6AQAAAAAAACA0TQX6aaCKUHUHmynfAwAAAAAAAADhaCrQT9kehI3yPQAAAAAAAAAQjjUD/bkN63dRtgdho3wPAAAAAAAAAIRjzUA/JVbgRHewWb0f7AgAAAAAAAAA0Ka1A/0DfdTnhxP0fgAAAAAAAACAzq0a6M+Vgi253k1P2iEQKno/AAAAAAAAAEDncvb3ZRUe23G4eHDoF3YIhG727ZPfrN26fcEO4ZD6bRQGdiT6FEXl3KUxrpdsSPr1yrUKAACAqOT7eg/l+3oO2SGWUbt5+0Lt1p278/W5+WvVr25OmNeIjTTEMOKgennmuH3ZVfvqxkRtrnzNDpFCqwb6Sy8Oj+f7t71ih1hD5crMe4XtPc/ZIZpQPvXpj8tnpo7aIRzSZK/03af+YoeJVD59/s3yR+eP2CFSLNi3+0iwd/dP7DBx5n774fPVy9MLEyoAAADAl6TPpaNUm77xcXWucq3rq5sTNW0AXJ45fndTgCQe39IQw4ir6q3bU2aji+s8dVYN9K/7/gvX1DTVDrEGBSFz9RsRwf7mVaeu/mbu3QlK+HiQhoekHkZzb5/cZYdIsdJrBy7kN6zvt8PEIdAPAACAqBDod0PJnQqMVpUVPa3fOQXgEoH+CMyWr1evTB+v6vq+PHOcNW3yrFijX18ogvxwjRMjaIUCvyopZodIKf2MkxzkBwAAAJA+SuosDO58QyWuSyPPnlZyrCphBIP9o/mtG4ftPwYkV3ewWXE6bRRqk2Xdj75da1zjKqVk/ynE2CqBfuq5tWyWOlftMJtKQJPyA48Q6E85fsYAAAAAYq8RFN3/+E8bgf/gwNCYEpdypWCL/aeARGtc492vHfhb96v7Jwj6x9uKgX6VoLEv0SQdbbEv0YJC/zZK96BpyqLgoZJepuES5c8AAAAAJE13sDkY2PG6Mv67f/DCjDKhCfojTXK9m55sBP2LLz99nIoL8bNioJ9AC3zJ921hUwktCYb6R+1LpAw/WwAAAABpoEzopUF/+0dA4ilurOvbnGTZt/sICZnxsGygn1Iq7avdoEN1q7QjyA43WlF4lAlSWvGzBQAAAJA2jaC/gqLF/XuOEhRFaugky97dP1GWv0pXcW1Ha4VAP/X52/Y1gf52sLmEltQfJGRDpI/5mdZ/tnYIAAAAAOmitezgzjcWSp9QyhgpotJVCwF/EnojsWygn/r88C1Hh3q0KBjaSYmXlOFnCgAAACArTOmTF4ePlV47cIFENqSJCfh/7+AFlfSxb8GTgv39PqWDQ7+wL9GC8kfn38xv3ThMdnrrarlcrvrZpTE7hAO57mBL15YN/6l2687Ucr9yc/PXc+u7t9t/PPb031q9ePU3tdtzV+xbSDDdO4O9j/7EDhOteuv2lO5nXJsAAACIgimd0V3sWW7dp195SmvESq5U3KLM/vzAjh/muotbal/dnOiqVO/YP86s1WIY+mN9bnf/ScRSkF+n+Ghh18Ov1q7/f2drt6iA4kPO/r5AP4TSd5/6ix2iBXd+/oecdqtUm8q+hRbo87MvESFNCs0kY2jnaH0C2G/fjqXyuUtvlU9OkvmQAjrap11/O4wdE7yfvHi0emX6eFUTbwAAACDBlGhTeOyRw6ZHFuUz42W2fH3+r2dHKyRDrkmxi9zObSNxXkvirsqZiz+bP3WWU/yOPZDRXxjYcZiM9PaUT59/U58dn197qldm3mOHLwbmyteqX14/Vb8JH+3KdeXifD3nN6z/ZuXs//uvZDskm2r3lf7rE/+qHX/7VqyUT3364/m//I//Rd8LsvQBAACQBprXVv/n33+v9VR+y0P/KbfloT32jxC1+rqokeHfdevOhdr1r8/aP8ES+myqF6+OK56U6+t5niz/+Mpv27zfZPezrnbqgRr9+V5qpXfCHLFCW7j24qf80fkj8ycmf2iH8dMdbM7TvCjxzM8wjllEs+Xrc+Pv7y2fmTpq3wEAAABSpTZXvjb37sSITkvbtxATOmGvGv5q2qsTGPZtLKN6efr4/LH3h2vTNz62byGGcr2bnix95+nj9KRw58GM/qcf++/sgLVHGf25/9C9nQu2TZXqbOXfr/zKjhATtembE3HO7M9t3bjXnD5AYpWeGxyLY3+I+eP/43+tXp45bocAAABAaikrumvD+m/GMaBcMaf/H6zT3syvNPQj0N+hsOcf/1tOfReuXjvFifYV1D+X6r9f+VXhH7d+J0n9BzPHnlhRnIn1dvjuq4mu8gndP3hhxg7RItWYVzCUHgftUQ3subdP0hQopkqvHbgQ15r9c7/98Hnt4NshEiSu90z6PwAAACCLlD1e2N7znB1GotEfqzJ1ddxFed9GEpupKtAdbNHvuY3rdinb2PwDMabPpnzizGHWvyszsc3vHbwQh1Pj1amrv1GvBfV5c1mq2mzQ2aTtJF3XrLvDd1+gnyB1+7TDPP/OB6Y+P59h+2Z/+eceHR20Q8SITqoUDw79wg5jhYdDcsW1Ce/s2ye/Sc8QAAAAZE1uw/pd3SPPTkQVJFWlBJWQtUPvFDDNb+891NVb/31Hz6G4JrupsWn5o8+PED9ZXtTxC5UQmteGTEzKezeu63xf/ZrW9R2j0rnaDJk/MXmYazkc9wX6g327jwR7d//EDtECAv3hIDM7vuJ+4odNouSJ6zWlSdnssVPUwAQAAEAmFffvOVoY3PmGHfqh/lh/mhiJWzxAGx8KjprmuHELkCq7/936Z0avyGVFVZUgCYmIil3qmi48uuNwHK5prcHn3vnwEDGdzt3XjJdmqCGYm+ei7ADXYHyZG2598mWHsVMY6h+1L5EQhcceieXkp3r5GpuNAAAAyKzKZ1+M2Zd+KMj/uw8OxTHpT6d8VXpFDYvv/Nuft8y/O/GqaVwcg7WxgtilkWdPK2nXvoVFVP7JvvQmKdUG9F2bP3V21FzTJyZ/qORl+0eRUHmhwjN76L0YgvsC/V108e4YO6kdItAfa5WZ+F7feZpgJ05+aGcsN2dqbNgCAAAgw3zHNeb/enY0KbEU9Q1QIHf21yd2KUCqTGT7R5FRZY7Si8PjOjFt30JdddrvNaUSNEksKayNLFUoUYWNKAP+Kumr0r52iDbdn9Ef09pjyI7cpuR3xEc0dP8ynduRCDoqyDMHAAAAiCdfAb9Gs1I7TAydeNd/t0p+zo2/v9dk+Uco37/tleKrz06Ypqwwal/d8Bfony1fV515O0okk+X/zgeHdGolqhMrJtjPCZWOLAT6FXSxL9GG2g2aNoahEHF3fySbGu7Yl4i5YDCe2fwAAAAA/Jk/9Wni1wU6jWCy/N8++c0oA/6mlM93nj5OAtxdPuu9lz+ZOpqW+vI6taITK9qEs295pRMqXMPtWwj05zasI5O6E18T6A+Lmt3Yl0BLlMXA9RN/pqFV/WdlhwAAAAAySGVvVAPfDhNPf5fIA/7dwebii8PHSILzqzI5lar68tq0UF8Klaeyb3lVPDA0RmynPfcC/Rv5ABEPXIvoRGGACU3c8TMCAAAAUL18LXbNd8OwOOAfVVZ08eDQL6h37ofZsEpJNv9SphH1+Pt7vZfy6Q42B89x/bbjXukemqCGJg7NWJIs39dDGSm0LXiin5IwMUfjZAAAAAC1uflUBkcbFPBXVrSanFZv3Z6yb3tDc1M/qnOVVF/HKk0197sPDvkO9he29zwXDBLfadWijH5K94Ql7V9y13KlIp3iYypfKsT/Z9MdbOaYYnyp1h5NeAEAAABkhWlyeuz94fLp82/at7wh2I8wLAT7PQv27j5CCZ/W3Av092560r4EokWX+NhKyn0iP/AIgf6Yyg+xIw8AAAAgW1TapfzR+SNRZPcT7EcYFOz3XrNfPSf2P56q/geumUB/rhSQQd2h6uWZVNaWiwKNodEpHfFi1zd+9DPRz8YOAQAAACBTGtn9vmv3E+xHGFSz33ej6Xz/tlfyfb2U+G7S3UD/1k1kUCM2KOuBMARkjscOPxMAAAAAWafsftXuL5/69Mf2LS8I9iMMlb+eHfXdm7Swb/cR+xJrIKPfgdxsuhvK+MA1mU4+jygWHt1xmOsoXvQzsS8BAAAAINPKZ6aOqpSPzyanBPvRKW1UzZ865zWJT5UByOpvjs3opyZ6mKrTNyfsS7SJUybpVJ286K+2WnewOd+/bcSOEDHTILn+M7FDAAAAAMg8lfIxTU59B/vJkEYHdN1Wzlz8mR16EQzupEJAExaa8QKAa5XPvvCaORAM8SCICxokAwAAAMCD1OR09tcndvkshxLs3f0Tk4wFtKn80edHfG5QqVY/vRjXdjejn+MPHavdvH3BvkQI8n09XJMppCNePhu35Ho3PZnnxFLkQmvC63ESAQAAAAC+mLr973x4yGewv3hw6Besl9EuE9/5ZMpf1YY6+v6tjYz+kNRuEegHmlH1/CDIP8GDIGqFveEcCy1PXR23LwEAAAAgVaII9pe+8/RxsqTRrsrk1FGfCXm5/ocpz7yGuxn9G9bxpUa8PMSDJq10LNHrkcT+bSM05Y2OPnv9DOywffXJQ/XzSzSNAgAAAJBajWB/9dbtKfuWW93B5tJLT5JQhbaYrH6PCXn5Dev7OYWyOhPo1wdlRghF7Sua8XYqt4lAf5qVPTflLTxGffiomIbIITTh9X0kEAAAAACiYIKn706M+MqUVsnb4MAQSVVoi++qDcR3VkfpHgd0U7YvASyj8tmlMa9NW2jKG5mwGiJXzpHNDwAAACAbdBJ+7ncfeOtdGAzseL0QxklsZI7vqg35vi309FxFnpIWiKN8qcB1mXIVj2VYzPEumo57pyN1yg6xw7ZVp67+hj4oAAAAALJEAdT5E5M/tEPnigeGxqjXj3ZUpr70Vr5HMQZi2SvL57ZuorZRh3zuXGVFGMFBxFtZTVs8yj+6g+NdnoXVCLl8xmOpJwAAAACICZ2Gr5y5+DM7dKs72Bw8RwkftK7qsU6/kMi5Mkr3hKA6V6FUD9AiZWgrU9sOndNRRHZ9/TFNeOufuR22TU2oqpenj9shAAAAAGTK/Kmzo74STAvbe54LBsNJ2EJ26PSJz/LMORryrohAP4DImFr9HhWGmLD4ElaDnKrPxs0AAAAAEENzf/zYW3PeYP/jP6WED1pVmbk5YV86lyOjf0UE+h0g+xRoTmXq6rgytu3QufxjlO/xJZQGyPWJbOWzLzg6CgAAACDTdCJ+/uSkt/UsJXzQqprHWCh9PVeWz21Yxy4dYkmNPO1LpJjPjG015S30bxuxQziienn6rO2wbeWpq+O1uTKl0QAAAABknkmU81T+lhI+aFVN5Xs8oa/nyvK5jRzH6VRudp5AlAulIjt0GeA7Y7tAVr9zYTU+rn7it2EzAAAAAMTZ/InJw95K+OzdfYQ+d2iWTp3Yl15wbS6P0j0hqE7727UC0kYZ2+Vzl96yQ+fy/dteod6gO2E14a1cmXnPNPQBAAAAABhaP3sr4dMdbC48s4fkKzTF9/o9t3UTVUCWQaAfQOR8Z24XBsjqdyWshsfVc9TmBwAAAIClVMJHiVF26JSSuFSa1Q4BxByBfkd8NhgFkk47v7XpGx/boXPBE9QadCWUhsemCe8lAv0AAAAAsIzye/4a8xb27T5iXwKr8hnXwfII9DtSu3XHa20qIOnKHpvymiOI1OoPnRodh9KEl9r8AAAAALAi1UMvnz7/ph06pca8ZPWjGdW5Cj1MI0agH0AsmAxuT02FJD/wCIH+kIW1eVI5RzY/AAAAAKymMjl11Ftj3oODrNEQK/nejdToXwaB/hDUaBgJhKLyub8Ar7ISaMobHn2WanRsh22rTl39je9u/QAAAACQNGrM6+s0tE5ucyoecVKbm+f0wDII9IdAN1f7EkAHyspI8Kiwl1qDYQmrwXH5jMcSTgAAAACQYOWPzh/x1SOSWv2IE0qmL49AP4DYUCZ35crMe3boXNC/bSRXCrbYIToQRoNjTVCrl6eP2yGwqvzWjcOqFbraL/uPAomw1jXNKTQ0a81ribkPPFju2rvvV/06tf8ogA5VPjrvJQBvsvrra2g7BBBDuWDf7iPB3t0/sWO0Ye63Hz6/NDjF59q55T5XRGvdj75dsy/bcufnf8jZlyvSxKH44vAxO3Ru/sTkD01/ALRNRziLB4d+YYdtK5/69MflMyuf6tCisPTdp/5ih86oqZUyY+wQEdDiX0HNnIIAD9V/33Q3wKmSW+YfaENt+sbHag5Vu3H7QtfXty+o7J5O5PGcgS+6h+U2rNuV21i/puuv9V6hp36NdwebzT/QAm2MKotp8fVc1TVN6bPUM/fG+jWU7+s5lCsVt3TZYGm798fGtZSbnb9Wna5fQzfr11N9zL0Rq1l8P2s8p/OlwpZc76Yn7T/SsoVkH/N8nr9mntP1e5rubeZ9eFd8+enjncy9msG8Ozzrvv/CtXbmFK3Sd3X+nQ8Sk1DTaQyjGUn7TFzycd9oIGa4PAL9ISDQ7wZf2ngJI8jaTKBfSq8duKBsATt0SsG/2WOnyCjqQFgP89lf/rlntVJoBPrTyQT1e+u/tvceKnxjQ/11+0GCduk+UPn7rYmu6ZsT1SvTxwkqoFPKmNY96+6vLYe8Xdez5euVmZsTtfr8qTp1dZxrOfnuXkM9h7Q51O7GULu4N0LMCZH6M1rXoTaWfM3RFzObAPXrr/rVjYnq5ZnjbGr6QaA/WXzGoObG39+blGcCgX6/fMZyknQd+kSgPwTLXVx8rp0j0B8vPgP9vr8/PCDap8zC7tcO/M0O21Y+d+mt8snJVev8E+hPBxMAVdms7b2HVD7LZ9CqabPl6wpqVRQoJaCAJul+qFNphYG+w1FsWC2rfi2X69dx7eLVcV3P9l3EWOM6yu2qX0ueMuKaZu+Nui8S+E+vxjWowL4C/HF8Tptyj5fqz+f6vU3rRXrmuUGgP1k0x+7+wQszduhUM2u3uCDQ75ePz7uh2fhS1uTCKrmQZctdXAT6Ozf79slvElyJD5+Bfp+TFEnSRCVuivv3HC0M7nzDDtvWzGYLgf7kimUAtAUmq/Xc5TEFSnku+WWunSaafUf1nW1sXAVDO0fjfm2bwNhnl8Yq5y6NcR3HS+M6z9fXZVFkS7fLlP2Z+nJcZVbsW4mjUkWUcEz+c7o6dfU3ZnNez2mC/qEh0J88wYGhsWBgx+t26NRap7HjgkC/X94C/bPl63f+7c/0HFpGzlfgJM0I9LvB7ly8+Az0i89JiiRlohInZkPmewcvdJrp1Wz5JAL9yaNkApMV2L/tFftW4mkiXz33xRjBBLd0fykM9Y82O5fyfQrQBMX21ud69es7lqdS1qAN7srp80cI+EdL98j8wCOHXQfSsLIsB2eStFHZChP016Ymp5g6RqA/eVRqqzTy7Gk7dGqt/mpxQaDfH5/xZT7zleXt7wiZskPsSwBtqH7uN7uq8NgjZPS3SIvDMAJc5cmLsZ8gonkKgGqzWw3BdGIwTUF+0YJXfy9tcmlDUn9f+0cIiYKf5vNtIWHC1I72wFzf9Z+7SpaZzegEBvlF/+3m78A17J2Cq7pHqoat7iUE+eHbwn2sfp/VNZimIL9o3lF8cfiYvmP6ruk7Z/8ISD2dkFYSlR06lR/aOWpfAobP+636UdmXWIJAvyO1W3cI9AMdMPU2PU1ShIlK65QBZl+2T40jOTKfCvcFQBWgTWgAtGn1v18jWFp6cXhcGSz2T9AmfYbdr+6fMCUlW7x+1KjUvnTigQB/SiwE/PftJpvSsUaAv7GJlaQSPUgH3WOVob1wH0v5c1rfMX3XVA6UTU1kicpN2pdO6TumEwR2CHTlPF4PNfoErYhAP4DY8pnpbSYqBOqapkldGBlgFc8nNxC+tAZAW6HsQR1TVQCF+0jrdA1ps0SfYbv3FZdZ0SY4O/LsRJqvbxMMe3X/BAv28C0N8Kd+ExSx0wjw6x6b1RMkC5uaBPyRAZXPvvC2vso/0U+yHBa4TrxZzGfJzqTJ8+F0xmfGcZao3pZ9iQxTDWxlfNuhc/lH1274iLvCmtSVJ+Nf1xHLU/BKzZizHOBfSgGUhYA/AdM1LQRAR56dCKPEk/pB2Jeh0M9Qwe+sBGe1yaK6vmT3h0dlqIqvPpuZawjxsngTlRJRdxHwRxaoh5R6VdihU6ZXEWAVevysfxSHpVfaysjo71B1rsLFBTiim7fPjG9N/pn0r80E50KY1GkCSiPIZAoG+0eVnVoY3PmGfQuLmIC/AqYKJNS/L/ZtLOIiABrmaQoFu/UzTFvt6mboZ6LgINdu+7RJpA0/06eEEj3wbGET9bUDf0tbn5ywmIC/TmqxsYmU8taMuj6HCzvRAslkkpw8JTX4Kk+VVAT6AcSa74zvwgBZ/WupLxpDacJLbf7kUSDVZDjvf/ynZKeuzQQSVK5jkGPNDY0SEi4CoPm+LR0H+hUgW8jizzBTjurlp44T7G9dY5OIDGpEQQG3hTJRWF19HmM2Nl87cIGye0gbczLek9xOAv2ozx23+7uPetvISigT6Kf8TPgoidQhGmvAUsa3z1JO+ccI9K+lEEL2U/XW7Ske0MmhYJ/K9HRSQz2zFEjY//hPFdzO8okh/d11wsFlCQldm50Epk2pnu8dvMA1fpc+B30elKFqjq5xNokQFd37dBKn+OLwMTbiW6NNZ1N2rz7PYXMTaaGT8b7ifPkdPWyUoasw0OcljqLYEFUBVmcC/ZSfQdzU5ua5JrGg6jGrX5N9jh+uTBlPYWThVj02WkZnTAmKV5+doExPZxTcNmUCMpbdr6CJKSHhqZltu1mZKiWkLGwCZEvUP4/Sd+g5sRaTRV2/xtkkQhQaWfyU6emM5jma75Ddj7TwVd5Ea0PmCdmmZAdfc6DqOX/NppPKBPpzswRVETOzNNbAPcr8Vga4HTqngI99iSXCalhc+YwHdBIoKK3gZ9glVjLLZvdnpf55FI1I2wnQaCNCpYTsEEvZYD89bJanLGCyqBEFs5F6YGiM6y88jex+avcjDapX/FWZMKVdkVm+yh+bqgCU/13T3Yz+acqktKtGiR4nuCaxVNXjDV0ZUQQ0HmQWlCFk5JbPXXqrnS75lETzRz9rBaNNLf64my1f1xHOxi+fm4Lt0j3GZA2mNPtJwfaoGpG2WqdfQTJKrTRBwf6XnqRB7yKN+ySnncJTPn3+zcYvNexPyj09Cpqnqo+Gj5NSnTKBmUXPaT237R/Flp4LpuQe9zwkWFXlkD1933KchMk0X+WPfcaEkiyn/6MdaxY57TGT0Y/OL7vjv+5H367Zl2jR3G8/fJ6gXrwocKMMFztsy52f/8Hcc9qhiXb3D16YsUPnKmcu/mz+1FkaaC6i7O4wAr9z4+/vNRPPNvi4r652X88CU6rn4OBYXEpQmCBP/XrRBnCt/rupOfrVDfO7/UdW1cjwzvf1HOp6aP2uwjc2DMemvEZ98TX/17OjaclMUeCpsLc+p4w48DT7yz/3NHN9mCC/h/9WXcO1W3cumOSQ2fK1xckMi69ls/FTKpqgUm7Dul25jet35Xvr79Xfj8upGgXp5t/5IPOLeRPkV7PimNxLTPBU90ldT7rWbt6+sFr92sa1pvuirjHTQC8mGeErPYP1mee2bjKbo+Z+rt/r/+217uIWfV/a/Y4k8Zo2c/JvDY/H5WemOuCVv9+a6Pr69oXq5Rmzfmt2Hdf4ud79vX4txuyep/t3+d2JkXbnrUmnzY6C48biWZ93u6YNaV9lvZqdf/nmY/2Y5fmROcHr42Rsfd00++sTu+J4jcWNCbqFEcDLqlUD/d9/4RrHKNvTSUAYbkQd6BdfQRmj/iC5829/JotnkdJrBy50uvDSYnD22Km2s5gJ9Lul4I9KdET67Kp/98pTV8drV6aPK2DgqtmS7mmqa5zrf3gk6oBC+dSnPy6f8deLxJW4zHvmT0z+cK3NE5fPEwWGqpfq1+7Fq+MKdoWxINEmioKbumajrsOd9aBMLIL8jftk/RoLq7G97v8K+KuZXtQbGDr5Vz452XJ2YDubAUkLzngLqKzCbF5OfWnub2Hd45bSz1LP6dzO+j1vR08o/aHaVv++zf1pYiSLSWgE+pMvrEStZsy/O/FqWM+kMBHodyuMGEEzmpnf4y4C/R1a7cHk48GYVgT64ycOgX7f9yoeJvcouGRqwHao08+UQL87JnjwzJ6jUQVqTUmnEINWrVAQNRjqH40y6N9uYCtOfHw/m7HWZ+lk0WsDr9VPpo66zvw0AbD6Pbmwb/eRqK7XrJ68jDrIr0BCdXLqqOv75MLpHNVcjvCZ4OKe2NgMuPv7xmGdfkjKXM9nwO4B9Xtc5fNLY+qxFEV2u9mIeqL+94/wmsziuoBAf/KZJJ6RZ0/boVNx/VkS6HfH1+Zzp8mCWXO3Rn8GJ+qIL90k7UvgPiZzSGU8PMkPPJLooFuY9BC3L9tXXyRWY5jlgUWTNM+LZ3Mkvr4o0FFfBXSiygLSqQGV6pp7++Quk40UwXNI2eXKMrdDdEDZn/blA3Sthxko0zWs4I+OEusa9hEAU/asgk3meq3/u3VvtX/kTaDyXqVs1a6OMsivoLfK3imI4OM+qXuirmdzXdfv0ZFcY47uifr+aD6pz1EBqcQE+XUKKYIgf+Mep1Ouek5GVcJG/97GNan/Hp/rgQbNk0KZDwMe+fzOUqc/WzQvMkliHsyfOMO9twUm0G9EMIFLA2WB2JcAPKh4zBJQBouy2uwws0zJiBBKRSgTjJp68eMrE2OxRuBAgUoFWuJ0XSj4o2CaMpZ9B/wJ9odDWe7L3buV1RbatV6fNzeuYQUKo7qG9e9W4Et9ZexbXugzLgz1Z6aPTVRBft2DdC/ytYm0lK5r3aMXAv6ecU+8ywT5HZUaW4me07r2Gvc4+3bkdE0u3uj0HfAn2I8k8jWfdX36A/FSvx+O+UgS0/wjqk3mpFoI9Fdm+ODaoYZX9iVCYprVASswGeEeNyZ1dN2+zKzCQDgLmvJk8muQp00UQX5N1uaPvT8c9yxKZXwq4K8Mf5+BBAJb4WjU524wgVr1nwiBguomuB6Ta1iBL2XaKujl8/kY7N39k6xshmsx6zXIX/85qneH7kFxOHm9EPB/++Q3o9gALe73kzEYR96D/Is2MeN+6r8R8Nd3xee9j2A/EsdjkFRJFfYlUsxXzyiV7IljOai4Wwj0126QmY544JQEVmMWmx7Le6gWaNbKEyyVD2Exo8CAq6aqaI/vIL+uAQWJ4pbBvxaT4a+NCY8Z0wT7O5fbfv/x8eClveOdZh01MlwVVI/jNWyCXr/74JDXgNf+x1MfgFWQ2WcDZFOHdvz94Tg26DZlzt754JDv7P7C4M43shhYNTX5PQb5q1NXfxOnTcxm6bui/27999u3nCPYjySpfnXDX/meXgL9aWdOyPpYp9Tns3N//HjEjtCCe6V7viYAEzqOl7SFUxJYS+W0x13d7mCzmh7aUeaY3foQmj2qeaB9iRgwEzRPNRXFZPG/88GhpG72NDKmTQNST9n9Jti/jxNF7Vpcp1+fY6fHyRVA0oZP3DNcdbTZZ7BfAfA0Z+/pGaggsx06Z06LHDs1HPd7pTZsdT/0uqlUf2ZlKVNUQWRvNfnrP0edXpt7d2IkSRvxi+m/W//9Pk82mWB/htcISA6f8ZX81k0E+lPM1OU/OOilZI/msyQKtmch0F+9PEO5lJDV5uYTOVGKWs3jjjOSSTd8n0fHg6GdmalDvFQ+hBrMCoxG1WQVD1KpDVPCxEfjXWVijL+/Ny1HLk05H2X3e7r/qDRKkjIGtaGz0i8FMH3et7VBqaCggjD6HO3bbdF/f5ICYCbY/6cJb8Gn/BPprNWve6WXjDVLAUptKNph7Ol+qJMHOoFg33Kr/swywYUMyPf1HvJ14q5xgiQt87TGySZf16XuEVnagEIyeU1S4PuQWj77FZkeLCROt+1e6R7KpSAGFBBMaiYJ/Kqe+8LbYk8PsyxO4hXk6DQLVqoJOwKeZmaC9tKTHZcwaYYJHugofcomaSa7X6Urzl16y77llII9Sbn/aENnpV+mhnz9c5v95Z97FDj3kXFZGnn2dPHF4WN22BYtNPTfb4eJoUW9qVvtgU6fpLFWf/CcnyZzjWzqpJVLESVezL3zobegquZjaT/ppPt96VvDXoLueo6Zn1/KMibNZmf97+Vlc7l+j1DyRNbLfCL+fJ1ILfQQ6E8j30H+JM6J4uReoJ8jEW2J+xHupKFsD5qlm7+vCYukNWNxNUEI2fxSoWxPbBQ9NZRU0McED1K8cVs+OXnYVyA1TUEEXRMKnPvMuGyLTqP89sPnk7zQUN1qX6cowmraHheqjR7GRveadJ3VvwtJzqbWd9pnsF8ndNKafKH7vK+SCAry6zmW1ue01015BftffoqYAGLNW5yl/n1g4ytdzGlwgvyJcq9Gf53PI9XAcmpsnKAFPjPFTcZixiYthUc7D9xogZXmYG+SKHDlo6HkQoZgBn7uCqRqQmqH7tQXTaaZbIqYjEs12PKQ2d8yG3xNQzJH+b3Jwz4+4zCatseFFrTBXj9Z4yqxlIZTTybY7/H7XNjvr8eMT4Vn9hz1EUhpBPntMNXMpryHYL9+bmrcbYdA/Hh81uSo058aKoHZPfLsBEH+ZLkv0E/z2JDNEtxqVY1rEC2onPP7ICg89kgmFkVi6oKHkFFW/ZyHdRwo+9FHUz9ldKY5Q3A5mpD6CPYXtvc8l7aSFTpNWv4kfid+5uvXcFpKTvn6jBs9Eeww0Yr7Hz/qI6Na9400nQw2ZXx+98FCE2yXdD9MUv+SZpjmuwM7XrdDZ7IU5G/wFexX426a8yKufPaPzG1Yl7pyflljSvW8ODxuSmB6mhMR5A/PfYH+Kk1QQ1WdJmjdqrTVck6TOD6wTQDDw8S9IZ+hprz5gc43NRT0pbxZ9DRRC+oTNTt0plGuxw4zRRNTNZu1Q2dMyYq+3lR9xnEr7WUWGilrHm4+Yw+Z1mnYDNf3y9fJpzQuaDWP91XSrJCijU/T+PkZ99ngWQzyN+jvXZ26+hs7dEbNeSlbgjjymVCZ25i+vj1ZYdaN9edr9/cOXvAxHzKnaBNeKjOO7gv01whMI0r1Lzm9IuIrrg9snxnjJmMxZUG25SgrU9lydti28uRFjjDHQLDv0SO6du3QCfXLyEq5npWo2ayPjcfg4GCqggi6ZuJSOlKbNWlcaOgz9pHVn+t/OPGZrD6Cx9oUrfz1bGoTB1TSzEdAVc+1tGT1+2j83DhxZ4eZNH9i8rA+Bzt0o/5zVD8kOwJiw+sc/SEC/UljyhbaAL8Si3xk8ZsksZSUyoybJRn9BPpb4bMRaBZUZrj+0Do9GHx+F4PB9Gf1h9J4eLZ8vb7QT2RWbL43PU3+tDGlo+R26Eb9Z11+d2Iky0H+BgXvXAcRFNzS5o0dpkLtRvSb/Nps0GaNHaaOj6x+XZtaKNph4ihoHMYm91rmT50bTfv9UgFV19ebpCGr30fj58ZmvB1mlr53PnpJKAuWEj6Im9pNf3Ot3CYC/UmgOZvmPsWXnz7e/dqBv/kK8IsSAvRcIgbtxv01+utoyNs8b53LM4JGvGhX5aPz3hZ6mrwnOZCxFnNcL4TFSeXzS2NJDWTUuoupyJY2P8uDg86zyub/enaUSdpdvoII2rxJ1emiryMO9Guz6o+nUx2U0bWp+7IdOpPv60nsdekjaKxTP1nIXNP1pl4XduhM0rP6TQalh8bPbMbfY3pJ/GnC+f2eEj6IG5+VE/KlAtd+DJkEMAX29+852v3q/gkF94sHh37hI8lhQX3OrTKZczyXnMrZ3xfoh+48+y8lTPbXOys3ndIXqfTdp/5ih1jD/LsTr6atLm6a6CiX2eXtwJ2f/+GBe04YNJHWMTNfO9Dl0+ffLHvcXPDJPPzrD3w7bNvs2ye/6WJCue5H367Zl86sdW9PijC+s2vJcr3f1SiTzzSvckgnB2aPnUrF6RMf1+pqVBs0C8FXlWUrjTx72g6dSOo9wcucvb64nf31iV1ZWtgqS9B1ACHJ90Ifn496Jqickh3C8hHzSMMcycs1muJ1Vdz4WEc1uFr3t8PH31snp6oxKv+YKxW3dNXnfXpd6Kn/7ilOshqtscvvTR6mXLd7D3z5fCxO02KtYJAJPv7ghRk7xBpmf/nnHnb14ivOgX4JDgyNBQM7XrdDp8wR6LdPpjKrX7v7ud5NT9phW1wGygn0N0dZgsrSsEMn9D2YP/b+MPft5fm4J6UlgBNloD9rm1Vh3ONXk9SgK8EsN3wlPc2Nv783aSfLfHw2aUlccMX1/VCSvpHMvTFdfFzzDVkL9GMVOjl7+vwRNp39eaB0D40QwkPwo3laGPJ5oROV+sPDvnTOHBVPYe1NLTrDmPxVz31BE7KIFfc/7nwiVT5x5jD37ZWZZpuOS/gEe3cfoTRAB+o/nzQ3RV1OZepLpycnfQUQwmRq1DoOZInpk5AxWlcq2GyHzoTSW8gz56X1FFh5jxN3q1G/DPvSmTT0kUB6VOcqzNvhlRJqdJqRIL9fDwT6tWh33UgOWKp6+RobTOiIjoD5WEw25IeSt6hcS/7RzuvcKsu7EqNji1mkDRv1krBDJ9RAicSA1Wk+5bxGdXewuZDCe5Ev6i+Rtc0qH03SVSLIvkyEwMN3SAvdrG6M+uijFEZvIZ9UJlFJI3bohLInKY+wOrMRdebiz+zQCW0iJrmPBNAurUfsS2SQ4jI60aRTsySG+fdAoF8IujaH5rHhIWCEMPjMJNfEPU1NeU3j1hDKjMSpNmFWOc8emy1fnz/1KcHlJqjvjOsNyOCJ/tE0Nwh3Jaubkqa8ieOTJl2qC5sguf6HnQeJqx4aIceV5vj6vtmhG9r0TEiwX/Ot4jN7nGY26vMme7I55Y8+P+L6nkhWP4CsMKVd3514VWXjiPFFZ4VAPz8Q+MU1hzCYoI3rAMYiPrIAfSk89kgo2UaVcwT6o6TsGW1C2aET5U+mjpIl2LzKKcelYRTg2ksQoVU+sozjqjLjtpZ5vq8nMVl8On3gOrNai96sz3OrkxedB51zO5MR6DensBw3RVRpPfsSa1CmqeY1duiEKflJVj9ioHaD+TvcUtIfGfzRI9CPyFGfH2FyPVlfrBBCqZu4yA/t7DgYaUoTEACOlI9s/izWme6EMqj13bBDJ3Qah1r9zctqNn8DJ1LvCWuTezU1x30RkkCnm+xLZ5JSvkensOxLJ3SKjLV8a9QI1vWpE7L6EQtfs06DW8He3T9Ro3k1QC69ODweDHLyOArLBvoVdKVOfzh81gxPKkpFIUxeM8qVSZuCDB1T0z2EjMYslyaIA2WmesnmZ2O2ZT6ahVOrv3lZzuaXmsr3OJTvTU6Nfh9le3wEueNOSQDO15b1OVnca0KbOaPjbP6s39/a5fpzI6sfQNaoZ1yw//Gfdr924G/dr+6fIOjvz7KBfiH4Cl/IOkGYtJhUo1A7dC4/4D4b0LWwmvDyXY5W3nGWINn87fNxXzK1+snqX5uu44z3EnF98qrWnYwa/Vpsui7bIzwb76p4ONkQ9zr9rrO6yeZvn2lU7rj8ZxrWDECzklTGD+7lejc9+UDQn3WLMysG+sk+acIsWY1h4FpD2Mpn3NeCbVAGtTKp7TBxFOgIowkvGWTRCuvnuJrK59Rc7ITz+5KyWRNSuiJKuo7ty8wyDXnhJQjByd57qpdnnAeg831bYhtYCuv05Gqq577gZGWbNL9xXf4z6WsGAAjDQtD/By/MBAeGxuJ+Gi+JVsnonz7uelc76arTLJQ65TPzGtmh+5frWpuLOc+kdqgwEMIx4vqzwmRCITI+shjLZPN3RPcl16UrghB6baQd1zEa8ls3OQ+40Q/hHh+Z5goe2JexE8bpydVkvfdIGHyU/0zymgEAwqZENdX0L7124ALlzcKzYqBfqleYnMItsvnhSnXSX1a/GsAl9ehZPoQHarn+PSbTO1phNFNejbJSabTcubLj+5KCXGQLrsw0/+c6Nsg0r/PwXXHdDyFpfFx3ccwM1BzR9am7KkH+jnkps8fJOwB4gE68FQ8O/YKAfzhWDfQThO1c7QYLytX4OMaLbKp89sWYt1NJCS2ZoSzwMI6R+2g0ipUpsEs5gGTwcfKl8Bg1gFdSOXeZ6xgLVEbDvnSGjaUlPGx8xLEZtI/7so9s9CxwfiqivmYgiAUAyyPgH47VM/oJ9Hfuayb4KyGzDi6ZWpse72FJLJkRxsOTTO/oOQ8gUJopNLovuc4WzPU/TLbgCkhgQYP6mtiXTtEP4X61uXn3p//iGOgf6HP6nGZNFR7znHCcKBT3ptEAELXFAX9q+Ldu1UC/jwUpsovMOrhWddxUazFTMiNBDyEFOfL9216xw7aR6R0914FdlfGjNFN4XAebNTGmfM+DCIRhsdxG94F+n72CksLHSd7cJj+bOM3SfMt17wDWVOFynSik+XdSS34CgE9a15ga/i8Oj3PfbF7O/r4iZXxqJ8UOscjsL//cs1bwI9i3+0iwd/dP7BCLzL598pssupMjjGv5zs//sOY9J2zFl58+7uN4vpTPXXqrfHIyEUfMivv3HC0M7nzDDtuiIMbc2ye9LqjX/ejbNfvSGZ1SmH/ng0Rs2iigWxp59rQdOjF/YvKHNPgLjyap3T94YcYOnaicufiz+VNnE3PKyMdcKWmfiWsun41JuIf6WN8k6VniixIitGC3Qzdmy9fv/NufYxMMCAb7R4P9j//UDp1gTRUuZdwXXxw+ZodOJGVu5WMdVT59/s3yR5QB9cFnbCpO17iP9WNSrmOTDFQqmmek1iQ5mxyUqz+f86XCljg3tdfzff7k5GFO6K5t1Yx+4bj+yshwbB+ZdfDFZ8a5Gq0lZae58GjnZXto/BY9H3V/mQeES3MH1w0pKd/zIBYFWMxHRj8eVL087b43V3ew2b6KhXxfj9PNHtZU4fNRvie3nVIUSLfarTvcl2JIJQX1LNYv3eu0OaFfSkyYPXZqWImZc7/98PnyqU9/rCTGWJ1OrD/ftQkbHBgaI7t/dWsG+infAxc4YgpfTCaB48n6YklohGlq84ewEKbxW/TyfVucLhRNDwY2tUNXu+A26Kxjrr5qkCeFlwAjsBj1+SMTp/JlYZRJXE318jXubQ6obKF96URAnX5E4SHmhlib5szlM1NHValAp/fnxt/fq8C/NpbtPxIpJVeWXn7qOKVKV7ZmoF/Igmqfj1qUScQ1BZ/KHmv15xPQlDc/0PlmhDaAo8ggc50JnSTmuKXj45U1gqNOuA4giOss0iSJy8IE8ZGzx9Zd8tJ4Fsvz8PNtho/eTWxiuuF8Dd8dbCZIBd/i1sMEyaBTAAr8K+NfQX+Vw/SZSLkcrYFL33maYP8Kmgr0c2wfYeKIKXzzmXluGmHGuCmvsnzDqLVZPnPR2+YJlucngMBmtQuaMFMWwB8yXvEAFobwwMeGK4F+N7xsyPOcBpAwWsOo59Xsr0/sUl+CSAP+3cFm9aoz1Qpwn6YC/ZTvWUbEO1hJRtke+KaNJZ/3sGAwvln9hb27O24SpFp9LCyjR6ZgslVm3Jb1yO8go7+h+tUNSqgA8E7NDe1LJ0zyFOX1nPCxIc/JO6RZ7SaJnWmmZ49q+8ch4F88OPQLgv33ayrQL5RauZ/rBXqaVT7z1xwVaPCZga56rHGsj61SL2HUBK1Oks0fC44zUil34pbrskjU6b+HhnAAohDGCcrVcFrJLecb8mT0w7N8qeCtrBkVHLJhIeA//v5wlMnhxWf2HKWMzz3NB/o9N7REOpm63mSeIALKTPbZNb4wEL9d5byC/J024a0/B9isiwfXAYTK32+xoe2Qj7JITHjv4mQKAN983H/JmHXLeZ+i+pycDXn45Lq3F7JLGztz706MzL878WokcWOV8fnO08e5p97VdKBfymT1t4wJ2P3MhhEQEZ+Z6PkYHh8LQmgUrOcAm3XR8xLAnebkmks+5gc5Av3A8lSWA3Ao1+v+/lvlOe1UzcN9gg15pBIJwpmlSjDK7o/kZLiC/S89Scy6rqVAf/WTKco1tIgjS4soE5jNosRyXWfUB5+Z6CqbEadacVpIhJHFwXMgHgggJJ+P+UHew3USd5UrM+/Zl8CC2ty88w3rXKnorUQC4ie/dZP75zSnlZzy8ZxmQx6++Mx0psx1tpns/nc+PBRFKR/FO4r792Q+XtFaoP+rmxPU7EW7Kp+TzY9omRpy5y69ZYfO5QceiU+g/4n+jrP5FTAzzckQudxG95N1TqS55zwITQABiA7fv8jU4tCA2/XPn4xZ53zMedmQhy8+1g5Ag+IuKuXjM/bSUBjc+UYhhL6ESdZSoF/KNGG8i2BXy8qTZAIjej4z0lVDPQ514kJrwnuO2vxx4eOEDSfS3MvNus0q1ski+xLAYrOUoIuCrzIlcSgxmNuwzun8j4xZP1z396p1c/IHfmg9aF8657y/BRKjfHLycBTB/uKBoTGf13zctBzor6r0ChkEXo78pomyFgkaIQ58n0wKhjrPpO9U4bFHDofThJdTOXGRLxWcTlw4veeHj/JIWa//y2ITy/Hx3XMd6E0kD+WMXAdmm+V6o7V2g3WVD7Vbd5x+zkoKsi8BpygThago2O+9jE93sDnY9+gRO8qclgP9pvQFddbRIjKBESc+TyYVHo2+Tn8+jCa81OaPlTD6LaymOldhM9sHH1nF1AkHHuQhYYcTNQ/ysfnhOjDbDC8brF8T6PeBDRWkhc++MdXLMyRZ4D7zJyYP+04kUwmfrCY8tRzol8rp85ndGWlH1hvBKbOGTGDEibkefZ1M6g42R9mUN9/XeyiMYEPlHN/hLGFh6wdZxUA0fPWbiUP5vjjxUiM6DuVVfQTUKD/lh4cNFc3V7UvAHZ8BT6pfYAlTs/+PH4/4rg5TyGhj3rYC/SrBkvXgNZpXJciPGPLZHDoIIaO+XfkQThToqB2lt+LDy4KQTMHUoPkasDwfmWV8/+7no79MNQaNeH1ssPrYKAaQHj4TP3xtpiNZFE+YPznpNQGysL3nuSxuprYV6Jdq1hurkkXRHNX1pgkvYshnc2iVWYni2Jhpwjuw43U7bFv5DE3YARdqN9lQAaJSu+m+xEu+r4dM3UUKPe7nQrUYBMDZ4EkPHyVIOHkHH3yVk6PPF1ZTmbo67rtef2Hf7sxVpGk70G9+QDFpdhQFsiiao34OOqZjh0BsaEfZ50Mm/4T/pryFEBoB6z5fpZll5hCA9sPHSZl8bzZrUwJr8RLAoyTHAlPGqDvYbIduzJavk0mKpGFjCK75zGj2sYmOZFO9fp8lfLKY1d92oF8qH1GrH6ujnwPizGfviKB/24gy7O3Qi3wIvQGqHhsXozk+ArdxaGaIcNS6acYLLKd6xf0mto8M9qTwcbrBx880LmoxKFEEIBm8lu0hIRZrUCJw2XOcMIxyxknSUaC/OnV13HczhSTKzWazGQl1vRF3Xk8mdQeb8/3bRuzIuUL939XxEU2V3vrsC3psxE233w0jAEgjk/nteh2jZ38EpfviSPMS+9IZH6c0muFlQ54T0wCalN+6ydtzKC73YcRb+czUUZ8VYlTO2HfSZZQ6CvSbnZhPqL++lqzualLXG0ngM2PdZ324QgjZ/JTeAgCkmZ5z9qUzhcceyVQW2Ury290fm1cCh30ZKU5SpQflK5EKHjecOW2EZvmuEOMz6TJqHQX6xTRaJasfS1SuzLzHxAhJ4DNjXRn2PurDqQ5u/UH2ih22rcpGLuAecyggMjUPpV5y/Q9nZmG5EpN84Lg+vxpAcpIYifQQNfrhlmqU25dOKUObJDE0y5RR9rgOCoZ2eu+ZGJWOA/1ZzeqnUeHq6N+ApDD3sHOX3rJD53zUhysMdP7v0IKZhnaAe5UZvmdAVHyUITWb/Bkv3+OjbE/l3GVKDSKRcpsI9MMdn8+f6iXK9qA1PmPJud5NT2alfE/HgX7JYlY/GSMrI5sfSeMzc91HfbgwmvCWacILAEg5s9nvodxL/on+zGSRLRXWKcO1xKVsDwDEiY+yaQtoxIsWVc5d8rpJn5XyPaEE+n1NkpEMZPMjaZS5rgx2O3TOZb1eHY8Ppwmv34cuAABRqH7u/nkX1BeWWWoCt1hhr/v+RNWpq78hCQsAHpTv6/EW6K96KIeHdNGz22ccJudz4ytCoQT6pXL6/BHqzC6vlqHyF2TzI6l8ZrDnHdaHyw90volQ8RD0AHBXvlSgaSMQIc1bVVfYDt3oDjYXhrKX1a9sfp1ktENnymc4hYjkys3OU9McznjL6J8tX6fsK9rhs/Refoe/ja8ohRbo105MFmv1NyNLDUnI5kdS+WwGo4x7F/VqtaAOo9lSWeXYAHihepH2JYCI+Ji/Bk/0j2Ytq7+4/3Hn8wlt0pBkhCSrUu4Ejpj6/I4boTdQ4QPt8nkSRHEYxUzsMLVCC/RLFmv14x6y+ZF0PjPZVWLHvgxNEEK2IMffAQBZo81+H1n9wb5HM5MQk+/rPeSlNj9JRnAoCwEhpJfPeuQ1yvagTeYkiMc4ss8G1VEJNdBvavVnIKtfAW37Eosw0UbS+cxk1+I37MVD4dHONw+ozQ8AyCIf89jC4M43srDA1MmF4OCg8/mENmdiOW+hfEVq5DYS6EdyFfof9hbor5LRjw5UZvw9N3ME+ltHVn82kc2PNFAmu8+NvMJAeFn95oRAh0czzYKZSVrsVS/POL/XZrVpJIDs8pLVX1f0EACPmk4u6Hi8HTpTPnEm9NORYajNua+5rhMT9iUAPEAJZb7KQ6qZapbKVSN8NY+xxHwvgf6WZSWrvyUeJntRK783GcuJNtCqqs+s/hDL9wQhNPitemxIjHjLQqZDHPjYUPE5cQaSzkfgWIGX4v49qX3eqgeRTi7YoTMkGSE1ZgmQInwu+sGtxGczVaRTzeNJuFp3MfUJbaEH+qX80fkjPjJikiLt3cfL5y69RU1vpIUy2n3dv0xT3hCC/SoDEEbGRuWzL5ikAR7ltm5iQwWIEQWO1avGDp1RINxFr56oaT5SPDDkZS4R6yQjArepkduwznnpHprxwoXCQJ+3eyQnwtEpnydCCtt7nrMvU8tJoF+o154Rs+XrldP8rJEuVY/1XvMDj3Qe6H+i8ya8ZsOOI5eJUPvqBgtCAHBk/sTkYR9lSIvP7Dmapnr9OqFkyhJ1WEawGeXT59+Mc5KRj8CtjwA06p8zNfqRQN7L9pD0iQ6xvg2Xu0D/Z5fG0tq0tnaDG1mDyjRxY0famF4jnmhHuZOmvKbhXQhHM6uUXEsMHxsyOWr/euElU9BDTwcgTXSPnT/pIVu8O9hc+s7Tx9MQ7NdcpPTyU8d9BJYUVNLpcTvMLALQ6UGAC2ELsw/cWijbgzD4TjjsJP6SBM4C/ZLarP6vCWyLadzpMSAK+KIHjTLc7dC5YKj9jPy8gvwdZs9p0Zz2EmNpQ3m8dCBQA8STyhB4mQekINjvM8gv8zFtwLuYj94BuVL6awzHgY/EB07UImxh9oFbC6VfkURpX4M5DfRrkuMzWAa/tJHDxARpVf3cX/mewqPtT8YK+3Z3vKFapglv4tRu3XG64ayTJvYlHPIRqKFZJdCeyl/Pjmoj3A7dscH+JNbs9x3kL5/69MckJlgpKvuUZV7uMciUfF/vIfWBs0OnKP2KMHE/DI/TQL+Y+u0e6lzGXdouWpVlUnkmO0QGFHqytaBQcMzb97a+yG9ngR/KRE59NvguJw+BjnRwHahh/gW0TcELkz3u43tUnwcUDw79Ighh894X03j31WcnfAX51SS5fCY5J4ldl7ClRr8frhMfqnMVgqQIVTC4s+Pebc3ymRiH9ON+GB7ngX7Vb1cddzvMrLRdtJVTZ709QBATHZaHSSKfme7BUOuTsnwHJwEaKkzQEql2030JOW0k2ZdwxPUGamWGDSGgE8oe91Kv3wr27v5J8eWnjytT3r4VS0pOMCWHPGWNKvHCNElOENc93Xx99lnm43tY49QdQqS64/n+ba/YoVMqI8qpUSCenAf6RQ2TqCecHpUzF3/GsVlkQXXq6rivjFhlxLVSo1eLj2Bgx+t22LZywvps5Gbn2emvq067vweTLeiWCSC43kDlWQ10TPX6509M/tAOnVMGcff3Dl4ohNBoP2wKIpVeHB7X6QNvCSD1edjcHz8eSVx5CA893dLQyDnOcls3Of98fSRuIDsKe/2dCqtS+hWILS+BfiknoHFSs6qXZ7K7c1mfbJc/+jydTZaBJbSo9Jnxnn+i+aa8hcce6Tyb/8rMezp1ZYeJ4CPAnQS1r244/xzyHha4WeYjgFD1cJ0AWaASd0p0sUP3VMrnxeFjJrt/Q/QN40xywb7dR7pHnp3wlS1qKMj/uw8OJW2uIj7Wi7leAv0u5T18vjXmtQiJuU/72iCu35tpwouwkWQWHm+BfhrzpoOOL9NwBVniM+Ndk7Nmjwnn2yj1s1Q1Ydn8uEf3Yecn5cgUdIoAApAs86fOjvpey5js/tcO/C04MDQWRcB/IcD/vYMXVFbIaxlHG+RP6iliNuRTwMNzmlPyCEthqH/U1z1apbmJCSFslKQLj7dAv1T+enZUkzY7zJQ0lJswDXhVygTIEGWRuW6otqA+OWsmUz+MJrwKEvN9TrbqJbfZggow2ZdwwXUAoT7fIoAAhKt8cvJwFIlLKtXXCPj76J+iTYXi/j1HIwnwS8KD/KIgmHoL2KEbbMg7VfjGBqefr7f1BVLPbMq2cDK8U5Vz9HgD4sxroF8TnnkF+zMo8eUm6hPu8nvJaoIFhMVn5nszmfrBYAjZ/J8xQUs8D88V6v+6k9/R4zRYRyNewA0T7D/16Y/t0CsF/EvffeovpdcOXFAgPsx7tP63gsH+0e5X909oU6EwuPMN7wF+SUGQv6Hy91tO/w5syLujwKn6Z9mhEzTiRViCfY8e8ZbNf+7SW0ksp4Z4877mnEt33z+vgX4xNS7ZvU6c8unzR7ihI6uU+e6robgy9VfL1lOWXRj1cSuU7Um86hX3C8T8dveZo1lkvseOj6cSQADcKZ+ZOuqzQe9Sun8oEF8aefb0uu+/cE0NclVix5z4a2KxbO5B9X9W/z/6/9XGgf63gv2P/9R1cHNVKQryS83Hc9rDCY8s8vG5ZrrvH0Kj+7nZmPWkcvo8/RoRvlKxqfLFYUn7qWfvgX4xmeH1iZwdJk7WuuPr2KkWNHYIZJLPDPj8oztWPD1TGFj5z5plMjGoq5h4mqC43oDK97nNOs8qH59rldJcgFNKXpr77YfPR76m6Q42KwFAJXZMtr+C/z/6ds38+v4L19TQV7+Uqd94Xxn7+mf1/6P/3zjUxdV6Y3b8/eE0Lb59BHJ5TrvhJ9DPhjw6V9z/uLc4jZrSk/wJF3iWhSuSQL9uDsoQt8PEydrNbf7EGUr2IPN8ZsDraP5KTXnzj3Ue6K9+TtmetHBdp5+Mfjdyrj/XWerzAz4oUKfgtPNa7O1S75/tPc/pV6SZ+muoTl39zdw7Hx5K2xpLfx/X10aOjH4ncv0Pj9iXTlDhAGEwp7hCOOndlPrcsvzR52Tzw4m8h+bnDVm4/0YS6BdliPOAi7/y6fNvEiwA6ou1ufI1nw34CkMPNlQq9G8b6TTrTgtOMojSo3bRcda2MkUJIoQuqH+X7UsnymTzA94omDt77NSwMh3tW2iB+h3MvTsxktaThtXL15zOucwmzgrJIWiPl/J6F3hOo3PBwUFvyVvlT6aOciIcznis0Z+bTXd9foks0C9JL+HTiiSW+9FGTPkjarABDT4z4ZfL3M8vE/xvVXnyImW4UsTHpo02mOxLhMBsnDhumOZ8AwjAA9hEb41Kz82Nv7837eVBK5994XzumOc5HSof8x71/7IvgbaYviyeyq7pfk1cCK742FxdrDqd/kTmSAP9SS/h04rarTvJCvTraJY2YgAs0CLeZ1PexQsN02hpe89zdtgelfNgYZEqyqxRyQM7dML18fWscR5A0PecgCPglZ7RxQNDlMVrkk4/zB9LVz3+lfjop8OGfLgKA31O18A6XZu1UsAIl5quq8eKHTpXOfVpx8lmwEp81+evZWDuEWmgX5TF4TpIgdZpA4YJCPCgisdshsKirP4ghGz+yueXxjhymT6us8K06UT5nvAUVmm2HQaV7eF7DvhVeunJcdcnddJAAU41MJ4/dXY0S/ep2tSXbp/T/dteoXxPOLRp57qfReXcZTYF0ZGix5I9itVxAgUu+d6szkKSQeSBfpk/kZwSPrFtthUi3czTfowWaJfJiPd0vzILt/qCQ6/DCA6WPTYUhj+Vzy6Nub4m846D01lhJrKU7QFSpbh/z9E4N7qNhfozSrX41csgiyeOKN+THIUB9/MdgqbohEr2eHvm1O/d82TzwyFtUntrKC31azoLCc2xCPQro2P+ZDLKxFTnKunOPtHNXBsvAJal+5XPRpdacJjM/g6Dg+q5wSmd9HJ9Tap5LNmCnVt8SscFlYcggAD4o9NOhcGdb9ghllE+ff7N2V+f2JXlJCJlD7pOFguGdhKMC8FyPbLCpIQ65uNol++SPVR5gGu+N6mrV7KRbBCLQL9oYap6jXaIiMz9aWKEI//A6ioee4sET/SP5gce6XjRUSWbP9Wqnzj++XYHm8kW7IxpNOU4Y6Wq0x0AvNDmZ+lbw2ysLUcZ/OcuvTX79slvqoEjawudqrzo9DmtDF/K7HVGp+5cN4Q0pzCBNuiZE7zo75mjJDGqPMC1MOIcrchKQlRsAv1i6jWmtDROEo6paqOFBn7A2pTZoMmPHbrVHWwudNiElyzf9FO2oOtrsrBvdyaa57sSRp+NtVTOEUAAfAle2ktd/qUU4G9k8J+cPEwm6D0+Sj9SZq8zecfPaebj6ISeOa43ohboXv4eVR7glpKgOo1ztKp6eYaM/ijMnziTmHr9aaINFm202CGANVTPua+3GhayfLPB9TWpxYXr0jNppSws5014z116i6Aa4IdqJIe6OK2vfRQEtKPE0Ubz/InJH975tz9vIYN/eab0o+PTd8HAjtcbvZ3QGlOGy3HAifk42qVeMD4DovN/PTvKnBKuFfb6TSJTzDMr13XsAv3KStSNxQ5jJzc7n76Ja31xMffHjynJALRAR2+TsignyzcbfFyTZPW3p6AsQceZv9XP+Z4DPiggGHaNZK195t4+uWv+3YlXvZ0Y7JAWzKbB7tsnvzn/zgeHKEmyNh/zMd+Bk7RwPr+pr7crlNFEG5Rk47MXjPpIcD+Ha6YU1cCO1+3Qi8q5y5m5rmMX6BfdWJSZZoexUp2+OWFfpoYaIbNjC7QuCZk5ZPlmS+Ujt/0jyOpvnZnIPuG2HIACg5TeA9wz3+eDg6E++/WcbgRVVNZDQXNT2/7Upz+OVUlTnTqYuvobZe7rv2/22Klh1W9mjtE8fVau17hk9bfORza/TnNw0gWtUt+I4sGhX9ihc0oYqt/jmefDOZME5Vnls/hWZNBzqPFLc037dttiGeiXio4LpbRef5yoLj+1AoH2JCFTnizfbCGrP36CfY8ecZ3N73qDB8BdxYNDY2HWSNZaR2seO1xgAsJnpo4qmN4I+ivI7rO8qcnYP3fpLf2758bf36uyPHPvTozoOUNwv32V0+7v18X9j5M53gKy+RFH+a0bh4sHhvyt4+rXabl+j2dDCq5pMzrsk5FrMcmPMbm2zXd7/56jxZefPr7uR9+u6Vfpu0/9pfGr+wcvzOi97lf3TwT1e4A2/FoN/sc20K8fgikn43FC61rcynyYeprU5Qfa5iMzqxO655Dlmz0+svpVn9oOsQpN5FwftyabH/AjGOwfzfdve8UOO1df46g32VoLz0bQX0F2E2wff3+vsurV9Fbff1Pqp831UuP/3wT06/97Kh0099sPn7/z8z/kTMb+ycnD+nertKr9f0GHfMwddZ0qK9AOsQpTFoVsfsSM5o+l7zx93GfDd5WQ414PH6LYjI46+dGcCK3PI0uvHbhQGnn2tNaHaz17cr2bntQpveKLw8e6v3fwgoL+zZ7Yy9nfY8scV6r/xewwcpoEq8mUHbZEOzauJxJNqy8IZn99YheTDjRLu4r2Zdu0cLQvU0MLKe282mGsKBCQthqLCjC7zgBQ0EOlE+wwkTSJCDPr9AF6hoy/P0xW5+p8PPeV7Zv0n4PL73Un87Y0c3ltpuEeupQJutQXZnYYCpfPaC0EcxvvXwzWbt6+wD07HrTg16LdZRBPyR7q+2CHWIaPn0PS19w+5jE8p+8XRZBfVR7SnAAaRhxjLVzHzYkivhv1vFQbysVn9hx94Dtdfz5UZm5O1JZJ2Mr3bhzuqt8LllvP6/ta/ujzI6s9V2Kb0d+gsjL60tghQjL3uw8OEeQHOqdM2rid1jHqD44qZbkyq3zijNv6mvWJSvCcx+PECaSsDeeLYx1DJXAHOGWysF4cDvV5qu+uy4143RfM/GTRL+4V8aE1mLK87dAJTt+tzUdpPWVJs+ZGs6II8pveK1R5gAeaT3ktR2VFVeLU/H1ffvq46bOx6DutOaBOUOqUpjYgtEG09JdOcWqz3pRvVDx89t7JTZ0GKL767ITuF/atB8Q+0C/6i5q6lDFQS8FxJmUQcSwLCE8c62OXp66Os7DILhPYcfzcVBBbwWw7xCK29qTb+4KyQJap7Q0gXIVn9hz1UZcf2WLWt44TRXRSarVAQJYpq9R1aT3zXU/ZyVq4o6xfc3LMY5Bf1yjNd+FL8NLecZ/XtyibX+tiO/RGz14F4xcnfSnAbwL3JycPN9snVUkami9oU2BxwF/zUm0K6llm/sElEhHoF92AdCOyw8gkPXBmmu8y4QBCZTLnF+2yxoGPZm+It/lTn466vi4VzCaI8KDSS086n8jWJ3urHtkE0DkFXlQf1Q5D0UxdfmSD89N3dTqNoqxCO0Sdr6zS+VPn2NBDU5Q4Y7J+PVJsbe6dD6nyAC90wmxx0NuXKBIyGydzFpJE6utxZfArwN/J6UoF/E3p3EZcvL7WVBmk5XryJCbQrxtQ2prz+mZqU3EsC21ggbA63Z+UQW+HkdN3nSP6MBkArjd8NME4ODjGPeIe0yipd9OTduiEvuNqkGmHABww2ViqqRqi8qlPf8ypWjT4OH2nQEPxIKX2Fiu9/JTz0ihKrosiixTJovmz5o3B/sd/at/yY7Z8XbE1gvzwwSRNOO6xtxxl0Pu+D5uN5PraeOEZo+/a7z441GwG/1q0vtcGnf5u9q2u0reGx5cm3iUm0C/mL/WniWWPJiTBck0WfNGuT/mPpxP72SFaua2byNhdQ5wy6KvnvmBBB0PBYNen4RTUJohwl4vs3wfUJ4zl9zhmDbj0wEItBAroskGHpUzZDMeJbPn+ba9Qr/8uH5vxKsmkRol2CCzLZP2+/NRx5/PGpWzgkaQw+GAa0Xo+rWLUr/MoyiSq98viZ4zi12EneGiDTn+3+zL7NWddJFGBftGOjGrM2yGaUb/IOSYMuKXJkrJs7TAyWlxQnguL6f7vJYgQQXOlONGxSR8TWVOyh8UZ4JTq8ocZDNSzmTrIWI7WZ/Mn3V8byqZUwMUOM0nlUXwEVVWSiXU3VqNrUaU9XG86PcAG+TlZBh8iC/LX6bnq+z6steDi3i/mFOeSZO9133/h2roffbu22q/SawcuaF29XEmeBv3dFle80b1k8YZ+4gL9oiCWjsPZoV9z84l7aHMzB/yIQyZ9lSA/ltD933kJnzotnrPanNdkZX1r2Hn5Lkr2AO6psVnYwcDyuxOUSMCKdKR/8TF8VxRwWalxX9qZE3ceyqNQsgeryW1Yv6v48tPHzbXouHzUAwjyw6Mog/x6noZVKqcVhUWB9pXWbJWZmxPLNeI3yZo2aVQl9zQPLX33qb+UVumzo8Sv8if3/h3BE/2jjX82kYF+Ua15HxOipZJ2Y9TpB27mgB8mk95x5vRaKucI9ONBmmi4rgMsWrhkLWOw0XDJ+YKtfm+hBB/glgnChHw6ibr8aMZ9x/Ad0vW9tJZv2vkKOOnnRz88rETZtt0jz04UImhIqiAiQX74Uty/52hUQX7dh6Mo2aPn6uLv9kpNgOff+eDQ3Nsndy2NGVVOfTqqP5v95Z97NG+0b5tT8zplaocPqExOHV3436qvRQuPPWLW4YkN9IuvCVFS6QKhhAfg1+JdVd+0+UlJD6xEZSOWyyAIm8kYzEiw31uQv041HskIBtwqvfTkeJjfZ+ryo1m6v/sotafrW8+trGT2e8sqrf/cTBkFtO6h9bvsq1TSNWhKcagZqYf54lJmA+rY+8ME+d3K92ZrA3U5pr/Ry/Xny6LyNV7V78NRlSxvBNhF6+21TnYps9++NBr/zfpd88bFSe3K7lciih3eR/985fN7Md/80E6zyZHoQL/+Uuo4nJRgf+2mvwCcLgwWFoB/UWbUVxfd5IGlzMTh3YmFWn4uaVGd9pr9CpL4CvIvV+MRQLiUgUZdfkRJgbh5H5mI9edW8cXhY2nflPcW5K8zm/Ek27Qlv6NnxTrUSWZ6N7389HFdgyrFYd/2SnEyEy+zQUS4k9++cj31LND13v29gxcWZ7X7prr8UW1o5fofXtjoDaOUcu3i/aWHVjuJV/nsXvlo3Wv0zyY60C8m2L+oCUGc1W7d8fLwN0F+D02dADxIk3wfJVKWambnGPAWRKgztQVXqSuYZOpFoCCJlyA/G/eAc9q4CzsDjbr8aIdOY5dPn3/TDp1SAFIbXHaYKko28BXkN6VymYO3TYGpNJ0w0d9FAX7V144y6Kn54+yxU8M8hzyprwmyclJqMa3zdL/V9R7FiZUG3YejqMsvyrZfvJlXvTwT+vNgpYx+MZsbi+Lh2nRKfKBfFFhTzbEkBPtd064tQX4gWuUzF70vmqqT/v+dSCYTRFhU+88l1RUsvfzU8bTUA9ZkVpsXPhr6Cc90wD1z1Jy6/IiR8kfnjyw+tu+SNrgUlEzLpryCId2v7p8Iu6H2SvRzolRu54J9/3HZetZJoe9Po0SPOS0TYYBf9Axi/uhf0q/jVinxSVn8vu63K9HmeJT34dzG+4PwYWz85nbev2lUnV59Trm4FJD+e1IR6BdNpl0H+33UNu5E42iWHQKIiG7uXu8X9fve4iNbwFqW1v5zSaUwSiPPnlYTMvtWIpkj2K8+O6HNC/uWUzzTAT+Cl/ZSlx+xoyCdngN26JSCkqbkQsKzUU3QaeTZiTBLcK3GnLhLeTC10OMnUUM/sySeLlEii7KZ9f2JskTPgvqacO63Hz7PM+gezd/tS+d0HSd9vdOMhb4TSnyKMItfzH14hca3vuT77pUfCyMGpGfxfZsn9e/1WpsHtcV/nobSPYuZkgQOH7a+Su+0oxEQ4GgWEA8+M+zLU1fH+e6HJ+osHF+0OPUV7Bc1IVOWnc8JdxiUpdU4kuprAcczHUnmKzAUBi3IQ73n1xdj1OVHWMxzwFOwX8EaZSKbknurlAiII/336lSCz6CTfi5pD/Kb68BjEE+nS5LQN0LBfW1KKNBpElkUkIs42CmVKzPvzf76xC7KSN0vt2Gd1/uZ1jtp7H9i1kOD/aPm1EocNrXqKmcu/ixu9+F2Y8b5R3cc1pxUz2BTHrZBm3d/mmh5Ez5nf08VV413dPOcf+eDtgMUCm6Y2lUhIyAA18L6Ts2Nv783K0fZ9TBUdoePiV+WPlc9ADWBskNnZn/5556s3FMVxPZ95NIcdT99/kicG9eZY9hD/aPBE/2jPhdwWXyma1Lr6qREp3O3tNKmm8us1zs//0Ps1xgK1ihIY4ehUCZXnBODwnRf9phVq89FGvcugk3h0LNIJfB8Zakbs+Xr5U+mjlYmp47G+VlkAk/7Hj0Sdn+NtWTlOe1rzr2UKTsTo4x0XWeK46iUhhoHxyHAuZRKl0Sd1RxX2gQsRJDEFbfruB3m2u/fNqIMc18nmptlavLHpGza4ntls+uOZq5LPWvmT5xpqsHw0v+GVAb6xUWwv9PFor4o3T94YcYOw6Ednt99cCgrQT5EI6xAYBoeeK3wEUDNWhDLdXCqYf7diVejaugThSiC/RLHgL+e1VEE+CWrG/fKDnK1cFbgde7tk4nKTnXNyXx0iSRsQEe1+M8a3deqc5Vr2hio3bx9oTZ9c4J1S2v0nfUe7JeYBvyVaR7Un9OFR3cc5jnthnlOeEpYWo5KoM2f+nQ0ivmhgvr53o3DXfVfhW9sGPb+vWtBK4HALHKVaNssrdPL700ejnNi02L63ue2bhpWKZpc/bOL5RxJJyf/enY0Tr1Rwgj0a00cqHyeveeaa+ePp0eafdZkJtAvYQf7wwiorfvRt2v2ZecI8sODMCd6WQu4uMgWXCpOu9mumQZrrx34mx06Fcb9PmmiCvaLPu/quS/GoryW9X3NP9E/uniS5VNWg/w+FmGqV0t28T2uTr4upuPU86fOjtph7Ph4PmN1uu931dcwpq+RNgEydu9rVWTBfktBiOrnl8aivJcqq1T3r6gyS01ywl/PjmbhWlVpGt8nJZajz7x28eq4AqWdxjx03+8qFReaTptgfnewpeuh9btym+q/NqzbFcds/ZWQxb+6qO+Zi5nr+Er9ORfxRvcD3wFbW15B/SRc/4olld+dGIlb/HPpvLqZU61LA/1aq+ieZErQWa3EIxav4/X/l+pAv4S5mAkj8BNaoJ8gPzwJe6KXtax+pxmD9fvAnX/788LDOu18Z19mMTgY1THtBcoeVM+J+qLOR+BHQWYFDnL9D49EObnNapBffHyvw5i/pYW3LM36d1m1guN6TUd+r8MDdB+snLs8Vr0yfZz1zfL0/S08s+doVJvyYspTTX1pntE+Tj6aZ/TObSNRbcI3KFCX9pr8DT42g9E+zWkqp86Ocp9cXZQJTAifrvtWMtx9Wpq01EwJ4OUC/XquLq1e0GxS5+L/PW0Cpj7QL2E9rMLYNQ0l0E+QH544mehl7Pp1OVnOUiaHmv8s3uH2QYvZ+WPvD2ct+BqnBZ4CP9XL145Xv7oxobrXnWy86ESIMlly+hWj46hZCh4s5TPYSubbXS77ISyl0gtz77beQMwH3xvHaI2ev9XJi0cVSE5KyQOf4pJtLQq+mLJM9Xl9p1nX5hmtZ3X9Gd1Vfx2b53SGkpQI8sdYfQ0dt5IlcUWQP12ScA9eHOdtpgTwSoH+B046N5E4Y5J4FpXk1L8/E4F+CeOhFYtAP0F+eOJ0opex63jd91+45iILafbtk9/MwgI4ykVHZsup1BfYpe88fTzK7LkV1e8flZm7947ajfr1//WD34GcjqXW/w7mdYyPombthNNiUQSq4l5OxiUtAoKX9o77DpyZOssnJg/H7R5KoD85dA2Vz1w82slGbxqZudEze47G8Tltsv5tU+qVntONcil6WegxJVRiOd+YPzl5OCs9mzjpFF+KQ8W9OXYcmP4dzw2N8XxPB63Dk9KD4r6M+iaSuFYK9Ov10o2qtf73dPKt+OLwMTs0JwoyE+iXToNFoQT6Own4EeSHB3pAFvc/ftRHxp+CLuWPPj+S9kmLi4lznDMlw+LzWlyVFnoZzKCJKjCYCXqe/2liJIuBK83FgqGdo1HVTNWioaxM4Yx8n7VpV7+HjkTRXLpBQb9Kff4cp8+cQH/ymHIV9euIgP89+n4HOqWToLriSZGkAFOn9Fwu1NcqXEfxowBf5fT5I5xsWp3WjIWB+vwywrkOQlRfJ5Xr132SkqHuizXX//tXy8Jfrozm4lMAa/35UotP6zZiRJkK9EsnwX498GePnTIZgu3opOGcySr948cj3OTRDi0EFjdeadBNRGUs7LCr0P/wSBTBl8axX72u3bx9oZEFJHfHyb7uNfkIu4ls0uvH3732Ni17P1VjIDWjiTzAv8TiurRrbU7VVGomJRtYZHiFK841JjulOVZ+4JGVM05iFljVz8K+fEDUzaGbpZMRjdMrS8Xt85a4fOYE+pPLBPypT71A86mo6/anTVpOf631TBbug/FEgP+e1eY5ki8VtsSh4S7CYa79BDY9XxqcXylJ3Mw/VzjFtnh+s9z6e7n5z9I4U2NDIHOBfukk2N/MMYzlLLcr0ywT5M9okz6EI8kL2jBO0sRBmHWRFXCee/ukOe6cVJ1sfCZB2hr5arOweHBwjIl0BxKYndKqNG0KJeXZk6aAtc/P3GevAriRlVOhzTJH9w8MjbWz1sRdml+XlcWfkvkbiRrJQ4D/QWzMZ4OC2OX3Jg8n+dq/7567Qlb/WhVe5sbf39sI5JdeO3Bh6UmrpTGGxd+PxYnpef2frFG2kLoX68O3bzVN2RJmV7EFCvKXXn6qrVrHBPmBdFB9WfuyY2pQZ18CXmjCoYmDAnH2LbRAk9fZ8feHs1qPH4ib6uWZ1GzEZpV6fBRffXbCnFpFlzL4FFTQsX37FlpgsviPvT+cpiQNJMTdRJA31XtNCaUE+ZElptTMbz98fv6dDw4l/dpXHw1tGJtBd7C5eHDogVOqd/7tz1vu/PwPuZV+Lc7WV2LnA3++6BkVDPaPLt4Emz91buEkWiYD/aJgv+rdtxPs18RSpwLscFWNIH87WZAKDBDkB9JBN+WFG38n6vesymdfZKK2NOJH2bZaiOj5ZN/CKvSd1xHKNExegTTJSnPNtFOmW2nk2dNa7Nq3Mk1rRtXmNRl/Ycw5M8CstxVkOpW8UhFINl17Sj5V4E/za+aJyAxtbp279JbWlHpmpWWDVc8QnQqzwy6dHHU1P9EpvmD/4z+1Q3MaaPHnmNlAv2i3pN1gv0r/rBXs7yTIrx+UCQww4QBSI4xM/PLU1XHuC4iSFiJ6PhFIWIXNzlJ2IAFFIH50H9Nc2w6RcFrsBipbA0OLfWUClk99+uN21rlZYDbiT0z+UPOZtASZEH+67nR6RAFOXXtJ6AUEhEXXv55LOn2W1tMrep6YZ69l5ichB/tNKfpFcx5VgVFfAzs0Mh3oF1OOYPz9YX049q2mKdi/0qSyo0x+1Zxsow8AgHgLIxO/+gmlPxAPjUCCFsoE/O8xGSqawCo7i005ILZUB5kgaHqY8qovP31cazD7VuapXJx5HqnsHtf6XYs34gmywgddc0rifHfiVTNv1ukRsveRFfXrX/FN1Z43G9D151La10f6Oy5OJlGwX72hwpifqA+A6Tdry8KvVOo984F+0Y3WfDhtBPs1qVwa7Ffn43aD/CazIAVd/gE8SDfgTjIIdY9aXLcNiANTCo+A/90Af6O+KgF+IPbM6aQlGVBItsL2nufMGoxg/wIz91TZvawH/G2An414+NDI3NfpV1Oapz435IQnsqJx/WtzS9e/4ptZi2HoO2+euZbK+HR/7+AFBerbmaMoi1/NeRc3WF8pyC8E+i19OKbRYBtBuEawXz8wNYTqHnl2ouUgf33yoS8CmQVAunWSkV+mCS9ibCHgr2dZVmr4NwIHNFADEkn3LW1S2iFSQGswgv0PagT8TdAlQxvz+nsulIogwA9X6vNBNRU115rqjtvMfcpCISu09tP138jc1/Wf9c0tPXO0Ll7YYO8ONitQ3/2DF2aU4a/gvZLEzZ8tYWLLfb2Hivv3HFWAX1n86ktk/7jLrD+PnRpe6ZmWs79jEe2yLN4paZZ2VHIP/YddjWMUzTITEDWhIFMXjugos7Kc7DBRdBPTTdIOU6H71f1tbQZqcWZHiacHV+m7T/3FDlPH1K/P+OReE5dgqH+08OiOw60+F+NOk9nquS/G2Jy/X7vzpzhKyrMnyc/3paL8zPVMCg4Oji1eRCHZVst0w1267vP1Z7SS1uxbqaGgq57RWQ40pemZHDcmoeWrmxPVr25MVC/PHCfRw500zXPSwmwU6/qvX/vVaf3OhtZqFLQP9j16pDC48w371gNM5Ya5ipmvrHa9mw2V99ZOLiPQvwLT4OCZPUddByfMD+qPp0eYhMIlAv3xYu4vqq3WAnP8LUVlvQj0Z0uhf9tIbue2kaD+e1KD/prUVhU0OHdpjAXd8gj0+0egPzxaiBUee+RwfmjnKAH/dFCwd+7diRE7xApM5mD9+axntcoL2LcTR4GSyrnLY+qJxdqaQH8YFKvJzc5fUzCz9lX9V33+R3KmXwT6o6O1T+3WnQsK6tdu1q998z24McH9tT1KgisM7Dicf6z+q5V5pk6QT10dV2+pZtegBPpXoTI8wYvD464m+2kL3CG+CPTHz7rvv3CtlYCnjoGmKbhIoD+7GkH//I6eQ3EPpmmBV7twdbx6Zfo4C7u1aRMzP/DIYTtMtKSc2DDHfjcuf+w3aUxmWEzum1qM6XPN9/Ucsm8tyJWKW1bLyuqE7jnVyfg3qsv3bhyuz2HunjJ8qP5Zbar/2rBuVxzv6ay3WtMI+ue29x5Kwua8NnN071DmPpvw90vTM9mF2o369fL1vWvGBPJ1752bv8acLz5UuqRra/2Zg/CZa35+Yb6he6l+V1Cf+6lbijXn6nMpzTVzfb0PzDVrmg/Plq+1uwYl0L8GTXaKB4fGQs1umC1fn/vTxAhBICC7WsmyUe8Q1f+2QyA1FExTIE0BhTgE/hVku3sUtT6pqv8iYwXAYq6SgJQ1Vzn1aeLr2WrdlNu6aVj39UL/wyMtlyl0xPSOyXit4Hbpms/rGV3/mer3SAP/9TV0ZebmhAIgcdoYBAAgTgj0NynMjGgmmwC0GDbN4tZaBNcXNbPj7w+zq44sWBwkamSJFnpM5miogYVGHUQFC0zWiupLkr0FYBXBYP9osP/xn9phaJRxXv7o81Q2CdU9PRblkDSX+vWJXWzedu6+0y4On9NLS6boGc1cGACAtRHob5K6IoeV1U9JBwCyVrCfRt3APY3gwt3X6xZer6VxDFV49gJoR3BgaCz0hqWz5evzJycPZyX5RyX7ivsHjkaV5U+9fveU/d9VKpqSTveVd1qNShNM23kuJVMAAOgYgf4mhdnMhkA/gMUaNTQbGVGNuuA0EwMAIDpNn75rkU4Vzf3x45EsZiibkxF7dx+JogQMazAAAJB2BPqbFGagP21NNQEAAIA0cRrkf+fDQ1neyFfmd/Hg4Jjv7H4lUsy/88EDTe8AAADSIm9/h0cE+QEAAIB4IsjvlsqzmM+h/nnYt7wobO95TiWE7BAAACB1CPQ3SU2A7EsAAAAAKUSQ3w99DpEE+/ftPmJfAgAApA6B/iYxKQcAAADSrfDMnvAbxs6WrxPkf5AJ9v/x4xF9PvYt55TVr+budggAAJAqBPo9U21I+xIAAABATJieXAM7XrfD0Mz9aWKEIP/yVNJUn48delHo3+b13wcAAOALgf4m1b66QekeAAAAIIVUuz3Yu/sndhia8unzb1YvTx+3QyxDn0/lzMWf2aFzhYG+w/YlAABAqhDobxJZOAAAAED6qC5/cHBwzA5Do5O85Y/OUxO+CeWPPj/iq4SPSjPpZ26HAAAAqUGg37MaGT0AAABAbAT7Hj2S37C+3w5DUzl1dtS+xBqUVFX+ZOqoHTqnExz2JQAAQGoQ6G9BbfrGx/YlAAAAgIRTwLcwuPMNOwyNStFUv7pJ6c8WVCanjnrL6t+6cdi+BAAASA0C/S2ozlUo3wMAAACkRHH/QPhZ5LPl66YUDVqirP7K55dCL6G0nBwZ/QAAIIUI9HtWvTxD6R4AAAAgYoXHdhxWvXY7DI1K0NDfqz2Vz77wEujPlwrU6AcAAKlDoL8VHL8FAAAAUqGwb7eTrPvKOT9Z6WmkckfVW7en7NAZFxs8AAAAUSPQ34La3HznmTlh/G8AAAAAaJuy+V004K1OXf1N7dbtC3aINlQvcQIaAACgHQT6PaMpFwAAABAtZ9n8n5HN37FpP+ulXCmgfA8AAEgVAv0toL4+AAAAkGz5vt5DLrL5pXp5mvVCh6q+Av1bNw3blwAAAKlAoN8jH/UmAQAAAKws/+iOw/ZlqCpXZt6jCW/nal/d4AQ0AABAGwj0t6LD+vq1W3eo1wkAAABEKOjfNmJfhqpGNn8o2CwBAABoD4H+FlBfHwAAAEiugoL83cFmOwwVZT4BAAAQJQL9HpHlAwAAAERH9fnty9DVbt7m9G5IVAbJvnSGfgoAACBtCPS3qDZ942P7EgAAAECC5Pu2uAv03yLQDwAAgOgQ6G9Rda7Sfs3IWepNAgAAAFHIlYItud5NT9phqKq3bk/ZlwhBoWfjsH0JAACAJhHob1Futv2GvNVpavwDAAAAUcht3eQseFy7dYds/jA56qPQwCltAACQRgT6W0SwHgAAAEiefC9Z4riro1PaAAAAMUWg36PaVzfYJAAAAACi0B1ssa8QY7kN63fZl87UaMQLAABSiEB/i2o322+yVZujRj8AAAAQBTL6kyG30UOgv4M1HQAAQFwR6G9R2/U3Z8vX7SsAAAAAntW6i2T0J0C+r+eQfelMjXKsAAAghQj0t2quvWa8lRkmkwAAAEAaFXo4LRAW5ycvZsvXq1+xNgMAAOlDoL9FTAoBAAAA3Kc72GxfoUP57b1OM/qrV6jPDwAA0olAvyc0fAIAAADSy0cT2bTLb9047HrTpHp5hnUZAABIJQL9bahN3/jYvgQAAACAu0FqdKTw2COH7UtnKlNXx+1LAACAVCHQ34bqXKXlOv21m7fba+ILAAAAoGO52fZ6bTUrR6C/Y7n+h0fsSyeUsFW7xboMAACkE4H+NrSzSKjdusOEEgAAAIhIddptr61cn9va8mlX6N82kt+wvt8OnShPXjxqXwIAAKQOgf42tLVImHObQQQAAAAgOoXtPc/lSsEWO0SL8kP9o/alG7Pl61XK9gAAgBQj0O9J9Su3GUQAAAAAVuajCWu+f5vT0jNple/rPaSNEjt0ojx1dbw2Vyb5CgAApBaB/jb4WCQAAAAACI+Pnln5AffNZNOosG/3EfvSmcrp887/HQAAAFEi0O+Bmj7ZlwAAAAAiYJqwzpav26ETpnzPhvW77BBNKDy247DzbP5zl96iCS8AAEg7Av1tqH11o6UyPNW5CkdEAQAAgIhVr0w7P5lb2Os+Oz0ttClSfGaP8wa5ZPMDAIAsINDfhlZrO9ZukD0CAAAARK3ioRlrMLDjdbL6mxM8NzTW1R1stkMnyqfPv0k2PwAAyIKc/R0tKr04PF7rLm6xw1VVz30xVvns0pgdAgAAAIiAAvDdrx34mx06U7ky8978Ox8cskMso7h/z9HC4M437NCJ6q3bU/PH3h+mCS8AAMgCAv0AAAAAMqP48tPHXdeEl/KpT39cPjPlvCxNEqkuf/Hg0C/s0Jn5dyde9XGKAwAAIA4K9ncAAAAASD1lOhX6t43cHbmTf3jLs9Uv/v772u25K/Yt1PkK8qsBb+V//O2/2yEAAEDqUaMfAAAAQGZUleE9W75uh+50B5uDF4fHc6WgqXKfWeAryF+bvvFx5a9nR+0QAAAgE8joBwAAAJAdleqdriC/Lt/X67yGfq5U3FL4x63fqf77lV+Zf2+GBYP9o8X/+sT/aYfuzJavz/9pYqR26w4NeAEAQKaQ0Q8AAAAgUyqTU0e9ZPXX5Xo3PVl6+anjWc3s1987ODA0Fux//Kf2LafmT04ern51c8IOAQAAMoOMfgAAAADZ4jGrX3Lru7cHe/7xf89azf781o3DpZeGxwv/8I1/tm85NX9i8ocVnZ4AAADIIAL9AAAAADKnennmeH5gxw9VXse+5VaQX1fY84//rWuufL365fVT9t3UCvbtPlJ8/p/+L21y2Lecqpy5+LMyzXcBAECGEegHAAAAkEm16VsTahBrh17k/+Eb/5Lb0ft87fLM8a658jX7dmrolETppSfHC/+x7zX7lnPlc5feKv/fn/w3OwQAAMgkAv0AAAAAMql26/aFXHexJ79t8377lhf5Det3BUP9o/p3165eO5WGRr25+t+p+NLe8eLe3T/xlcUvJsh/ctLrZg0AAEAc5ezvAAAAAJBJ3a/un1DTXDv0a7Z8vfzJ1FE1CK4lMMNfGfzB4M7RfP+2V+xb3pRPn3+z/NH5I3YIAACQaQT6AQAAAGRarhRs6f7ewQtd3cFm+1YklJ1e/WTqaPWrmxP2rVjS55Xv3zYSDO0cjWqDxDTe/ezSmB0CAABkHoF+AAAAAJmX37pxuPSdp49HHeyX6q3bU7WpL8crn30xFpegv0rz5Pt6DhX6t41Ekb2/YLZ8fe5PEyPVy9PH7TsAAACoI9APAAAAAHVxCvY3KOhfvTRzvHZl+nht+uaEr8C/CezXPw+V5sn3bTkUWWmjRWrTNz6eP3HmcNxPPAAAAESBQD8AAAAAWHEM9i9VuTLzXtdXNydqc/PXqpdnTGZ77asb9XFrNf5Vgie3ddOwXitbP1cqbumq//0LPRuH4/b3V1mjyl/PjiaxjwEAAIAPBPoBAAAAYJEkBPvXYjYDlsiXClvikJnfktny9fmTk4crU1fH7TsAAABYBoF+AAAAAFhCwf7iwcGxxAXGU6Q6dfU38ycmD5PFDwAAsDYC/QAAAACwDJW2KR4cGou0+WwGqS9B5dSno2TxAwAANK9gfwcAAAAALFap3qn8+5Vfdc2Vr+f/4Rv/Yt+FK7Pl6+X/52//R/nE5OHqNA13AQAAWkFGPwAAAACsgVI+bplmu6fPH6ndun3BvgUAAIAWEOgHAAAAgCYF+3YfCZ7oH01yo944IcAPAAAQDgL9AAAAANCC3Ib1uwp7dx8JBna8bt9CK2bL1yufXxorT04dJcAPAAAQDgL9AAAAANAGAv6tMU12Pzp/pDp1dbw2V75m3wYAAEAICPQDAAAAQAcI+K9CDXanro5XP5k6Wv2KBrsAAACuEOgHAAAAgBDkSsGWwlD/aP6xHYfzG9b327ezxwb3axevjlfqv9t3AQAA4BCBfgAAAAAIWb6v91D+0R2Hg/5tI1lo3KuyPNVLM8cJ7gMAAESDQD8AAAAAOKSgf6F/20i+b8uhXO+mJ+3byTZbvl69Mn28ennmuPmdsjwAAACRItAPAAAAAJ6onn++r+dQfuum4SQF/mvTNz6u/P3WRNf0zQkC+wAAAPFDoB8AAAAAImTK/PRuHM5tXL+ra2v99w3rdkVV418leGq37lyoXZ4+Xrt5+4JeV+uv7R8DAAAgpgj0AwAAAEAMKftfwX81+c1t3Ths3isVt2gzwPwDixR66u8t7QUwW75emVkm8/6rmxO1uflrelkzr8vX7gb1b18wfw4AAICE6er6/wEUIUaAWXBAEAAAAABJRU5ErkJggg==;" parent="Fb7DKyUG0hWQXaiTz3AM-19" vertex="1">
          <mxGeometry x="10.279999999999973" y="135" width="160.43" height="41" as="geometry" />
        </mxCell>
        <mxCell id="a-xvFh-tDh5HoAEaao9C-1" value="10.84.0.16" style="text;html=1;align=center;verticalAlign=middle;whiteSpace=wrap;rounded=0;fontSize=16;" parent="Fb7DKyUG0hWQXaiTz3AM-19" vertex="1">
          <mxGeometry x="8" y="100" width="90" height="30" as="geometry" />
        </mxCell>
        <mxCell id="a-xvFh-tDh5HoAEaao9C-2" value="10.84.0.18" style="text;html=1;align=center;verticalAlign=middle;whiteSpace=wrap;rounded=0;fontSize=16;" parent="Fb7DKyUG0hWQXaiTz3AM-19" vertex="1">
          <mxGeometry x="12" y="166" width="90" height="30" as="geometry" />
        </mxCell>
        <mxCell id="nlwU2PpXcWKmxTWrh6bV-3" value="" style="shape=image;verticalLabelPosition=bottom;labelBackgroundColor=default;verticalAlign=top;aspect=fixed;imageAspect=0;image=data:image/png,iVBORw0KGgoAAAANSUhEUgAAArwAAANACAIAAABG/ynCAAAAGXRFWHRTb2Z0d2FyZQBBZG9iZSBJbWFnZVJlYWR5ccllPAAAA3BpVFh0WE1MOmNvbS5hZG9iZS54bXAAAAAAADw/eHBhY2tldCBiZWdpbj0i77u/IiBpZD0iVzVNME1wQ2VoaUh6cmVTek5UY3prYzlkIj8+IDx4OnhtcG1ldGEgeG1sbnM6eD0iYWRvYmU6bnM6bWV0YS8iIHg6eG1wdGs9IkFkb2JlIFhNUCBDb3JlIDUuNi1jMTQwIDc5LjE2MDQ1MSwgMjAxNy8wNS8wNi0wMTowODoyMSAgICAgICAgIj4gPHJkZjpSREYgeG1sbnM6cmRmPSJodHRwOi8vd3d3LnczLm9yZy8xOTk5LzAyLzIyLXJkZi1zeW50YXgtbnMjIj4gPHJkZjpEZXNjcmlwdGlvbiByZGY6YWJvdXQ9IiIgeG1sbnM6eG1wTU09Imh0dHA6Ly9ucy5hZG9iZS5jb20veGFwLzEuMC9tbS8iIHhtbG5zOnN0UmVmPSJodHRwOi8vbnMuYWRvYmUuY29tL3hhcC8xLjAvc1R5cGUvUmVzb3VyY2VSZWYjIiB4bWxuczp4bXA9Imh0dHA6Ly9ucy5hZG9iZS5jb20veGFwLzEuMC8iIHhtcE1NOk9yaWdpbmFsRG9jdW1lbnRJRD0ieG1wLmRpZDo5ZDlkMzkwMy0xOGJlLTQyMTYtYTkzOC0yZDkxNTIxOGU2M2EiIHhtcE1NOkRvY3VtZW50SUQ9InhtcC5kaWQ6RkVDOEQ0MkJDNjkyMTFFOTk2RTg4QzkzMzBFRTMwNjkiIHhtcE1NOkluc3RhbmNlSUQ9InhtcC5paWQ6RkVDOEQ0MkFDNjkyMTFFOTk2RTg4QzkzMzBFRTMwNjkiIHhtcDpDcmVhdG9yVG9vbD0iQWRvYmUgUGhvdG9zaG9wIENDIDIwMTggKE1hY2ludG9zaCkiPiA8eG1wTU06RGVyaXZlZEZyb20gc3RSZWY6aW5zdGFuY2VJRD0ieG1wLmlpZDozQUYzQUMyOUFCMkExMUU5OTIxN0UzMTZDQjEzQkNFOSIgc3RSZWY6ZG9jdW1lbnRJRD0ieG1wLmRpZDozQUYzQUMyQUFCMkExMUU5OTIxN0UzMTZDQjEzQkNFOSIvPiA8L3JkZjpEZXNjcmlwdGlvbj4gPC9yZGY6UkRGPiA8L3g6eG1wbWV0YT4gPD94cGFja2V0IGVuZD0iciI/Po+llscAAGU0SURBVHja7N0JeBX1vf/xs+/nJCGBsCQQkpCQ9dS6L3VfrxW3VgUVRUFlERBQgQphq2vdKOCCVmtbtbXaalurtVbqVrdaw5JAEvZ9zXL2/U7SPlarIsvMOTO/8349PPfp/f97B87vzJn5zMx3vl99aWmpDgAA4NsYWAIAAEBoAAAAhAYAAEBoAAAAhAYAAEBoAAAAhAYAAABCAwAAIDQAAABCAwAAIDQAAABCAwAAIDQAAABCAwAAAKEBAAAQGgAAAKEBAAAQGgAAAKEBAAAQGgAAAKEBAACA0AAAAAgNAACA0AAAAAgNAACA0AAAAAgNAACA0AAAAEBoAAAAhAYAAEBoAAAAhAYAAEBoAAAAhAYAAEBoAAAAIDQAAABCAwAAIDQAAABCAwAAIDQAAABCAwAAIDQAAAAQGgAAAKEBAAAQGgAAAKEBAAAQGgAAAKEBAAAQGgAAAAgNAACA0AAAAAgNAACA0AAAAAgNAACA0AAAAAgNAAAAhAYAAEBoAAAAhAYAAEBoAAAAhAYAAEBoAAAAhAYAAABCAwAAIDQAAABCAwAAIDQAAABCAwAAIDQAAABCAwAAAKEBAAAQGgAAAKEBAAAQGgAAAKEBAAAQGgAAAKEBAACA0AAAAAgNAACA0AAAAAgNAACA0AAAAAgNAACA0AAAAEBoAAAAhAYAAEBoAAAAhAYAAEBoAAAAhAYAAEBoAAAAIDQAAABCAwAAIDQAAABCAwAAIDQAAABCAwAAIDQAyGpH9jKPq3CyDgAIDQD2x6jXzfN6xlc6i51GVgMAoQHANxpV5qj0mKwGfUOdm9UAQGgA8PX62Y0TK13//s+nFlrP6WdlTQAQGgB8jTvq3A6T/vP/dVad227UsywACA0AvuSrtxb62o2ThrpYGQCEBgD/ZTPq59R/TRHDqDJHhcfE+gAgNAD4j3EVziLH17wu0f0yRb2HRxQACA0AupW6TGPKHd/0/3tUvvmSgXZWCSA0AIBurtdtNuzvbsLt1a5cC0cMgNAAILsNK7IdX2DZ/3+nl9UwrYqKSIDQACCLuc36mbUH1MTp8hK7N8/MigGEBgBZamqVq8B6QIcCvU63wOuhawNAaACQjWpzzSNKHAf+36/KMV012MG6AYQGAFn2+9fr5nvdhoO8czClytXHxqEDIDQAyCbDSxx1uQddo+A0HWgNBABCAwARFBzG2xDfH2A7sbeFNQQIDQCywoxat9t86DWNc+o9FgMlkQChAYDojiuwXFhkO5wtDHYZ99NBEgChAYAIzAb9XK8MRQnjKp3FTiPrCRAaAAhrdLmjzCXD1EqrQd9QR0UkQGgAIKgih3F8hVOurZ1aaD2nn5VVBQgNAATUUO+2ydrTcVad206TSIDQAEAwZ/WznlYo842BvnbjpKEMsgIIDQAEYjfqZytTgjCqzFHhMbHCAKEBgCAmDnX2syvysoNRr5tb7+YRBUBoACCCCo/pujKncts/Ot9ycbGddQYIDQC0Ta/TzatXfKT19BpXjplDCkBoAKBllwy0H5VvVvpv6WU1TKumIhIgNADQrFyLYXpNms7lV5TYvXlm1hwgNADQpFurXXmWNP3S9TrdfK+Hrg0AoQGA9hzRy3zZoLTWJ1bnmK4czCArgNAAQFOkK/559Z70X/ZPqXL1sXFsAQgNALRjZKmjKicDPZdcJv2MGgZZAYQGABpRaDNMzlx35wuKbCf0tvAtAIQGABpwR53bacpkReKcerfFQEkkQGgAoG7f62M5r78ts/+GUpdpdDkVkQChAYCKWQ36ufUeNfxLxlc6ixxGvhGA0ABApW6qcA50quJULcWXOfVURAKEBgCqVOI03jhERQ8FTi20nt3PyvcCEBoAqM4cr0dt5Yez6tx2mkQChAYAqnL+ANtJ6nvRsZ/dOHGok28HIDQAUAuXSf+jWpUWEFxX5hziNvEdAYQGAKpwi4qbN3c3tPa6eUQBEBoAZF51jukqdY+JOjrfcnGxnW8KIDQAyOjPWK+NgdTTa1w5Zo45AKEBQOZcPsjuzTOr/9/Zy2qYVu3i+wIIDQAyI19TZ+IrSrSRbwAQGgABTa9xa+iev16njScpAAgNgGh6qgtt2vo3V+eYrhzMICuA0AAgjUwG6apdk5Mdpqj47VAAhAZAQNeXOcu12THJZdLPqGGQFUBoAJAWAxzGCZUa7s18QZHtBPV1vAZAaAAENFv7U6Dm1LvVNlsLAKEBEM3pfa1n9NX8vOlSl2l0ORWRAKEBgGLsRn1DnSAFAeMrnUUOI98pQGgAoNSJdoAoJ1qrQT+nnopIgNAAQAHlbtPoMqdIn+jUQuvZ/ax8swChAYCc9DrdvHq3Sbhf7SztF3UChAYA6nJhse2YAgFfU+xnN04c6uT7BQgNAOSRYzYI3BDpujLnEG02qgIIDQBUZ2q1K98q7A/WqNfN87p5RAEQGgAcLm+eeXiJXezPeHS+5SKtDd8CCA0AVHcVPt/ryYar8BmaGvMNEBoAqM6Vgx3VOVnxvL+X1TC12sU3DhAaAByKPjbDlKosOo8OL7F788x87wChAcBBm1nrdpmyqECwuxeF103XBoDQAODgnNjb8v0BWVcbWJNjHlHCICuA0ADggFkM+rleT3Z+9qnVrt5Wjk4AoQHAgblhiKPEmaUTIF0m/YxaBlkBhAYAB2Cg0zi2Iqs7Kw8rsh0vYs9sgNAAQGZz6j1WQ7ZXA871us0GSiIBQgOAb3Zuf9vJfbjI1pW6TGPKqYgECA0AvoHTpJ9Vx+P8/xhX4SxyGFkHgNAA4GtMGuoqtPHD/A+bUd9QT4QCCA0AvqIqx3RNKTfkv+S0QutZ/aysA0BoAPBf3c0Q6z00Q/yqWXVuO+sCEBoAfO6Hg+xH9GLswtfobzfeXOlkHQBCA4BueRbDbQx4/GbXlzvL3SbWASA0ANDdVuPKtfB7/EZGvW6+180jCoDQAGS7o/LNPxxoZx327+h8y0XFNtYBIDQAWX0NPa/ewzociBk17hwzRy2A0ABkq1FljgoPT+sPSC+rYSqVHwChAchO/ezGSUM5Cx6E4SV2bx7vmACEBiD73EEHgoPU3c3C62bNAEIDkF1OK7SeQ6/Dg1eTYx5RQt9MgNAAZA2mKhyOqdWu3lYOXwChAcgOzG88HC6TfkYtkQsgNABZoMxlGlPODfbDMqzIdnyBhXUACA2A4OZ43WYDtXyHay7LCBAaALFdyCWyTEq5YQMQGgCBuc08jJcTpSEAoQEQ1tQqVwFl//LhJRSA0ACIqS6XBgPyO63QehbtLgBCAyDUj03f3cqQuj0lzKKxJkBoAEQyosRRl8vQBEX0txtvrnSyDgChARBBgdUwtYrBVAq6vtxZ7mZYKEBoALRvRq3bbeb+uYKMet18r5slBggNgLYdX2C5sMjGOijt6HzLRcWsM0BoADTLbNDP8fJOYJpMr3HnmDmsAYQGQJvGlDvKXDxrT5N8q2EKtSMAoQHQoiKHcVwFVf1pNWKwvZ63VABCA6A5DfVuG/0D0kta7nleN6sOEBoALTm7n/W0QjoVZkBtrnk4nTcBQgOgFXajflYd9Y8ZM62aGR8AoQHQiElDXf3sTF/MGJdJP5NpogChAVC/Co9pVBm3xzNsWJHt+AIL6wAQGgD10ut0870eCvHUYI7XbWZEGEBoAFTr0oH2I3vxyp8qlLlMo8u55QMQGgBVyrUYbq+huZCKjK9wFjkoLgEIDYD63FbtyrPws1IRm1E/m9dYAEIDoDZH9DL/cJCddVCb0/taz+xLwwyA0ACoRs9oZg9Fd+o0u95tpzYVIDQAKjGy1DHUw2AqlepvN06oZAgIQGgAVKDQZpg8lPpHVRtd7ix3k+oAQgOQabPq3E4Td79VzajXzat38yUBhAYgk77Xx3JufxvroH7HFFguLOabAggNQIZYDfp59R7WQStm1LhzzBz3AEIDkAk3VTiLnfQO0ox8q2FKFdUnAKEBSLsSp/HGIQJ2KX5tW7gzlhT1Wxsx2F6fS59vgNAApNdcr8ci3DykjmjyjkbfT5r8on5r0hc2z+umawNAaADS5/wBthN7Czh5+Z4mv5Qbfr0x1NgeE/W7q801Dy9hkBVAaADSwmXS3yHiRIN/7ov9dmNI+g/JlO6Oxq5ESthvcFq1q8DKARAgNADKu6XK1Vu4U44UEWY3dn2eE5o748+sCwoc+2bWMsgKIDQACqvOMV01WMCb20+vDa7pin/x/+Xh1f5dYWErIocV2Y4vsLA/A4QGQLHfTM9gKvHK6HaEEgvX/G/xoz+emr/CJ/C3OcfrNhsoiQQIDYAyLh9k9+YJ+MLegpX+QPxrShj+vC389q6oqN9mmcs0upyKSIDQACgg32q4tVrAB+FSLHhtW/gbL8eXd0WTwpZEjq9wFjlozwUQGgC5Ta9xe8yi3c2WAoEUC/bzX9gUSCxpCYj6ndqM+tl1VEQChAZAVkfnWy4WcdzRIy0BKRbs/7/zeGtwvT8h6jd7el/rmX2t7OEAoQGQh8mgW+AV8Hp0YyDxWOu3v1cZTaYa9ns3Qutm17vtNIkECA2ALK4vc5a5TeJ9robGA61XeH939JUtYVG/3/5244RKJ/s5QGgADtcAh/FmEc8of9oafnf3QbwZcddKnz8ubEXk6HJnuYi5ECA0AGk1u85tE+7edSCe+vHKg+vBsDuSFHiQlfQNz6t384gCIDQAh+70vtYzRKySe7D5ULo9PrshuKJD2EFWxxRYLhSx1hUgNADpYDfq59QLWP/Y3Bn/xfpDmSuR7J5P4RO3a4Nuhohv1QKEBiAdxlc6+9tF6/wjnfFnHcYEyxUdsWc3CDvIKt9qmFrlYs8HCA3AwSl3m8aUC1j/+JuNoc/aD+sRw/3N/t0RYQdZjRjsqMs1s/8DhAbgQOl13WVx4r263x5N3nfYxYy+WOrOlT6Bv/r5XjdzrABCA3CgLiq2HSPi3OR7Vvk7ojLcJPjDlvD7u4UdZFWbax5RwiArgNAAHIAcs2FGjYD1j5/sjb24KSTX1hqWd8XELYmcWuUqsHKEBAgNwLeeMKpdvYQ7YSRSutnLu2Q8ya/3Jx5tFbYi0m3Wz6hlkBVAaAD2y5tnHl5iF+9zPbU22NIVl3ebj7YENgeEHWR1YZHtOBEfUQGEBkAeRr1uvtcjXg3cjlDi4dXyN3OMJFOzhR5kNbfebaYkEiA0AF/rqsGO6hwBBxDMX+ELJRSpP3hnV/TP24QdZFXmNl1fRkUkQGgAvqKPzTBFxMY+y3ZGXt8eUTSRBMQdZDWh0jnAYeTXARAagC+ZWet2mkS7Fx1JpuauULanwq5w8sFmYQdZ2Yz6hjoqIgFCA/AFJ/W2fH+AgMOKlqxJR63iL9YHmzvjou4bog4tAwgNwKGwGPRzvB7xPtd6f2JpWzreikykdHc0dok7x0rXUO+2G6mIBKEBgE534xBHiVPA59YNy7ui6eq/1Ngee25DSNQ9pL/dOL7SyS8FhAYg2w10GsdWCHg+SH+n5/ub/PvEHWQ1usxZ7jbxewGhAchqc+o9FuHexffHU3etSvdMqc5Y8s5Vwg6yMhm62zbwiAKEBiB7ndffdnIfAbv+PdDs3xXOwEX/y5vDH+4RdpDVsQWWYcU2fjUgNADZyGnS3yHi23RNnfFfrc/MVIiUTjd7uS8u7DMK3cwat8fM7QZkKWNeXh6rgKx1W7X7JOFuM0in7bEfdWwPZey83R5N2kz6o/LFnNrgMOldJv2ynVF+PshC3GlA9qrKMY0sFbBD8PMbQo3tscz+GxavCWwJCjvIasRgR12umV8QCA1AttDrdPPqPeK9eL8vkvxJU+abM4YSqbnLfQLvPPO9buZYgdAAZIvLBtmP6CXgxeLdq/ydMVUUFLy1M/IXJQdeZFZtrnlECYOsQGgAskCexXBrtYCDqT7eG/3dZhW1V1JutKYaTK1yFVg5hILQAIju9hpXrkW0nV86O89q9KnqFL09lHh4tbCDrNxm/YxaBlmB0AAI7ah88w8G2sX7XE+2Bdp8qhsZ9dTa4JouYQdZXVhkO67Awm8KhAZATEZ9d/2jeJ9rWyjx0zUBFf7DEind7MYugfeoufVuMyWRIDQAQrquzFnhEXB8gJqrB/65L/bCRmEHWZW5TdeXUREJQgMgnH5248ShAg6memtn5A11v6dwT5O/Iypsk8gJlc4BDiO/LxAaAKHMqnPbhevMENZCRwQpMdy9StiKSJtR31BHRSQIDYBATiu0nt3PKt7nWtKijd6LL24K/XNfTNS96/S+1jP6WvmVgdAAiHItWC/gteA6f3xpW1AT/9SUTjersUvcrg06aQcT7z4W8D8YWIWsMGmoS8gLwYkfd24MaGbEw95I0mnSH9lLzHcU3WaDQa97fzeDrCAy7jRAfGUu0+hyAevbX9kS/scejZ2iFq4ObAsJO8hqdJmz3G3iFwdCA6Bhc70Cvknvj6fuXKm9iVChRGr+CmEHWZkM3W0beEQBQgOgVaL27PtJk39PRJMvMb6xPfK3HcIOsjq2wDKs2MbvDoQGQHtEnQ6wsiP23Iagdv/9c1f4wuKWRM6scUs7Hr8+CIlCSIjsR7Vu8W4zSCfbsR927ghruFeSL5ZKpnQn9BazItJh0rtN+mU7qYiEgLjTAGHV5ZqHlwhY//js+tDyDs03PHhibWCtT9hBVtKOJ+1+/AZBaAA0smfrdfO9bvEGCe2NJB9oFqG1Yjypu6PRJ/DuN0/E3Q8gNEBMI0octSJe6t21ytcZE2SIw8d7oy9tFnaQlag3ukBoAERTYDVMq3aJ97k+3BN9eXNYpE90zyq/MBnoq6ZWuaRdkd8jCA2Aqs2sdbtMot0ajid1Dct9gr1ysDeSvK9J2EFWHrN+Rg2DrEBoAFTs+ALLsCIBX5R/Ym2gTcTKwd9sDH3WLuwgqwuLbccWWPhVgtAAqJHZoJ/rFfDablsosXhNQMivLJkSfJDVvHq3iQMtCA2ACo0pd5S6BGz+P3e5LyTuebW5M/7MuqCon67MbRpd5uS3CUIDoC5FDuP4SgGPzn/bEXlT3L7L//bQav/OsLAVkRMqnQMcRn6hIDQAKjKn3m0V7tX4cCI1V9wJT58LxEUeZGUz6mfXUREJQgOgGmf3s55aaBXvcy1aE9gaTGTDN/jatvDfdwp7Q+WMvtbT+1r5nYLQAGSeXdArubW++JNrg9nzPc5d4YskhS3daKhzSzsqv1ZoGgOrIIJp1e6TRbzNcPMnnZsCiez5HjtjKemkerygg6w8ZoNBr3t/N4OsoGHcaYDmVXhMo8oE7Nf78ubwh3uy7gSztC24zi/sIKvRZc4yt4nfLAgNQGZIF6bzvR7xbvp2xVJ3rZK/MDDPYpD+yLjBQpvBIWvzzWgy1SDuICuTQTe33s0jChAagMy4dKD9yF4CDqa6v9m/JyL/K4iThjqdsp7je1kNY8plfs31H3uir2wJi7rHHidox1IQGgC1y7UYptcIOJhqRUfsuQ3y1z+WukxKzF0cXe7oY5P5SHLnSp8vJmxF5Mxat9vM7QYQGoD0uq3alWsRbR9OpnSzG31KvENwe41Liec4dqP+liqZo9ueSPInzcIOssq3GqZVufj9gtAApM8RvcyXDbKL97me2xBc0SH/AKdjCixnKNYn4AcD7UM9Jk2sg0oML3HU5Zr5FYPQAKSDdMU83+sR73PtVeYKW6/TzVTyOY60/Rm1MvfJ6Blk5RO1a4NBr5vndRt4RgFCA5AGI0sdsl/aqoFCz/KHFdtqFb6uPbG3RfaOnCs7Yr/aIGxvq7pcsxIlJgChAfiSQpvhlqECPhL+YE/0ZQXeGrAZ9bem5Qm6EjUT9zf5d0eEHWQ1tcpVYOUgDEIDoKRZdW55ewOoQTypU6g/wagyR1/7f0csBhUbsT3Ebfqh3FUm/njqzpXCtm3wmPUzahhkBUIDoJiT+1jO7S/ga+5L2wJrFeiEmG813DTE+eV0omCZwOShLtnz3B+2hN8Tt/XyhcW2Ywss/K5BaADkZzXo59YLWP+4JZhY0hJQYssTK13ONN6VKfhKRpFFQ2NXVNxBVvPq3SaOxCA0ALK7qcJZ7DQKeNpY4Qsp8NSgzG26oiTdb6VeX/6lpyGy2BBIPNYqbEWk9DWNLnPy6wahAZBTidN40xABq83/uiPytx0RJbY8XZluTvtnNeinKlB3+WhLQOCBnxMqnQMcRn7jIDQAspnr9ZiFe7E9lEjNX6FIod8JvS2nZWhc+EXFtuocmV+IjSRTs5d3ibpv24z62XVURILQAMjk+wNsJ/YWsF5s0ZrA1qD8F9BSuMpgWb4SvZ4k7+6KvrpV2EFWZ/S1nt7Xyi8dhAbgcLlM+h+JeB221hd/cq0i9Y8XFdmrcjLZ/Or4AosSp8AFK32BuLAVkQ11bruRJpEgNACH55YqV28Re+Dc0eiLK9C4yGbUT63OfPMrJSoqdoWTD4o7yGqAwzi+kopIEBqAw1CdY7p6sID1j7/bHP54ryLtB0aXOwptmf9pl7pMVyjQJvkX64NNnXFR9/bRZc4yt4lfPQgNwCHtoD2DqcSb69MVS929SpH6x95Ww41D1HK1OqnS6ZK7S0Sie5BVl6iPKEwG3dx6N48oQGgADsUVg+zePAEnCP+kybdXmZEKk6tc+38uns7TbS+r4aYK+RNMY3vsuQ0hUff54wosw4ps/PZBaAAOTr7VMK1awPpH6Zz3/EZFznkVHtMPBn5LNyclpmjux6gyRz+7/B0I7m/y7xV3kNXMWrfbzO0GEBqAgzGjxu0R7tCZTOlmN/oU6ol8e7VLbdX3VoN+mgJVmZ2x5J2rhB1kJcXlqVUujgAgNAAH6pgCy0XFAt6k/dWG4KrOmBJbPqmP5ZRCNb7of2GRrS5X/mdMr2wOf7BH2EFWI0octblmjgMgNADfzmTQza8X8MHE7kjyAWXeGMxsN6dvNbNW/uvmlE7XsFyRd1ZVcWjW6+Z53QaeUYDQAHwrUV88u2ulT6GSgksH2is96l2xo/MtZyrQ62mtL760LSDqr6A+1zw87fPGAEIDNGaAwzhBxBY37++OvrJFkS7IdqP+lqFqfwR+e41biXqLxS2BLUFhB1lNrXLnWzlKg9AAfLOGOrdNuGa6sWRqznKlCvfGlDv62NT+Wx7sMl6pQJOucCI1d7mwFZEes17NT51AaAAyTNSxPUvbguv8ivQxlOLCmCHauDEzsdKpxOswb+2MvL49Iuov4qJi2zEFFo4MIDQA/8tu1DeIWP+4JZhY0qLUo/dbvq2bk3rkWgxjKxTJNwtW+ILiDrKaX+82cagGoQH4HxMqnf0VaASUcXOX+8IJRU5pQw+gm5OqXFPqKHLI/xVvDyUeXiPsIKsyt+n6MgZZgdAAfEG52zS6XMAj41+2R97aqdTN8+m1GptTYDHoFWpb9PTa4OouYQdZSXl6gMPIUQKEBqCbdOab73ULV/6oCyVS81coVaZ3ch/LSb0P7ml3LJn5e/gXFNmUmCeS6G612SXqD8Ru1M+qoyIShAagx0XFtqPzBaz2Wrg6sD2kyAuBUsCafvB19WF1vJw4s1aR89+n+2K/2SjsIKszBa0RBqEBODg5ZoOQ75W1+uJPrVOq/vGHg+wVHq32vzqyl/nc/oqc/+5t8rdHhR1kNbvObTfSJBKEBmS3adWuXiJ2sJnV2KVQk2OHST95qLYHGt1a7TYr0CS5I5q8Z5WwFZFFDuO4CioiQWhAFvPmma8QsVfui5tCn+yNKbTxG4c4CzQeswY5jVcq870ruvIZN6bcWeYy6QBCA7KQUa9b4PWId7+1M5a8p0mp691Cm+H6MocAqzRBmV5PqZ57PAlBuzaYDLq5XioiQWhAVrpqsKMqR8DLpvua/PsiSj1Zn1LlEqPNdq7FMKFSkYcsrb74k+IOsjquwHJhkU0HEBqQVfrYDFOqXOJ9rsZ2BWv4q3NMlwwU52nOyMGOYqci7Qd+uiawLSTsIKsZtW63mYpIEBqQTX5U63aaRDvwJVLd98aV64YwQ2vdnPbPZNDdVq1IcAwlUvPEHWRVYDVMFTFwg9AAfL2TelvOHyDgLdZfrg82dSrVl/D0vtbjhZtddF5/2xG9zEps+a87Im/uEHaQ1YgSR22uWQcQGiA8i0E/1+sR73PtjiQfbFaq/tGo191eLebF5YwapW6fzFuh1NSPzB+79bp5XreBZxQgNEB4Nw5xDHIK2Eh/wQqfX7FZi5cPspe5xXzX7ru9zOcpc9tpazDx0zXCVkTW55qHi/i6MggNwH8NdBrHitig5r3d0T9tDSu0cZdM3ZyCar3svq3aZVbmqvnJtYE2n7CDrKZWufOtHMZBaIC45tZ7LMLdVI0lUw1KTku6qcIpS9PMeFKloaHIYRxZqshFczypm9UobEWkx6wXsgU7CA1At/P6277XR8DBVI+1BjcElHrBr5/dOEqIbk77N77ClWtR5Ij08d7oS5uFHWR1UbHtmAKLDiA0QDBOk5jjfTcHEo+0KPjgfFqVy5oFBW/SRfN4xZ5b3b3K3xkTdpDV/Hq3iWM5CA0QzOShrj42AXe5OSt8EcVu+9fmmocVZ0v7v6sHK1Uhuy+SvFfcQVZlbtP1ZQyyAqEBAqnKMY0sFfAe+2vbIn/fqWAzgJk1rux5q66715NiT+h/szH0r33CDrKaUOkc4DDqAEIDBCCd9uZ7PUbhzn7BeOrHKxUssjuzrzXbHlef0896VL4iPYtSOt3s5cIOsrIbxXz2B0IDstFlg+zfyROwe93CNf7tig046O7mlJWF8cr1emrujP98XVDUdZMi5ul9rRxtQGiAtuVZDLfVCNjKsKUr/tRaBc9AI0ocg13ZeMPZm2dWrsX4w6v9O8QdZDW7zm030iQShAZo2fQaV45ZwD1tVqOC97rdZv3Eodlb2jatWqkXRgLx1IKVwrZtKHIYx1VQEQlCAzTrqHzzpQMF7HT7wqbQP5Wsqhs7xJlnyd6fp3Tyu0ax1hRK165m1phyZ5nLpAMIDdAco767/lG8z9URVfb9PemUea0yp0wNVQEqGpsUfUs2s0wG3VwvFZEgNECDritzDhFxxtJ9Tf72qIKdgqZWuRTqtO2LaeZMqegDms2BxGJxB1kdV2C5sChbenuA0ABB9LMbhXwq/1l77DcbFexJXJ9rvoAjfg9FS0GXtgXX+YUdZDWj1i2lLnYhEBqgGUIWcidS3fWPil6tz6zl3vJ/SLvPbdVKrUbPjDFhKyILrIYpVS52IRAaoA2nFVrP6ifgK+PPrAs2dyp4eXq2Yq2NNErai5Rrb/WPPdGXt4RFXborSxw1OexLIDRA9WxGfUO9gJfLu8LJh1crWP9oNuhvZ8zxVyjaSPuulb6umJgVkQa9bp7XbeAZBQgNULnxFc4iEdvgL1jp88cVPMFcWWJXaFyTpik6smtPJHl/s7CDrLx55isG2dmFQGiAepW5TGPKBax/fHdX9NWtCt7K9pj1Eyppy/P1pla5bIrVxzy3Ibi8Q9hBVtOq3flWjvMgNECVpOP6XK/bJNxuFU2mGpZ3KfpXjK9w5Vr4PX69/nbjtYqNSE2mdLM+8wnataE7jE7nmRcIDVCnYUW240Scyvhoa3BjQMGBBUUO48hSbiPvz00VTuWumFd1xn65XthBVhcX247Ot7ALgdAAdXGb9UK+LrgpkHisRdlGQLfXuMxUrO2Xy6SfWKngO4QPNPt3R5Kirt58Ee//gdAAbZtW5RLy6WnD8i5FWw4f0ct8Xn+6OX27K0rsyk1V8MdTC1YI27ah3G26royKGRAaoBp1ueYRgx3ifa7XtoXf2RVVbvt6nW5GGh85R7X86N6o774lo9z2/7Q1/O7uqKi/0Jsrnf3tvJsDQgPUcTSf73WLd3s9GE/NV/jq85z+tu/2Sl8HnkhC2/V+p/e1Klo009DYFRW0JNJu1M+qoyIShAaowPASR22ugL3nHlrt3xlW8Dl3dzenanr9HpyZtQo2LNoYSDzaKmxF5Fn9rKcVWtmFQGhAJhVYDdNEPPOt7or/fJ2y54+rB9uL6eZ0kKpzTBcVKfimyWMtAUXflMmshnq3zUjJLQgNyOiVn8sk4GFoVmOXovfycy2GCZXcZjgUU6sV7PUU6R5k1SXq0hU5jOMrqIgEoQEZcnyBZZiIc5x/szH0r33KdgmUjt0ehhcfkkKb4foyBatu390d/dNWYQdZjS53KPcSCggNwDeyGPRzvQKWVnVEk/c2KTuPYKDTeLWIL5ukzY1DnAVKvt/745W+QFzMikizQT/HS0UkCA3IxCVLqYiXLPc0+aXcoOhfcVs1zXYOi8OknzRUwYc7u8IiD7IS9QYhCA1Qr+6HoyIOWPp0X+y3G0OK/hVH5ZvP7U8R++G6bJC9wqNgZv3V+uCqTmEHWc2odbt5OgZCA9JmTr3bKlzn40RKN7uxS9G70mnu5iSw7l5PSr6207Mz+ASdY6XrbTVMqaIOF4QGpMU5/aynivjC98/XBVd3xRX9K84fYPPmmdmFZHFKofXE3gr2empsjz27PiTq6l1Z4qjJYVcEoQEKc5jEbC23M5x8eLWyj7EtBv00ujnJaoaSvZ4k9zf79go6yEpat3leN4PSQGiAsiZWuvqK2MR+/grFC+ZHltqLHJlcOr9wbwQM9ZguKVaw11NXLHXnSmEHWXnzzFcMYiY7CA1QTIXHNKpMwHcF394VfW2bsq/m51oM4ysyfJtByEvmKVUuu5JdDl/ZEv5gj7CDrKZVu4UcTgtCAzJPOjDP93rE60IbTabmLFe8CeCkoU7q1ZXQx2YYU65gkE11D7LyxQQdZOUx66dTmQtCA5Twg4H2I3sJWDn1SEtgk8LjBga7jCNK6OaklDFDnFJ0UG77a/3xpW3CDrK6uNh2dL6FvQiEBsgp12K4vUbAIr6NgcRjyg82vK3azZwg5diN+luGKrtzLmkJbAkKO8hqvpduYyA0QObTnkvKDeJ9robGrqjCd56ly7iz+tHNSVmXDrRXKtnrKZxIzVkubEVkudt0XRmDrEBogEy+28t8mYhV1q9uDb+7W9kaN333IFBes1T+WKZXvGvWsp2R17ZFRF3Amyud/e0MagehAYfN2P0+t0e8zxWIpxYo/zbdsGJbXS4tdNLhpD6Wk/so+2xe2mGCgg6yshvF7L8CQgPS7ZpSx1CPgIOpHlrt3xVW9iVEm1E/lWa9aTS9RtnakR2hxEOrhR1kdVY/62mFPEcDoQGHoa/dOHmogKe95s74M+sUr3+8ttTBLd90qvCYLh2o7HO0NPQaz6CGereNkl0QGnDI7qh1OUyiHURSOt2sxq6EwreZe1kNN1VQXJZut1Qpu8dKu80shaeaZVD39Fp2WhAacGhOKbSe298m3uf6zcbQZ+2KTz2eWOl0qSxvJVLi77S9rYYx5cqe9v61L/abjcIOshpd7ihzmXQAoQEHxWrQzxGxMKo9mryvSfHH0tJhd7j6ujkF4sls2HXHlDsKbcoe3KRdSNqRhFw9s/TD91IRCUIDDtLYCmexU8Dn8fes8ncof7i/vcbFo+FMsRn1UxSuP5V2obtXCVsReXyBZViRjR0JhAYcqMEu441DBGx7/M99sRc3KX5j+bgCy+l9qULPpEsG2qtylL3H/tKm0Md7hR1kNaPWzagUEBpwoObUe8wG0Q4Z6Slh6+4yRDenTJP2XaV7PfWU0/pELRPpbTXcMpTdGIQGHIALimwn9hZwgM1Ta4Mtyr8sN6zIVpNDN6fMO6G35VSFuw60+eJPtgVEXcCrBjuqc6iIBKEB++Uy6WfWClgGtSOUWLhG8YfQNqP+1mqKyNRiuvKVJT9dE9gWEnOQlUGvm+/1GHhGAUID9mNKlau3VcAdIz0NgK8vU7xuHweu3G26XOGZKSGhB1l588yXizh0BoQGyKMmx3zVYAHrH9MzaqjAarhxCI1x1GXSUJdT4W4Zf9sReXOHsIOsplW78q2cKUBowFf3hu7BVG7x7kZGkqm5K9JxLSidn8Trnql1+WlJcvNW+EKClkTmmA2311ARCUIDvmJ4id2bJ2AF35I1gc0BxZ86l7tNl3EjV5WuL3f0VXgCyNZg4qdrhK2IvKTYfnS+hR0JhAZ86YJsapWAFXzr/YmlbcE0/EXT6eakVlaDfprys0Z/tjbQ6hN2kNU8r9vE6QKEBnxuRo3bI2IvlznLu6JJxe8bn6j8232yiCSydPe+sNhWm6vsXbR4srsLiKgLOMRtGlVKvQ4IDehxbIHlomIBu8b+cWv4vd2K9+zr6eakjZs0kWQqO/fwnl5Pit9s+GRvOvqNZsrEoc5+zHknNLAEMBl08+oFfDARiKfuXJmO+sdLiu1DPfTA0UAyTkNv77vTMtkkI+xG/aw6epAQGpD1Rpc5y9wCnvMeaPbvCit++LYrPxsJcklD3Ul7NHlvk7CDrM7uZz2tkKEqhAZksQEO44RKAR9VNnXGf7k+HfWPo8sdfejmpBGlLtMVys8rf2Fj6F/7YqKuYUO920bFL6EBWauhTsBDQM8koa40vDYvxYUb6OakKZOHOpUe3pi23S8jihzGcRXs84QGZKUz+1qFnOD8/IZQY3s6LvVuGeqyc9WlKXkWw03K57zVXfGn1wZFXcMx5Y5SF0U8hAZkGelsN1vE+sd9keRP0vJQudJjunQg3Zy059oyxwCH4m8BPLzGv0PQQVZmg35OPRWRhAZkmZsrnf1FfIHq7lX+zlg6yten17gZAKhFVkM6aleD8dSClcIOsjqht+WCIhv7EqEB2aLcbbq+XMAHkx/vjf5uczpelD+pj+V7fWisq1UXFtnqchXvmP7atsiyncIOsppZ63YxaYXQgGwg/dDne93iPYtPpHSzG31pqD+Tlm5mDbdntX7OS8eLsnOW+8KClkT2thp42ZjQgKxwsaDjZ9LW/P/SgfYKujlpnPQTOLuf4lXAW4KJJS3CDrK6arCjOocfAqEBQssxG6aLOOh2eyixcHU6js4Ok/4WzV5g+WMpfgKfu60mHUOYlrYF1/rFHGRl0Ovmez1U9hAaILJbq129rAJ+7/NW+EJpuQ88ptzZW7MLmOQH8AUlTuMI5Xs9xZKphkZhKyK9eebLmQhPaIDIv/ASAX/hb+2MvLE9HRVnfWyG0eUOdiRhTKx0pmG46wd7oi9vDou6htOqXflWTiWEBgjHqNct8HrEu5UYTqTmLk/Tldy4CifdnESSazGMKkvHa0R3rfJ1CfpsKMdsuL2GikhCA4Rz9WBHlYhVS0taAluCaeqic2+T/8Fmv4/KACG0R5M/Xul7rDUdpTB7Isn7m4V9SHGJoLXVIDRkrz42wy0ivh+1zh9f2pa+fr3BeGpxS+CUN3ZLSSWUIDpolRT7ftLkP+WNPU+tDabtlcjn0tXdPCPmedNRVQpCA9Lkjlq3U8ROLA2Nvlgy3SfvrljqgWb/yX/pPuVEkkQHLZGi3k/XdMe+R1sDUgRM518t7SkCD7Ia4jaNKmWQFaEBQjipt+X/BgjY8/WVLeF/7Ilm6m//983t097Y86v1oTivJaieFO+eaAtKUe/h1f5MlRekbWJ7Rkwc6uwnYmd6EBqyi9Wgn+v1iPe5/PHUXSro7b8rnGxY3nX6X/e8tJnnFSolRbpfrA9K8e7uVT4p6mX2H/Ngs1/aZ4RcZ7tRP6uOTqmEBmjcjUMcg5wCxv/7m/y7I2o5+G4LJW77tOvsN/f8aWuY5KAeUox7YVNIinRzl/tUcqr2Cz3I6ux+1tMKrex4hAZo1UCn8aYKAR80ruqMPbtBdbd5NwYSkz7pPP+tvX/dEWHfy6xUz9MrKcbN+FfXNpWNqH51a/jdXVFRV76h3m3jtWRCAzRqXr3HIlyXV+l8MOszn2qfBbR0xW/6sOOiv+97R30nhkR2lG2+sT1y3t/2TvlnpxTjVHpmXd4VFfS7KHIYx1VQEUlogAad1992kojjm59dH1reofZX11Z2xEb9o/3yd/Z9tEdF0SEoetnF27uiw5btHftRR5tP1eMepDTzqLiDrMaUO0pdDLIiNEBTXCYxi5L2RpIPNPu18q/9577YiPfar3m/XeAX9FVCCmc/fGffdf9ob+rUxnSoR1uDG9R6I+QwmQ36OfVURBIaoCmThrr62AT8fu9a5euMaaz4/L3d0Uvf3nfDhx3NnXH2TNlJgeyq99qlcPavfVpKZtFkak5jl6hfygm9LRcU2dg5CQ3Qhqoc08hSAecqreiIaXfwz992RIYt2zvxk861PqKDPKQQNuaDDimQfbBHk3WF7+6O/nGrsIOsZta6XSYqIgkNUP+X2jPkXsj65bpc89Mn5J3YW6uFGqmeyvnz3tp726ddmwS9NZ0eUvCa8HGHFMLe2qntF1XuXOnzx8UsNOltNUypYpCVaKhVEdAPB9q/k2cW9dNJiUH6s6Ij9lhr8C/bw1qsQJf+zS9tDr28JXT5IPvYCproHRwpbC1c439lS1iAlw/cZv2wIls0kdIJekV+5WDHbzeFmngqR2iAavWyGm7LgjG1dbnmRUfnrPe7lrYFfrc5HNPgCUQ6Uzy7IfTbTeErB9tvGOKULsvYe/dveyixaE1AOgkJ8ApIkcN4bZnjsoF2h9A38I09dz1/+M4+JrSI853m5eWxCiKZU+8+ole2zKjNsxjO6Gu9bJBdr9et7orHNNicVzr/fdYee3Z9KBhPVeeYlO6K886u6GeyvsfR22YYUaJ49czunldmpn3atbxD81PJj+hlvqPWM8/rkf6D2SD+I/++duPOcHJlBzcbuNMA9Tkq33zpQHu2feo+NsP0Gvf4Ctcv1gefXhfcF9FedpCunR9tDfxqQ3BUmXNUqcNtpnzsPzqiyaVtwZ+vS98Aa+Wuuc/uZ7u+3CHwo8Nvcmu16y/bI1r8YYI7DUIHQINu6XF5+dl6l9tq1B+dbxlZ6ii0Gdp8iS4NXpFGk7oP90R/vTEk/dNrchW5DNXQnQZfLPVYW/DmTzo/2BPVdKWgy6S/arDjwSNzLi+x983K+hWbUd/LYqC3OncaoC6jSp1D3Nn+hVoN+isHO64ocfxpa/jx1sDqLu3dFJWure9r8kvX1jcMcQ4vsVsNWXfXIZRIPbMu+HhrsDOm7WvTIofxmlLHZYPszqx/8/DSgfYXNoU+2UuLM83Tl5aWsgoC6G83vn5Gvp05MV+2bGfksdbgx3uj2v1ax1Y4pbOOXF/srMau5zaEZPwXVuWY/nBqvlxbiyRT0j/vkZbAXo3fyj6il/n6MsdZ/Zjc9F+tvvj339rL+Hit4/GEIO79bk6lh/tG/6vEZfrBQPtJfax7o8kNfu31RfDFU2/tjPxhS9ht1ld6zPrDPgO9vj0ib1dKuR5PxJO6X28MTfi489WtYe2+HSFFhHP72+4+wjOx0lXuNhlIDF+QbzUE47pP93GzQds4zYjgtELrWf2YYf+NvtvL/PixuW2++KOtAekErLlT0sZA4rZPu/61Lzbf6xH1Oxr/ccebWn7m7TTpLxtkv6bUUeSg68Y3mjjU+cet4e0h2pppGK+Ga57dqG9gNswBkK78fvLdnGVnFYwsdWjxOU5M6Npz7XZFHOAwzqhxv3dO7x/VukkM33qwuqOOgxV3GpBR4yqcHKoOXD+7cXade2Kl8+frgr9YH+qIauZUzHuYauPN6y5cOKc/hQsH4Zx+1lMLrct28iYFoQGZUOY2jSl3sg4HK9dimDTUdcMQ5/MbQk+uDe7Qwv1SqlxVQvoezupnu67M8d1eZlbjEDTUuT/YEw1TEkloQJpJ55C59W4Tj5gO4zQ8qsxx9WDH77eElrYFVT58ktCQcRQuyKLY2f1O0IPNfpaC0IC0GlZkO67Awjoc7m/AoPvBQPulA+1vbI881hpobFdpdbedKcOZ089uvLbUcXmJnVnPsrih3PH7zaH1fioiCQ1IF49ZP7OWkiLZSKeCs/tZpT8f7IlK0eGdXapr7eDmdJUJ9bnm68od51G4ICuzQT+n3nPN++0sBaEBaTK1ypXPXEQFHFdgkf40d3a/n/naNhU9eOXxRDoZ9Lqz+lqvK3ceSeGCMk7sbfn+ANsft4ZZCkID0nH1M2Kwg3VQTlWO6eGjcjYFXE+0BV7cFI6oYLIvl7rp4TDpfzjQPqqMwgXF/ajOvWxnxB+nIlJTeZol0Bzp3DHP6+YEkgYDncZ5Xs+yswtuGuLM+BuPPE1XWj+7cXqN+72ze8+qo+NCOvS2Gm6pcrEO3GmAsoaXOGpzuWWa1kPbtGrXjUOcz27ontG8K5yZ1g5OOVKLL8Z44q9B4UKmXDXY8eKmUFNnnKXgTgMUPIGxDunnNuul3PDWWQXzvZ5BzgxchspyQuNG8JcOf90dF6zPn9TrpVN6fX8AiSEDpDWXflAM6eBOA5Qyo9bNbeoMshr0w0vslw2yv7Yt/FhrIJ1XSBRCyshh0l9a3F24MNDJY4gM8+aZpR/U87IOXwWhAd1O6G0ZVmRjHdRweXT+AJv0551d3e9nfrAnHe9n0sZLFn3txpGD7VeUODy05VaNW6tdf9ke2Rfh2RmhAfKxdL/ZTGMGdfleH4v0p7E9JkWHv+5Q9h0LB3eYDk9drnlUmeN8HkOoT47ZcHu16/Z/dbEUhAbIZky5o9TF96VG3jzzkmNy1/rjS1uDL28JxxTIDiaDjlPdoTHodWf0tV5X5jg6n/ap6nXpQPsLm0Kf7I2xFIQGyKDYaRxXyWAqVStzme4+wjN5qPPJtcFfbwwFZX373EFkOHh2o/4HAylc0IZNgYTHzAM4QgNkctlAu5UKYy3oazf+qNY9vsL5y/Whn68Ltss0etvN8fRgFNoMV5c6hpfYc1g31Vvriy9pCfxxK2MvCQ2Qz/3N/nd3R8cOcZ7Uh1usGpBrMUyodF5f7nhhY+iJtuC2wx69zXP4A1ST091x4fz+NspG1a+5szsuvL49nCQuEBoguw/3RKU/3jzz2ArnmX2tLIj62Y36kaWOKwc7/rCl+/3M1sMYvc37lvtn0OtOK7ReX+Y4hrmvWtDYHlvcEnhrR4S0QGiA4j+2mz7sqPSYxlU4/2+AjTOJ+kmn+4uKbdKfv+2IPNoa+HTfoZR6OXl14pvj1KUD7deWOUooXNCCj/ZEH1HlFFkQGkS2pis+6ZPOB5r9UnS4sMjOnVhNOL2vVfrzyd6YFB3+vvPgrrHkCg1xgd6Ep3BBW6SgIMWFj/YQFwgNyJCNgcTt/+p6eHXgxiGOHwyiUlIbjso3P5GfK8W+x1oDfzrg4i+5Hk8EhSg2q8oxjS5znj+AwgVteHNH5JGWwGftvE5JaIAKbAslGpb7FrcERpU5rhrs4OG3JlR6TA8cmTOlyvVEW/C3m0Lfmh34WnU9hQunFnZ3XDiOwgUtkPbpP28NP5rebusgNOCA7Aon71nlf7w1eHWpY1Spw02LXC0ochjn1LsnVjqfXhf85fpgV+wbo0OWf6FSZrpkoO3aUudgF4ULGiBl4D9s6Y4LbT7iAqEBKtYeTS5c7X+yLXD1YId0QdbLyt1bDZC+pilVrpu6R2+HfrY28LWjt7P2TkMfm0HamYeX2HMt7MwaEE/qXtoceqw1sDGQYDUIDdCGQDwlZXzp4lU61ErRoZ+dizMNcJj0o8sd15Y6pGPu0rbAen8iy0NDVY7p+jLn9ylc0IhIMvXCxtDjrTJ0JQGhARkQTqSeWhv85frQpQNtN5Q76aSrjR+kQXfZIPsPB9lf7x69HVzR8Z/aMXvWvHIpfc7T+lK4oCWhROq5DaEn2r7+JhkIDdCSWDL1/IaQdAUgXbGNq3CWufnGtXHiPLe/Tfrz/u7u0dvv7Y66syA02Iz6i4tto8oYzKYZvljqVxuCT7bJ1i4dhAaoQiKle3lL+A9bw2f2tU6odFXn8L1rwwm9LdKflR0xo17w0HBNqeOYfDOFC1rREU0+sy749Lr9Ve+C0ABtS6Z0f9kekf6c3McyvtJ1ZC8za6IJtbnif1Nn96MzujbsjiR/vjb4zPqgvHNcQWiAer29K/r2rn3HFliYgAXgAG0PJX62NvjchhDzKAkNyEZMwAJwILYEE4+3Bl7YFI4xj5LQwBJkOSZgZRWuEXFQ1vnjj7UGf785xI4DQgP+6/MJWOMrncMGMAFLWFGuFHFgWrriS1oCr24Ls8uA0ICvtzGQuO3TroeaAzcOcf5gkI0JWEAWWtkRW9wS+Ov2CGkBhAZ8u54JWF2LW/zXlTmvHGxnVBKQJT7dF1u0xv/2LqZXg9CAg7QrnLx7le+x1sDI0u7exkzAAgT2wZ7oT9cEPtxDXAChAYehPZp8uGcC1lWDHdeXO/LovQOI5e1d0YWr/Z+1x1gKEBogD/8XJmBdX+boywQsQONSOt2bOyJSXGjqZHo1CA1QwOcTsH4w0DaGCViANiVTuj9vC/90TaDNR1wAoQEKiyW7J9r9ZmPo+0W2cUOYgAVoRs8MmtDiNYGNAaZXg9CANB99Nof/sCV8Vs8ErComYAEqFk/qXtgUeqQlsC1EXAChARmSTOle3x55vWcClhQdvssELEBlIj23Bh9vDewKM70ahAaow38nYFU4T+rNBCwg80KJ1DPrgk+0BdujxAUQGqA+/56A9Z08801MwFIrX4wuf1nxLT+1LvjztcHOGHEBhAao22c9E7CGekxjmYAFpFdHNPlEW/AX64OBOOkQhAZox+qeCVgPNvvHMQELUN7uSPLx1sDzG0LMowShAVq1gQlYgMK2hxKPtARe3BSOMI8ShAYIgAlYgBI2BRJLWgIvbwnHiAsgNEAwTMAC5LLWF1/UEnh1a5hnESA0QGRMwAIOR3NnfNEa/xs7eBYBQgOyxhcnYI0udxbaiA7At2hsjy1aE1i2M0JaAKEB2ejzCVg/HGgbzQQs4Bt8tCe6uCXw3u4oSwFCA7JdLJl6dkPo1xtDFxTZxjIBC/iCd3ZFl7QEPt5LXAChAfiCREr3+83hV7aEz+5nHV/BBCxku7/uiDzSEmhsj7EUIDQAXy+Z0r22LfL6tsj3+lhurnQdwQQsuUUpn1M36et5dWv40dZAc2ec1QChATig4+bnE7DGVThPZAKWfHhFT7W6x81vCT3eGmzzERdAaAAO3ucTsMZWOM9gAhYEFU/qXtgUeqItsDGQYDVAaAAOy2ftsRs/7KjKMd00hAlYEEokmfr1BikuBLeFiAsgNADyae7snoD10Gr/2ArnhUW0ooa2hRKpX64PPrU2uCvM9GoQGgBlrPf/ZwLWTRXOSwcyAQva44ulftETF9qjxAUQGgDlbQslZjd2LVrjv77MOYIJWNCIjmhSygpSYuiKUY4KQgOQXrvCybtW+R5tDVxT6riGCVhQsd2RZE/z02AwTlwAoQHInPZo8qHV/ifXBq4scYwud+QyAQtqsj2UeKIt+OuNIV52BaEBUAtfjAlYUJdNgcTStsBvN4VjNNQCoQFQISZgQQ3W+uKPtwV/vznEzQUQGgC1YwIWMqW5M/5Ya+DVbWFuLoDQAGgJE7C+VpCLX2Us74g90hL46/YI6wtCA6BVTMD6H3FaA8jtk72xJS3+t3cxvRqEBkAIX5yANb7CeQITsCCH93dHF7cEPtxDXAChARDR5xOwxlU4T2cCFg7Vsp2RRWsCn7XHWAoQGgDBScf6G5iAhYOX0un+sj2yeI2/qZPp1SA0ANnk3xOwHl4duKnCwQQs7F8ipfvztvCiNYE2H3EBhAYgW63zx/89AWtshfMSJmDhK+JJ3ctbQktaAhsDTK8GCA1AzwSsWY1dP13jH13uHF7CBCx0iyZTL24KP9ISkHYPVgMgNABfsiucvHOlTzpJXFvmGDmYCVjZK5RI/Xpj6PHWgLRLsBoAoQH4Ru3R5IPN/ifbAiOYgJV9gvHUL9YHn2gLSrsBqwEQGoAD0tUzAevn64JXlNjHlDv7MAErC77xp9cFn14bkP4DqwEQGoCDFvrCBCwpOhQzAUtE7dHkk23BZ9YHg3HiAkBoAA7P5xOwhhXZbtLyBCwf19BftjuSfLw18NyGUJiRHAChAZCRdFr53ebwy90TsGzjK5xMwNK07aHEIy2BFzaFY8yjBAgNgEJ6JmCFX98WPrnQenOl8zt5ZtZEWzYFEotbAr/fHOLmAkBoANJBOt38fWdE+sMELA1Z64v/dE3gz9t4FgEQGoBMYAKWJjR3xheu8b+5I8KzCIDQAGQYE7BUq7E99vBq/zu7oqQFgNAAqOtylglY6vHRnuhP1wT+sSfKUgCEBkClmICVce/skuKC/9N9MZYCIDQAGsAErIz4647I4jWBFR3EBYDQAGjN5xOwRpU5rmYClmJSOt2rW8NLWgJruuKsBkBoADSsPZp8oNn/BBOwFJBI6V7eEnqsJbjWT1wACA2AKNQwASsq0BuH8aTuhU2hx9sCmwMJ9i6A0AAI6IsTsG4Y4ixypHUClhhdjSLJ1HMbQk+2BbeHiAsAoQEQ3ecTsC4sst84xKHdCVjpj1zPrAv+fF1wVzjJagCEBiCLSJf9L20O/X5L6Jx+tnFMwNovXyz19LqglBjao8QFgNAAZKtkSvfnbeHXtoVP6ZmA5WUC1pd1RJNPrg3+an2wi7neAKEBgK7npcFlOyPLeiZgTah0Hl/ABCzd7kjyibbAcxtCwThxASA0APgKJmBJtocSj7cGX9gUYh4lQGgA8C3+PQGrOsd0Y5ZNwNoUSDzWGnhpczjGPEqA0ADgwDX1TMBauDpwYxZMwFrriz/SGvjDFm4uAIQGAId8Nu2ZgNU9PHOI89KBNotwE7CaO+OPtgb+vC3MzQWA0ABABluD/5mANabceYUoE7Aa22OPtATe3BEhLQCEBgAy2xVO/nilb4n2J2B9vDcqxYW3d0X5TgFCAwAFHfIErKAK6gXe3RV9pDXw4R7iAkBoAJAuhzABK57Rbop/2xFZ0hL4rD3GdwcQGgBkQGYnYB2IlE73+rawFBeaOpleDRAaAGSaOidgJVK6P24NP9ISaPMRFwBCAwA1+XwC1rn9bWOHZHICVjyp+92W0KMtgY0BplcDhAYAapVM6V7dGv7z1vCphdYJaZ+AFUmmfrsx/FhrYFuIuAAQGgBoQUqne2tnRPpzXM8ErOOUn4AVSqSe3xBa2hbYFWZ6NUBoAKBBH+yJftAzAWt8pbOvTZEySV8s9eyG4BNtwfYocQEQnL60tJRVALJBf7tR9qcGLpPeoO9+/5PlBbIBdxqAbKFEnYE/TlwAsoiBJQAAAIQGAABAaAAAAIQGAABAaAAAAIQGAABAaAAAACA0AAAAQgMAACA0AAAAQgMAACA0AAAAQgMAACA0AAAAEBoAAAChAQAAEBoAAAChAQAAEBoAAAChAQAAEBoAAAAIDQAAgNAAAAAIDQAAgNAAAAAIDQAAgNAAAAAIDQAAAIQGAABAaAAAAIQGAABAaAAAAIQGAABAaAAAAIQGAAAAQgMAACA0AAAAQgMAACA0AAAAQgMAACA0AAAAQgMAAAChAQAAEBoAAAChAQAAEBoAAAChAQAAEBoAAAChAQAAgNAAAAAIDQAAgNAAAAAIDQAAgNAAAAAIDQAAgNAAAABAaAAAAIQGAABAaAAAAIQGAABAaAAAAIQGAABAaAAAACA0AAAAQgMAACA0AAAAQgMAACA0AAAAQgMAACA0AAAAfM7EEhwao9HodDqzeQXi8XgwGDyo/xOHw2EyybbL+f3+ZDJ5gP9l6cuSvrIMLpf0T5X+wVr8os1ms91ul2trkR6ZPOSZTNJ+KPtmA4FAIpHIyA/hAP9qef/SQ/j5K8pisdhsNlk21dXVxQmO0CC/o4466tlnn83mFfjwww9HjBhxUP8nTzzxxLHHHivXP+CUU07ZsmXLAf6Xf/3rX1dVVakkbIV6dHZ2dnR07Nu3T/qfu3fv3txD+kQ7duw48NNPGgwbNuzee++Va2sLFy58+OGHM/VZDAbD0qVLTz75ZHk329jYePnllx/4t/bggw+eeeaZcv3tF1xwQVNTU5p/fVICPv7449WTG6688so77rhDlk2VlZVxgiM0AKr5yZlM7h59+vT52v+CdO5pa2uTTgMrVqxobm5etWqVdCnJusli3LhxsieG9vb28ePHx2KxrFpJl8t15513Tp48mZ2K0AAgk4xGY2WPiy++WNfzXEMKEB988MHbb7/90UcfZdvJSUYnnHDCpEmT5N2m9O1I29y+fXsWruf5559/11137dy5k10rq1AICaj7J2ow1NbWjh49+plnnvn0008XLlx47rnnWiwWVuagFBYWPvTQQ9JiyrvZBx988L333svaPVP6+OxahAYAKuVwOKTLu8WLF3/wwQcNDQ3l5eWsyYEwGo1S2MrPz5d3s2+++eYjjzySzQt77LHHVldXs4MRGgCoWk5OzsiRI19//fWnnnpKxuo2Ud16661HHXWUvNvcvHmztNlUKpXla8vNBkIDAM04+eSTn+3h9XpZja915plnjhkzRt5tRiKRsWPHdnZ2srzl5eVnnHFGxv8ZFRUVfBeEBgAH5Nhjj33ppZd+8pOf9OrVi9X4ouLi4vvuu0/2zd5xxx3Nzc0s77/deeeder0+s/8GGVuJgNAAZIWLL774jTfeuOCCC1iKf7NYLIsXL/Z4PPJu9rnnnpMiGsv7uYKCgquvvpp1IDQA0Jjc3NyHHnpIurZWoumh5syePbumpkbebS5fvnzevHms7f+49dZbZWw3CUIDgPS55JJLXnjhhf79+2fzIlx00UXDhw+Xd5sdHR3jx4+PRqPsY/9DCqlSbmAdCA0ANGno0KG/+93vKisrs/PjDxkyZP78+fJuM5lMTp48edu2bexdX+vaa6/N8nE8hAYAGlZQUPD8889/5zvfycKr3kWLFsn+gGbhwoXvvPMO+9U3MZlMd999N+tAaACgVR6P54knnsi2HlA//vGPZf/Iy5Ytk4IIe9T+nXfeef369WMdCA0AtCovL+/pp58uKCjIks975ZVXDhs2TN5tbt68ecqUKfRx+lZ6vT6DI0xBaICqbd26lUXQBOnib/HixdlQ3F5bWztr1ix5txmJRMaNG0cfpwN05JFHSt8C60BoAL6ko6Pj3nvvZR204qijjpo4caLYnzEnJ0fKRmazWd7Nzp49u6mpiV3owD300EMsAqEB+JIf//jHu3fvZh00ZOzYsQIXRer1+vvuu6+oqEjezT7//PO//e1v2XkOyuDBg8866yzWgdAA/Mfbb79NRzzt/dQNhgULFhiNRiE/3Q033CD7BIQVK1bMnTuXPefQLioy3lgahAaoQiAQ+NGPfsQ6aFFVVdUVV1wh3uc65phjpk6dKu82Ozs7J0yYQB+nQ5Ofn3/NNdewDkKi8ScOzr333kt/m4aGhlAodEA/MJPp3w0DpAsvj8fjdrtzcnKkQ2r//v379u3rcrnS/C+/+eabX3zxxXA4LMx30bt374cffljeOyipVGry5Mlbtmzh937IpBj3y1/+Mh6PsxSEBnTbuHHjggUL1PwvlE5IkyZNkvcm4UcfffSrX/2Kb/+VV17p6uo6/O0UFhZWVFRUVVVJ18pHH310GjKEdIq97LLLnnnmGTG+CCkrPPjgg3369JF3swsXLnz77bfZzw+HlJVnzJghe19OEBq0aseOHU899ZSa/4Vz586VNzFEIhHpKMDb6jLa2eOdd955/PHHpfPfscceO2zYsPPOO0/R9HDddddJl4DJZFKABZRi8fHHHy/vNv/+97/Tx0kWV1999UMPPeTz+VgKkVDTICbp9HPVVVfJu03pkm7Dhg2srUISicT7778/ffr0E0888e677967d69Cf1FxcfEpp5wiwIpJn2L8+PHybnPLli1TpkwRI1FlnJSDeTGb0AANsNvtd911l7zbXLly5c9+9jPWNg38fv/SpUvPOOOMZ555RqH7OhdffLHWV6l///4PPPCAvNuMRqPjxo3r6OhgJ5TLWWedNWDAANaB0ABVmzx58qBBg+S9CL711lul/8napo3P55s7d+7o0aNlKZ746qFc9nlO6WQ2mxctWpSbmyvvZmfPnr1q1Sr2PRnRWJrQALX7zne+c91118m7zcWLF7e0tLC26bds2bKLL754586d8m7WYrGceOKJ2l2WmTNner1eebf5Qg92Odkd0YN1IDRAjaSTwd13320wyPm1tra2LlmyhLXNlA0bNowaNSoYDMq72dNOO02jC/J///d/I0eOlHebTU1NDQ0N7GwKkf1BEggNkMf48eOHDBki4waTyeTtt98ei8VY2wxas2bNnDlz5N3mscceq8WlGDx48D333CPvNjs7O8eNGxeJRNjTFDJw4MDzzjuPdSA0QF2qq6vHjh0r7zZ/9rOfNTY2srYZ9+KLL8rbOaCkpERz87JtNtuSJUvkrcZIpVJTpkzZvHkz+5iiFixYQGNpQgNUxGg03nXXXfL2xdu4cSMD69Tjvvvuk/dlCs2NMJ4/f35FRYW821y0aNGyZcvYu5SWm5s7evRo1oHQALUYM2aM7OeAGTNmHGCzZKRBU1PT+++/L+MGKysrNfTxL7vssksuuUTebb799tsLFy5k10qPyZMnyz64HIQGHIqysrJJkybJu81nn332ww8/ZG1VRd7hovKWvyiqqqpK9qqOrVu33nLLLfRxShubzXbHHXewDoQGZPorNBjuuusui8Ui4za3b98ue7kZDt+bb74p40muqKhIE5/a7XYvXrzYarXKuM1oNDp+/Hj6OKXZ8OHDPR4P60BoQCaNHDnyyCOPlHeb0gWB3+9nbdXG5/M1NTXJtTVNtOrT6/VSfpW3WZmuZzLLihUr2KPSzGg03nfffawDoQEZU1xcPHXqVHm3+fvf/57SMNX67LPP5NqUJt6euPbaa8855xx5t/niiy8+//zz7EsZccYZZ0hHLdaB0IDMXITdeeed8r6BtnfvXqbZqtmmTZvk2pTFYrHb7Wr+sEccccSMGTPk3WZTU9Ps2bPZkTJ41KL4lNCAzLj88stPOOEEebc5Z84cHvRmSWiQ5OTkqPaT5uXlLV68WN63iLu6usaNGxcOh9mRMqi+vl72J6ogNOBbFBYWTp8+Xd5tvvHGG6+++iprq2byzq8ymUwqPTAZDA8++KC0k8u7Wfo4qcT999/PIhAakFbz5893u93yno1mzZrFwqqcvEMoVDvrcsKECd/73vfk3eaiRYveeustdqHDJMv7O8XFxRdccAGLSWhAmlx44YVnnHGGvNtcsGDB7t27WVuVk3dAuTrvNJx44ok333yzvNt85513eJQuC7lmrs6ZM4fG0oQGpEOvXr1kvyXw7rvvyts4CAqR9xl/NBpV2wcsLCx86KGH5J3Uun379ltuuUXevJW1tm3bJkvZU25uruyzckBowNcn9Ly8PBk3GAwGZ86cKe9cAyjk/9m776Co7q+P4yGIMIudWGL7oSKW6CTEODK2GNEYB80IRmUsxCgaBAVBYQEBV6RrjCg6GlussUSNjC3BMhobo4KFsYw1EgsqiiiI1Oc+OpNfnjyJETh72fJ+/ZFxJnB29+xl7+fevfd8Zb9QMLRLAmvUqLFw4UIlFgvWLC4u9vX1ffz4MRuPiJKSksWLF4uUmjx5MoOlCQ3Qr/79+7u6usrWnDNnzu3bt+mtUVCOzwSrGdp60EFBQeLX1UdFRbFSq6w1a9aIXE9qbW0tPh0chAb8V506dcSHKJw6dWrdunX01lg0bdpUsJpB3V776aefii+EuH379g0bNrDZyCouLpa6/WHYsGGyORiEBvxXREREw4YNBQsWFRWFhoayZo8REZyml5+fr3z6G8jratmyZWJiomzNS5cusUKSnuzcuTMzM7PqdSwtLbn9ktAAvejVq5f40sBJSUnXr1+nt0ZEcAH0u3fvGsiLsra2XrRokfgtxJMmTWKOk56Ul5fHxsaKlPr444/t7e1pKaEBkjQaTVxcnGxN5UBh2bJl9NaIKIdl7733nlQ1w7mQJTIysmPHjrI1p0+fLjs9E3+RlpYmMveCwdKEBsjTarXvvvuuYMHS0tLQ0FBuQjMuXbt2tbGxkar222+/GcKLcnNz8/DwkK25ePHi/fv3s8HoW0JCgshniBKFu3XrRj8JDRDbVYwaNUq25pIlSwQXWYY6ZNd7vHz5crW/orZt24pf23vs2LH58+eztajgypUrW7duFSnFktmEBsiwtrZW4rzs6LSrV68mJyfTW+NiY2MzaNAgUwoNGo1m8eLFsittPnv2zN/fn1NoqlHymciFI82aNXNzc6OfhAZUVUBAwH/+8x/BgmVlZSEhIQY4ChCv5+7uLjj1SNkAqv1UU3x8fOvWrWVr1qpVq0OHDmwtqsnOzl6xYoVIqcjISAZLExpQJZ07dx4/frxszdWrV2dkZNBb46IcjsvO3D1//nz1TnYaM2aM+JiyP/Y9Brt6p0launSpyMDNOnXqiK85AkKDGbGyspozZ47sEP6srCzuijZGvr6+smOdjh49Wo0v5/33358xY4aeijs4OIwdO5ZtRjX5+flJSUkipZRkXLNmTVpKaEBl+Pj4tG3bVrZmSEjI8+fP6a1xcXZ2njhxomzNalwkul69egsWLNDrogN+fn6NGjViy1HNhg0bRAZLK4khOjq6Er9oaAPRCQ1QW7t27ZSDS9mamzZtOnHiBL01Li1atEhOTpZd3DI7O/v8+fPV8nKsra3nzp3bvHlzvT6Kra1tcHAwG49qSktLpQbJDBkyxM7OrqK/xVhbQoNZU/YQiYmJ4vsJqQluUE3Lli3XrFkju6ipYseOHdW1qOnXX3/9ySefqPBAbm5u4mtf4TV+/vlnkUtrlc+9efPm0U9CAypg/PjxgtOCXwkPD3/27Bm9NSK9evXaunWrkhvEK2/bts0cGqjT6WSTN15v5syZInV69OjRpk2bCv1KSUkJ/Sc0mKlWrVoFBATI1kxJSTlw4AC9NRYajSYkJGTVqlWC91j+IS0t7cqVK+bQxo4dO4rPmsRrpKenK1tX1etUYrA0oYHQYK7vx9tvx8fHy14//PjxY/Ghe9ATKyur4cOH79u3b8KECXq6Z33lypXm089p06aJf7lj5l6/WYaFhYl889W+ffvu3bu/+c9zfTehwUyNHj36o48+kq2p0+kePXpEbw1cmzZt/P39jxw5EhcX17hxYz09yoULF8xqUYa6desquYGtS9DrZ2DcvHkzNTVV5IEqNFiaMw3qbQC0wHA0b948KChItqZyzLpz5056a5iUg+AuXbp07dq1d+/ejo6OKjxiUlJSdV0CWV08PDw2btyYmZnJ9ibiXy8TCQ8Pd3FxqfrVJE2aNBk+fPjmzZvf5IeLi4t5awgN5sXCwiImJkaj0QjWfPr0aWRkJL0V98knnxQUFFToV6xfqlevnp2dXcOGDVu0aOHg4KDymfNjx44pIdIM/7J0Ot2wYcPMLS1Vy5kGRU5Ozvr16z09Pav+WGFhYVu2bHmTN05k/QsQGozJF1980bNnT9masbGx2dnZ9FacMd4SphyKzZo1yzzfLycnJ3d3d6n1GDnT8K8/k5iYqKS0qi9FVrt27cDAwDcZYstwJ9VwTYNBaNy4sfhUXeWwUgnp9BavLFy48OrVq2b78rVarbIHYjNQ4UzDWy8vS5QaLD1hwgRra2vONBAa8H9ERUXJfqIVFBRIXcYME5Cenr5kyRJz7oCdnZ2/vz9bgjpnGt56eZOOyCpWVlZWbzJrksXQCQ1mZNCgQf369ZOtOW/ePJFR8DABubm5U6ZM4VPV09NTnatNCQ2v9uJSs54GDx78zjvv0HlCA/5XgwYNdDqdbM2MjIzVq1fTW7z18lY0b2/ve/fu0Qplbye1GzPrfcYbr7u7a9euW7duiTyi1JcdIDQYvcjISNlL6IuKirRaLcu34JWgoKCTJ0/Sh1ecnZ1dXV3pgzqhQREYGCjyoN26dXNwcKD5hAZz169fv8GDB8vWTE5OvnbtGr3Fq0iakpJCH/4sLCxM9sZmc1OhAQwZL1X9QS0sLN7kHgoQGkxZnTp1oqKiZGteuHDBzK93wytlZWUzZsxYv349rfiLJk2a+Pj40Ad1zjS8OtkgckV2p06d2rdvT/8JDWZ9xCM7Lbi0tFSr1XK9GwoLC/38/DZu3GgCr+XFixcbNmyQrenl5WVvb892UumD/gr9/K1bt6RGis2dO5f+ExrMVK9evYYNGyZbc+nSpSLr2cOo3bt3b8SIEXv27DGNlxMeHq7T6WQnTFhZWUVERLCpVE4l5kOHhISIHMx06NDBycmJt4DQYHY0Gk10dLRszevXrycnJ9NbM3fgwIFBgwaZzDoL69ev37Ztm7K/iYmJka3cp08fFxcXNhh15Obmrlu3TqRUQkIC/SQ0mJ2goKDmzZsLFiwvL9dqtQxSNWf5+fnK0fPEiRNFJuoYgjNnzvyxpPvhw4cPHjwoW19p15uMGoTUzl5k9eo2bdr07duXfhIazEjXrl3HjBkjW3P16tXp6en01mzt3bv3s88+27Bhg8nMAM3JyfH19f3z0oUxMTGyyx+3aNHCy8uLjUcdyiGN1KyFWbNmVX0JTRAajINyZBMbG1vRK4le7/fff+dmJLN19uzZUaNGKfvXO3fumMyLKisr8/Pz+8tAqhs3boiPLPPx8WnWrBlbUYVUeoe9YsUKkdNgTZs2HTp0KG8EocEsTJ06tXXr1rI1Z8yYUdFlmmEaccHb21v59Dxx4oSJvbTExMS/fVELFy589OiR4APZ2NiEhoayLamWBSMjI0VKabXaqi+hCUKDoevcufP48eNla27ZsuXIkSP01nyUlJTs3r3bw8PD3d09NTXV9NYk27t37/Lly//2fz19+lR8UfKBAwf26NGD7UodyqYrMli6Xr1648aNo5+EBlNWo0aNhIQE2a/isrOzY2Nj6a2ZOHfuXHR0dPfu3adMmWKqk6GvXbsWHBz8miS0adOmixcvyj6ocvj7Jss9Q4TUYGlvb+8GDRrQT0KDyfL19W3Xrp1szZkzZ+bl5dFbE1ZYWHj48OGoqKjevXu7ubmtWrUqJyfHVF9sQUGBj49Pfn7+a36mrKzsj1sqpDg4OIwdO5aNTR1Sg6U1Go2fnx/9rIYDYFqgAkdHx0mTJsnW3LVrV2pqKr01Pbdv31YOps+cOZP+0p/vIDBtwcHBbzLEKS0t7dXdIoIPrex+UlJS7t+/z+angoCAgIMHD1b9evCRI0d+//33N2/epKWEBpNiaWmZmJhoZWUlWDM3N1d8QW2o7NGjRzk5OdnZ2Q8fPrx79+61a9eUXabyX/O8rHX58uVvPsUyPj6+b9++NWvWlHp0W1tbJbJMnz6dzVIFWVlZ+/bt69+/f9U/WpV3jZVECA2mZty4cZ07d5atGRUVJXsZOSrEw8Pj9WfR/7/y8vKnT58q/3j1jZLyb9O7hrHS0tLSlGBdob3OihUrZM/eubm5/fDDD6dPn+btUIGysz916lTVr/EaMGDAhx9+yJQaQoPpsLe3DwgIkK158ODBHTt20NtqdPnyZa4mkZKdne3n51fRtQkWL148dOjQRo0aCT4TnU43ZMgQlnxTgfLns379ek9Pz6qXCgkJGT58OC1VDRdC6pGFhUV8fLzsqFrlAHfGjBn0FqahpKTE19f34cOHFf3FgoKCOXPmyD6Zjh07enh48KaoIzY2trCwsOp1unTpMmDAAPpJaDAFo0eP7tq1q/hfmnJkRm9hGqKjoyt9Lf327dvPnTsn+3ymTZtWv3593hcVFBcXz58/X6RUUFDQ22+zLyM0GLmmTZsGBwfL1kxLS9u0aRO9hWlQ9vpr166t9K+Xl5eL335Zt25dJTfw1qhj+fLlIoOlW7Vq5ezsTD8JDcYtLi5Oo9EIFiwsLNRqtVw9B9Nw6dKl8PDwKhZJT09PSUmRfWIeHh6dOnXiDVKB8mkmNVi6X79+9JPQYMSGDh3as2dP2ZrffPNNVlYWvYUJyMvL8/b2FvlKOyEhQaTOHywsLHQ6neyqcvgnUoOla9WqRTMJDcaqYcOGERERsjXPnDkjvsQfUF3Hl4GBgVIJ+N69e0uWLJF9hk5OTu7u7rxT6pAaLA1Cg7GKjo6uXbu2YMHi4uKQkBDuBINpSE5OPnjwoGDBZcuW3b17V/ZJarVa2b9i/JOMjIyzZ8/SB0KDmXJ1dRX/dk35kL1y5Qq9hQk4evToggULZGsWFhbGxcXJ1rSzs/P39+f9UofSaq7WIjSYo3r16s2aNUu25sWLF8XPvgLV5fTp02VlZeJld+/eLT7M0dPT09HRkbdMBVlZWfv376cPhAazM3PmTNmbvEtLS0NDQ0tKSugt8BrKcWpUVJTs0aqlpaXyF01v1REUFMQ3sIQG89K3b9/PP/9ctuaKFSvOnz9Pb4F/lZmZuXXrVtmazs7Orq6u9FYFeXl5DKEhNJiR2rVrR0dHy9a8ceOG1MQ0wBzMnTu3oguJ/auwsDDZgSv4JzqdTvbuWRAaDFdoaGjjxo0FC5aXlys1X7x4QW+BN/TgwYNFixbJ1mzSpAmLL6ujtLR04cKF9IHQYPq6d+8+YsQI2Zrr1q07efIkvQUqZNWqVeIz0Ly8vOzt7emtCpYsWZKbm0sfCA2mTKPRiN/udefOncTERHoLVFRRUVFMTIxsTSsrK/FxbfgnUoOlQWgwUNOmTWvevLlszbCwsIKCAnoLVEJqauqJEydka/bp08fFxYXeqmDXrl3Myyc0mKwuXbp8+eWXsjW3bdv266+/0lug0qKiosTv34uIiLC2tqa36hyJ0QRCgwlSPkHi4+NlF7Z5+PCh+F0YgLm5fPmy+P17LVq08PLyorcqOH36dGZmJn0gNJiaKVOmtG7dWvxo5smTJ/QWqKJ58+bl5eXJ1vTx8WnWrBm9VefTlcHShAaT0qlTp4kTJ8rW3LNnzy+//EJvgap7/Pix+CIXNjY2oaGh9FYFt27dOnToEH0gNJiIGjVqxMfHW1paCtbMzc3V6XT0FpCydu3aa9euydYcOHBgjx496K0KAgMDGSxNaDAR3t7eHTp0kK0ZHR398OFDegtIKSkpEb/98q2X9wQqhw20V9+ePHny448/0geDO2amBRXl6Og4efJk2ZpFRUXdXzKuVqSkpHCjBwzZoUOHDh8+3Lt3b8GaDg4OY8eOXb58Oe3Vt4iIiCFDhnDTCqHBiFlaWsbFxVlZWcmWrVmzpru7u9F148KFC4QGGLjZs2fv3btX9stEPz8/JTHfv3+f9upVaWnpokWLAgMDaYXh4OuJivnqq68++OAD+gAYi+vXr69du1a2pq2tbXBwML1VgRIauKGM0GCs7O3tAwIC6ANgXJKSkh4/fixb083NrUuXLvRWBbNmzaIJhAbjY2FhERsba2NjQysA45KXl/ftt9+Kl9XpdLLfeuBv7dix486dO/SB0GBkRo4c2a1bN/oAGKONGzdevnxZtmbHjh09PDzorQqmT59OEwgNRkar1dIEwEiVlpbOnj1bvOy0adPq169Pe/UtLS3twoUL9IHQYExsbW1pAmC8jh8/npqaKluzbt26rK6kDj8/PwZLExoAQD0xMTHFxcWyNT08PDp16kRv9e3GjRtHjhyhD4QGAFBJVlbWypUrZWtaWFjodDrZ1W7xt6ZOncpgaUIDAKhn0aJF4vPanZycjHE4m9HJzc396aef6AOhAQBUkp+fP2fOHPGyWq22du3atFffwsPDi4qK6AOhAQBUsm3btszMTNmadnZ2/v7+9FbflMSwdOlS+kBoAACVlJWV6eP2S09PT0dHR9qrb0lJSU+fPqUPhAYAUMmpU6d27twpW9PS0nLmzJn0Vt/Ky8tjY2PpA6EBANSTkJDw4sUL2ZrOzs6urq70Vt82b96cnZ1NHwgNAKCSO3fu6OPb8bCwMI1GQ3v1LSgoiCYQGgBAPd999534AWuTJk18fHzorb4dPXpUfDEREBoA4B89f/48Li5OvKyXl5e9vb2pNu3+/fsG8ky4XYXQAACq2rlzZ0ZGhmxNKyuriIgIU+1YTk6OgTyTK1euHD9+nG2Y0AAAKikvL589e7b4Skh9+vRxcXGhvfoWEBBQVlZGHwgNAKCSs2fPbt++XbxsRESEtbU17dWrBw8ebN26lT6oyaJ169Z0AQAA/CvONAAAAEIDAAAgNAAAAEIDAAAgNAAAAEIDAAAgNAAAABAaAAAAoQEAABAaAAAAoQEAABAaAAAAoQEAABAaAAAACA0AAIDQAAAACA0AAIDQAAAACA0AAIDQAAAACA0AAACEBgAAQGgAAACEBgAAQGgAAACEBgAAQGgAAACEBgAAAEIDAAAgNAAAAEIDAAAgNAAAAEIDAAAgNAAAAEIDAAAAoQEAABAaAAAAoQEAABAaAAAAoQEAABAaAAAAoQEAAIDQAAAACA0AAIDQAAAACA0AAIDQAAAACA0AAIDQAAAAQGgAAACEBgAAQGgAAACEBgAAQGgAAACEBgAAQGgAAAAgNAAAAEIDAAAgNAAAAEIDAAAgNAAAAEIDAAAgNAAAABAaAAAAoQEAABAaAAAAoQEAABAaAAAAoQEAABAaAAAACA0AAIDQAAAACA0AAIDQAAAACA0AAIDQAAAACA0AAACEBgAAQGgAAACEBgAAQGgAAACEBgAAQGgAAACEBgAAAEIDAAAgNAAAAEIDAAAgNAAAAEIDAAAgNAAAAEIDAAAAoQEAABAaAAAAoQEAABAaAACAwfsfAQYABkEyLTZf3QMAAAAASUVORK5CYII=;" parent="Fb7DKyUG0hWQXaiTz3AM-1" vertex="1">
          <mxGeometry x="337" y="43" width="83" height="98.66" as="geometry" />
        </mxCell>
        <mxCell id="nlwU2PpXcWKmxTWrh6bV-7" value="Zipkin: Trafiği izlememizi sağlar. Kendisine bağlı olan tüm mikroservislerin, kendilerine gelen ve birbirleri arasında olan tüm trafiğin izlendiği ve monitorize edildiği bir araçtır. Tüm sistemde olan iletişimin sürelerinin ve atamalarının takip edilebileceği bir araçtır." style="text;html=1;align=left;verticalAlign=middle;whiteSpace=wrap;rounded=0;fontSize=16;" parent="Fb7DKyUG0hWQXaiTz3AM-1" vertex="1">
          <mxGeometry x="427" y="43.66" width="397" height="99" as="geometry" />
        </mxCell>
        <mxCell id="nlwU2PpXcWKmxTWrh6bV-8" value="" style="sketch=0;points=[[0,0,0],[0.25,0,0],[0.5,0,0],[0.75,0,0],[1,0,0],[0,1,0],[0.25,1,0],[0.5,1,0],[0.75,1,0],[1,1,0],[0,0.25,0],[0,0.5,0],[0,0.75,0],[1,0.25,0],[1,0.5,0],[1,0.75,0]];points=[[0,0,0],[0.25,0,0],[0.5,0,0],[0.75,0,0],[1,0,0],[0,1,0],[0.25,1,0],[0.5,1,0],[0.75,1,0],[1,1,0],[0,0.25,0],[0,0.5,0],[0,0.75,0],[1,0.25,0],[1,0.5,0],[1,0.75,0]];outlineConnect=0;fontColor=#232F3E;fillColor=#E7157B;strokeColor=#ffffff;dashed=0;verticalLabelPosition=bottom;verticalAlign=top;align=center;html=1;fontSize=12;fontStyle=0;aspect=fixed;shape=mxgraph.aws4.resourceIcon;resIcon=mxgraph.aws4.config;" parent="Fb7DKyUG0hWQXaiTz3AM-1" vertex="1">
          <mxGeometry x="274.5" y="457" width="78" height="78" as="geometry" />
        </mxCell>
        <mxCell id="nlwU2PpXcWKmxTWrh6bV-9" value="Config Server: Tüm mikroservislerin konfigürasyonlarını üzerinde barındıran, bazen de farklı repolara bağlanarak ilgili konfigürasyon dosyalarını belli bir ip üzerinden yayınlayan servistir." style="text;html=1;align=left;verticalAlign=middle;whiteSpace=wrap;rounded=0;fontSize=16;" parent="Fb7DKyUG0hWQXaiTz3AM-1" vertex="1">
          <mxGeometry x="362.5" y="457" width="407" height="81" as="geometry" />
        </mxCell>
        <mxCell id="nlwU2PpXcWKmxTWrh6bV-10" value="" style="verticalLabelPosition=bottom;html=1;verticalAlign=top;align=center;strokeColor=none;fillColor=#00BEF2;shape=mxgraph.azure.github_code;pointerEvents=1;" parent="Fb7DKyUG0hWQXaiTz3AM-1" vertex="1">
          <mxGeometry x="770.5" y="465.5" width="53" height="55" as="geometry" />
        </mxCell>
        <mxCell id="nlwU2PpXcWKmxTWrh6bV-11" value="" style="shape=image;verticalLabelPosition=bottom;labelBackgroundColor=default;verticalAlign=top;aspect=fixed;imageAspect=0;image=data:image/png,iVBORw0KGgoAAAANSUhEUgAAAOEAAADhCAMAAAAJbSJIAAAAzFBMVEX/////ZgD6+vr+VgD61Lr9UgD88eb8///+XACjsKr/YAD+WQD9nmz7tZH7u5z/o4H84dHv8fDd3dituLP90r3a3938kmH7jlf959eir6n5qH3928X7fjr+i1j8wKX+aAr+n3e4wr38rYnj5+X++fT7r47I0Mz8o3b7ciTFysT869/7iU77y7n+SwDS2NXr7ez8yq/6kVn5bxz6eDH8gkXvp4bx4tX5bQH9hkz6v577yrP73sj7byL9f0H7mWT8uJb927/6jUn5fC/5sYb+z13EAAAJ70lEQVR4nO3daXuquhYAYJAtxhVrsc7DLq3iUOxg1XOqHe+9+///pxtCmBQJ3dqKfdb60FYEm9eEZDErCgYGBkYGwqr1++fb0S93lUJOGkrBXsctfn4+048tE3FpaoRATJD8wpARrYL+SGnc0gCadm4dG+dEQ1N3BuTXEmLBVsnu5ck8A9VYouBQdpWR1pKJtrlzUf4VzY/tU7o0qYCsiAs9sQrfE2qQ12Ln2MJmYhU4lXibVIm2KVlcVXNHFuZlBSSlBGFhJmkCqprvHhdoSYUwTRKeSRopawPr4wpb+wqldUjKxxXqX16HKEQhClGIQiZsohCFKEQhClGIQhSiEIUoRCEKUYhCFKIQhShEIQpRiEIUohCFKEQhClGIQhSiEIUoRCEKUYhCFKIQhShML9RmKDy6sGclCB9lF4ap0M+6UIXuzkosGNKlVVgc9zrSNMKetYNYsJbSKmTN9CzrQpUsWoXYaE2ka6HzDdHxMWsxjVAF0hsP+x0W4/G45Mcyn6IG+VdkNkt/GWe1fb+dVEJmBBJzuXc6HziL/21QOql9i/CIAeTjhwtZIzd+uhCWP12o3u3T25yEUPuFQhRmPVCIwuwHClGY/UAhCrMfKERh9gOFKMx+oBCF2Q8UojD7gUIUZj9QmBFh3B3DSbrjyCchpNCvtbaidjaX3sNWPQkh7LyZcOFy963E/ci+EOYJx6mN5Fuen4gw8YbX8vOqMi8kkjPbPmTnHWVeOJcchrcWJy4kY1khxpJKzLpQfoLpLOH5EychlJbPkAyKmRdKHx1gnHodyoU/vw5RiEIUohCFKEQhClGIwi8X0h+/bSEXyp7fl3WhfBv/1IVUKlyfuBAaskKMJfuEsy5UVTu5DLZs+cwL4TG5DLKdidkXqvQyqQhryVhxCkI16SLJtfxa4hMQqvStFfvvC8Y0xQHEUxCqAJN/Lm9vLyNx25mQNAeBT0LIghBKSSRoKt/pCP8+UIjC7AcKUZj9QCEKsx8oRGH2A4UozH6gEIXZDxSiMPuBQhRmP1CYLJQe2spAYB0mhnUSwvhDcynj6djFTxHaPkClnOYSx+OG/LKi5FimuWP1MQPMPW8HrS+yXYvE3Os2wjz6Zl7LauRJSd8bqCiFf39lNV4KB/BhYGBgfE/oInKJc1n61tib07c688KOz8lZLGI+NDo1NxjdjEYP0hJ/Mow7MfyYT6Xa7v55ereVP9Xu6ObZo/addhf3xIaLNovB5tR7Z2rFe5W7aRedaBfrnyh+ijCoCpSfhQVAJzvPPG/Qq81JNWpuVqJOVBIrdIo+2pxaZROrnnDAfW3nZ/vmMwBpGBSaZ8PhsN9YUACy63TQBrnanBQnpKDtFF5vTKwUQ8KB83f9oVIZXLO/Dko0KBGPu7G6K6LCjkwwpXD1e+V9gB56is5FscoKvrGG3jOJJ6xUi+2ReP+C1e395xCJwepw6L/oAKziZ0snDH/uYhK8YML6VrGvi9ULT3gTbsSsPqvJ/d6nIiK0FkDjS/1p4VjrBS8cSXWjmeYYaiCED6wNh0yjg1ZiRKj8ITsuc/m0sEOjwtxNsR2pGFZTg7oQsiYc7kDZt1FNUfSUERXOKIm/CGR/YT2qYA2zqghhblPExIcbFqPCGtnRm+4vzEWbKXt54wnZSBEdSuoxY8tfR1S4pvRZ/Gk/9zud8ot45QqNcqff9dIQV6iz2Wb+yK+3+J92yy6Rnm7bdkv3hE7PEmqmD87ILoT3m+sde3NzbDmUsASaa7KnKqGU5QEiCXCEesM5Xxt6RkhYNp3ZVG9kGJPf7GcBVFNVVZMF6QhhhTnaoaY3clZLIWQ9aTThYRVc/Bphi5WLV5HBMhxz9T59ZamO4QrPrTcKb+8LNqXmCz8off09ZVnRu/sBHeoK+VO9+IO3xr6w0g6N5G6bFcJqkNqId6+L7eiUAwmt3+B+52zUIO9Oe9P7FJYWF/Y72rxmKVaZFd52hfP/5GGsFxSjB+Ipea5Q6RqtElm0DBa2L3QgfjNl7fDeE+a2hMoXCe0VwIRX4bMGXj9xBfy5WQ3yX1PcmKxMyLsrNHsCZoG4hksIle2epqJEmilb9Sph4cYIf73ZbvcT8lK2fjUIkInbZ5Tyee94gU34LeUaAJrog3JvQFpcGDxS65K4lZ8orIR6yGs+PuwUbq2ZewlZl6CaRNMAnjriHxmzmb/h9kQ7rtDP59YUPlyhnx5Ypvu8ykRhqJkKbN2Tf7XQfd4fvMVeLLjUnHuuNSC4HlR3665GYeJvUL4DOEsnC/1E2xnwHpTvEy5KjUajOWcbT52YGZpCSHy/9QZqgQuD+VkznSky4YOf1oix8ZtaqehprNoE4g6EPAph6OZyDdB0R0ie/UksGXJmSxYqXlrDEk++Rn5XT+Pd+c9+BRLOuy3LNrq1JeVCEtqs6oBzWI8JX4KPcb8didBrpnUB+K7Rwr+34ZpAKXhjuGJilsMQVxi6aJkJDd5Kg8OXLTWNcCCa6UhUWtKIf7AtxLBQf4VXr8SrPBVX0AnhVbBMh+d2EaFtQlORCkX2zbNuJ4RwtJW1FYvtw/CUqFD5DaLQNQJ0/vHi7C+cattC4rbSkDBdKxXNdFAUO96CzPsiUqhDZ96B8Iy4OWeLqNpajAT/c8dD0gyWuQLN5sLIethR5EK2nXQRNNKdW0/3B956CoRdcF+w9Mbfj2QKYc/vS60VEGdJ8XXwuAWyVuTCHO9E/Z1p37UFHAhtleejLPH2Dy/bbj42JOAL9Tk88ZlD12mPge8olQn5ln0wLIb2YoRXRDbDYfdiBEI2lpsF3m34xeu7zW+mBTtwam6Xy74H/0mvhQmY8pyGm4qVEc+63Vd+Hxte764PvScqdCfcMTh76plwISa0QOVCXQsGkia42hKAtxuDod9dlyf8Ey9kY/39tc/xhFFT/eB7E0PCNd8TxWpHdJPO3ZrdrYYeeDc9noGo4Wfqq+ciCQ+EZaoGe3ECoZOvBRpfyNqlv0eYdTMHPXQRFYpXJaKaL4Vcq8M2GKe8p3F6Tnf7cMbMwtoDnu8o+pKIhCAQdsXG9KbQKb+fr9SD1uscsLgZDAajKj/EYVUqgwN1NlEh2wqaKny0UDVC2QYVtd28lDVglt08Xg4XNLgHuc1GzcnwssR+iZ62Qzyhs3O593FZ+rMhrLRD61wgVAbVYhBV56hU+0ADhnGXDwvf8nnn97P7OHVtqSvLO1EXQ/dOAdQM8u3Wk+ZMIsRrraU7P319cd4jeXdPVDtIy67bbX+VYzUXpGujarsYjvaBBn1rNgufHNedzfjqYPeni9VVl0/xjrW0zqaLt9IsclDzsrHsNfv+JxizIHXXy43FYsl3v+YGD37XURkMgmOGg0i2Vnmoh+NgufeuiD9qm2q24L09z9rCwMDIfvwfYMlZAJDi/DIAAAAASUVORK5CYII=;" parent="Fb7DKyUG0hWQXaiTz3AM-1" vertex="1">
          <mxGeometry x="631" y="258.5" width="104" height="104" as="geometry" />
        </mxCell>
        <mxCell id="nlwU2PpXcWKmxTWrh6bV-12" value="" style="aspect=fixed;sketch=0;html=1;dashed=0;whitespace=wrap;fillColor=#2875E2;strokeColor=#ffffff;points=[[0.005,0.63,0],[0.1,0.2,0],[0.9,0.2,0],[0.5,0,0],[0.995,0.63,0],[0.72,0.99,0],[0.5,1,0],[0.28,0.99,0]];shape=mxgraph.kubernetes.icon2;kubernetesLabel=1;prIcon=pod" parent="Fb7DKyUG0hWQXaiTz3AM-1" vertex="1">
          <mxGeometry x="806" y="200.5" width="50" height="48" as="geometry" />
        </mxCell>
        <mxCell id="nlwU2PpXcWKmxTWrh6bV-13" value="Sale" style="text;html=1;align=center;verticalAlign=middle;whiteSpace=wrap;rounded=0;fontSize=16;" parent="Fb7DKyUG0hWQXaiTz3AM-1" vertex="1">
          <mxGeometry x="801" y="249.5" width="60" height="30" as="geometry" />
        </mxCell>
        <mxCell id="nlwU2PpXcWKmxTWrh6bV-14" value="" style="aspect=fixed;sketch=0;html=1;dashed=0;whitespace=wrap;fillColor=#2875E2;strokeColor=#ffffff;points=[[0.005,0.63,0],[0.1,0.2,0],[0.9,0.2,0],[0.5,0,0],[0.995,0.63,0],[0.72,0.99,0],[0.5,1,0],[0.28,0.99,0]];shape=mxgraph.kubernetes.icon2;kubernetesLabel=1;prIcon=pod" parent="Fb7DKyUG0hWQXaiTz3AM-1" vertex="1">
          <mxGeometry x="809" y="324.5" width="50" height="48" as="geometry" />
        </mxCell>
        <mxCell id="nlwU2PpXcWKmxTWrh6bV-15" value="Product" style="text;html=1;align=center;verticalAlign=middle;whiteSpace=wrap;rounded=0;fontSize=16;" parent="Fb7DKyUG0hWQXaiTz3AM-1" vertex="1">
          <mxGeometry x="804" y="373.5" width="60" height="30" as="geometry" />
        </mxCell>
        <mxCell id="nlwU2PpXcWKmxTWrh6bV-16" value="" style="aspect=fixed;sketch=0;html=1;dashed=0;whitespace=wrap;fillColor=#2875E2;strokeColor=#ffffff;points=[[0.005,0.63,0],[0.1,0.2,0],[0.9,0.2,0],[0.5,0,0],[0.995,0.63,0],[0.72,0.99,0],[0.5,1,0],[0.28,0.99,0]];shape=mxgraph.kubernetes.icon2;kubernetesLabel=1;prIcon=pod" parent="Fb7DKyUG0hWQXaiTz3AM-1" vertex="1">
          <mxGeometry x="500" y="198" width="50" height="48" as="geometry" />
        </mxCell>
        <mxCell id="nlwU2PpXcWKmxTWrh6bV-17" value="Auth" style="text;html=1;align=center;verticalAlign=middle;whiteSpace=wrap;rounded=0;fontSize=16;" parent="Fb7DKyUG0hWQXaiTz3AM-1" vertex="1">
          <mxGeometry x="495" y="244" width="60" height="30" as="geometry" />
        </mxCell>
        <mxCell id="nlwU2PpXcWKmxTWrh6bV-18" value="" style="aspect=fixed;sketch=0;html=1;dashed=0;whitespace=wrap;fillColor=#2875E2;strokeColor=#ffffff;points=[[0.005,0.63,0],[0.1,0.2,0],[0.9,0.2,0],[0.5,0,0],[0.995,0.63,0],[0.72,0.99,0],[0.5,1,0],[0.28,0.99,0]];shape=mxgraph.kubernetes.icon2;kubernetesLabel=1;prIcon=pod" parent="Fb7DKyUG0hWQXaiTz3AM-1" vertex="1">
          <mxGeometry x="505" y="332.5" width="50" height="48" as="geometry" />
        </mxCell>
        <mxCell id="nlwU2PpXcWKmxTWrh6bV-19" value="User" style="text;html=1;align=center;verticalAlign=middle;whiteSpace=wrap;rounded=0;fontSize=16;" parent="Fb7DKyUG0hWQXaiTz3AM-1" vertex="1">
          <mxGeometry x="501" y="375.5" width="60" height="30" as="geometry" />
        </mxCell>
        <mxCell id="nlwU2PpXcWKmxTWrh6bV-21" value="Clus&lt;span style=&quot;background-color: initial;&quot;&gt;ter IP&lt;/span&gt;" style="sketch=0;outlineConnect=0;fontColor=#232F3E;gradientColor=none;strokeColor=#ffffff;fillColor=#232F3E;dashed=0;verticalLabelPosition=middle;verticalAlign=bottom;align=center;html=1;whiteSpace=wrap;fontSize=10;fontStyle=1;spacing=3;shape=mxgraph.aws4.productIcon;prIcon=mxgraph.aws4.network_load_balancer;" parent="Fb7DKyUG0hWQXaiTz3AM-1" vertex="1">
          <mxGeometry x="362.5" y="223" width="61" height="87" as="geometry" />
        </mxCell>
        <mxCell id="nlwU2PpXcWKmxTWrh6bV-22" value="" style="aspect=fixed;sketch=0;html=1;dashed=0;whitespace=wrap;fillColor=#2875E2;strokeColor=#ffffff;points=[[0.005,0.63,0],[0.1,0.2,0],[0.9,0.2,0],[0.5,0,0],[0.995,0.63,0],[0.72,0.99,0],[0.5,1,0],[0.28,0.99,0]];shape=mxgraph.kubernetes.icon2;kubernetesLabel=1;prIcon=pod" parent="Fb7DKyUG0hWQXaiTz3AM-1" vertex="1">
          <mxGeometry x="550" y="226.5" width="50" height="48" as="geometry" />
        </mxCell>
        <mxCell id="nlwU2PpXcWKmxTWrh6bV-23" value="Auth" style="text;html=1;align=center;verticalAlign=middle;whiteSpace=wrap;rounded=0;fontSize=16;" parent="Fb7DKyUG0hWQXaiTz3AM-1" vertex="1">
          <mxGeometry x="545" y="272.5" width="60" height="30" as="geometry" />
        </mxCell>
        <mxCell id="nlwU2PpXcWKmxTWrh6bV-24" value="" style="aspect=fixed;sketch=0;html=1;dashed=0;whitespace=wrap;fillColor=#2875E2;strokeColor=#ffffff;points=[[0.005,0.63,0],[0.1,0.2,0],[0.9,0.2,0],[0.5,0,0],[0.995,0.63,0],[0.72,0.99,0],[0.5,1,0],[0.28,0.99,0]];shape=mxgraph.kubernetes.icon2;kubernetesLabel=1;prIcon=pod" parent="Fb7DKyUG0hWQXaiTz3AM-1" vertex="1">
          <mxGeometry x="455" y="229" width="50" height="48" as="geometry" />
        </mxCell>
        <mxCell id="nlwU2PpXcWKmxTWrh6bV-25" value="Auth" style="text;html=1;align=center;verticalAlign=middle;whiteSpace=wrap;rounded=0;fontSize=16;" parent="Fb7DKyUG0hWQXaiTz3AM-1" vertex="1">
          <mxGeometry x="454" y="282.5" width="60" height="30" as="geometry" />
        </mxCell>
        <mxCell id="nlwU2PpXcWKmxTWrh6bV-27" value="" style="edgeStyle=elbowEdgeStyle;elbow=horizontal;endArrow=classic;html=1;curved=0;rounded=0;endSize=8;startSize=8;fontSize=12;exitX=0.005;exitY=0.63;exitDx=0;exitDy=0;exitPerimeter=0;" parent="Fb7DKyUG0hWQXaiTz3AM-1" source="nlwU2PpXcWKmxTWrh6bV-22" target="nlwU2PpXcWKmxTWrh6bV-21" edge="1">
          <mxGeometry width="50" height="50" relative="1" as="geometry">
            <mxPoint x="465" y="408" as="sourcePoint" />
            <mxPoint x="449" y="279" as="targetPoint" />
          </mxGeometry>
        </mxCell>
        <mxCell id="nlwU2PpXcWKmxTWrh6bV-29" value="" style="edgeStyle=elbowEdgeStyle;elbow=horizontal;endArrow=classic;html=1;curved=0;rounded=0;endSize=8;startSize=8;fontSize=12;exitX=0.005;exitY=0.63;exitDx=0;exitDy=0;exitPerimeter=0;entryX=1.008;entryY=0.299;entryDx=0;entryDy=0;entryPerimeter=0;" parent="Fb7DKyUG0hWQXaiTz3AM-1" source="nlwU2PpXcWKmxTWrh6bV-24" target="nlwU2PpXcWKmxTWrh6bV-21" edge="1">
          <mxGeometry width="50" height="50" relative="1" as="geometry">
            <mxPoint x="445" y="388" as="sourcePoint" />
            <mxPoint x="495" y="338" as="targetPoint" />
          </mxGeometry>
        </mxCell>
        <mxCell id="c9-MkilAqd8dNqbarTHr-1" value="Cluster IP" style="sketch=0;outlineConnect=0;fontColor=#232F3E;gradientColor=none;strokeColor=#ffffff;fillColor=#232F3E;dashed=0;verticalLabelPosition=middle;verticalAlign=bottom;align=center;html=1;whiteSpace=wrap;fontSize=10;fontStyle=1;spacing=3;shape=mxgraph.aws4.productIcon;prIcon=mxgraph.aws4.network_load_balancer;" parent="Fb7DKyUG0hWQXaiTz3AM-1" vertex="1">
          <mxGeometry x="182" y="409" width="53" height="74.5" as="geometry" />
        </mxCell>
        <mxCell id="c9-MkilAqd8dNqbarTHr-3" value="" style="edgeStyle=elbowEdgeStyle;elbow=horizontal;endArrow=classic;html=1;curved=0;rounded=0;endSize=8;startSize=8;exitX=0.5;exitY=1;exitDx=0;exitDy=0;exitPerimeter=0;" parent="Fb7DKyUG0hWQXaiTz3AM-1" source="Fb7DKyUG0hWQXaiTz3AM-10" target="c9-MkilAqd8dNqbarTHr-1" edge="1">
          <mxGeometry width="50" height="50" relative="1" as="geometry">
            <mxPoint x="196" y="550" as="sourcePoint" />
            <mxPoint x="140" y="439" as="targetPoint" />
          </mxGeometry>
        </mxCell>
        <mxCell id="c9-MkilAqd8dNqbarTHr-4" value="" style="edgeStyle=elbowEdgeStyle;elbow=vertical;endArrow=classic;html=1;curved=0;rounded=0;endSize=8;startSize=8;exitX=0.5;exitY=0;exitDx=0;exitDy=0;" parent="Fb7DKyUG0hWQXaiTz3AM-1" source="nlwU2PpXcWKmxTWrh6bV-17" target="c9-MkilAqd8dNqbarTHr-1" edge="1">
          <mxGeometry width="50" height="50" relative="1" as="geometry">
            <mxPoint x="581" y="443" as="sourcePoint" />
            <mxPoint x="631" y="393" as="targetPoint" />
            <Array as="points">
              <mxPoint x="371" y="327" />
            </Array>
          </mxGeometry>
        </mxCell>
        <mxCell id="c9-MkilAqd8dNqbarTHr-5" value="" style="edgeStyle=elbowEdgeStyle;elbow=horizontal;endArrow=classic;html=1;curved=0;rounded=0;endSize=8;startSize=8;entryX=0;entryY=0.5;entryDx=0;entryDy=0;entryPerimeter=0;" parent="Fb7DKyUG0hWQXaiTz3AM-1" source="c9-MkilAqd8dNqbarTHr-1" target="nlwU2PpXcWKmxTWrh6bV-8" edge="1">
          <mxGeometry width="50" height="50" relative="1" as="geometry">
            <mxPoint x="292" y="604" as="sourcePoint" />
            <mxPoint x="342" y="554" as="targetPoint" />
          </mxGeometry>
        </mxCell>
        <mxCell id="c9-MkilAqd8dNqbarTHr-7" value="" style="edgeStyle=elbowEdgeStyle;elbow=vertical;endArrow=classic;html=1;curved=0;rounded=0;endSize=8;startSize=8;exitX=0.005;exitY=0.63;exitDx=0;exitDy=0;exitPerimeter=0;" parent="Fb7DKyUG0hWQXaiTz3AM-1" source="nlwU2PpXcWKmxTWrh6bV-18" target="c9-MkilAqd8dNqbarTHr-1" edge="1">
          <mxGeometry width="50" height="50" relative="1" as="geometry">
            <mxPoint x="385" y="384" as="sourcePoint" />
            <mxPoint x="333" y="449" as="targetPoint" />
            <Array as="points">
              <mxPoint x="360" y="395" />
            </Array>
          </mxGeometry>
        </mxCell>
        <mxCell id="c9-MkilAqd8dNqbarTHr-8" value="" style="edgeStyle=elbowEdgeStyle;elbow=vertical;endArrow=classic;html=1;curved=0;rounded=0;endSize=8;startSize=8;exitX=0.005;exitY=0.63;exitDx=0;exitDy=0;exitPerimeter=0;" parent="Fb7DKyUG0hWQXaiTz3AM-1" source="nlwU2PpXcWKmxTWrh6bV-12" target="c9-MkilAqd8dNqbarTHr-1" edge="1">
          <mxGeometry width="50" height="50" relative="1" as="geometry">
            <mxPoint x="520" y="184" as="sourcePoint" />
            <mxPoint x="570" y="134" as="targetPoint" />
            <Array as="points">
              <mxPoint x="782" y="382" />
            </Array>
          </mxGeometry>
        </mxCell>
        <mxCell id="c9-MkilAqd8dNqbarTHr-9" value="" style="edgeStyle=elbowEdgeStyle;elbow=vertical;endArrow=classic;html=1;curved=0;rounded=0;endSize=8;startSize=8;exitX=0.995;exitY=0.63;exitDx=0;exitDy=0;exitPerimeter=0;" parent="Fb7DKyUG0hWQXaiTz3AM-1" source="nlwU2PpXcWKmxTWrh6bV-14" target="c9-MkilAqd8dNqbarTHr-1" edge="1">
          <mxGeometry width="50" height="50" relative="1" as="geometry">
            <mxPoint x="507" y="462" as="sourcePoint" />
            <mxPoint x="557" y="412" as="targetPoint" />
            <Array as="points">
              <mxPoint x="536" y="406" />
            </Array>
          </mxGeometry>
        </mxCell>
        <mxCell id="c9-MkilAqd8dNqbarTHr-10" value="port:&lt;div&gt;8888&lt;/div&gt;" style="text;html=1;align=center;verticalAlign=middle;whiteSpace=wrap;rounded=0;" parent="Fb7DKyUG0hWQXaiTz3AM-1" vertex="1">
          <mxGeometry x="174" y="379" width="32" height="30" as="geometry" />
        </mxCell>
        <mxCell id="c9-MkilAqd8dNqbarTHr-12" value="port:&lt;div&gt;8888&lt;/div&gt;" style="text;html=1;align=center;verticalAlign=middle;whiteSpace=wrap;rounded=0;" parent="Fb7DKyUG0hWQXaiTz3AM-1" vertex="1">
          <mxGeometry x="242.5" y="502" width="32" height="30" as="geometry" />
        </mxCell>
        <mxCell id="a-xvFh-tDh5HoAEaao9C-3" value="10.84.0.20" style="text;html=1;align=center;verticalAlign=middle;whiteSpace=wrap;rounded=0;fontSize=16;" parent="Fb7DKyUG0hWQXaiTz3AM-1" vertex="1">
          <mxGeometry x="634" y="238" width="90" height="30" as="geometry" />
        </mxCell>
        <mxCell id="XmkVBD9lLCRrO0M9YFTc-1" value="Clus&lt;span style=&quot;background-color: initial;&quot;&gt;ter IP&lt;/span&gt;" style="sketch=0;outlineConnect=0;fontColor=#232F3E;gradientColor=none;strokeColor=#ffffff;fillColor=#232F3E;dashed=0;verticalLabelPosition=middle;verticalAlign=bottom;align=center;html=1;whiteSpace=wrap;fontSize=10;fontStyle=1;spacing=3;shape=mxgraph.aws4.productIcon;prIcon=mxgraph.aws4.network_load_balancer;" vertex="1" parent="Fb7DKyUG0hWQXaiTz3AM-1">
          <mxGeometry x="591" y="302.5" width="51" height="75" as="geometry" />
        </mxCell>
        <mxCell id="XmkVBD9lLCRrO0M9YFTc-90" value="Clus&lt;span style=&quot;background-color: initial;&quot;&gt;ter IP&lt;/span&gt;" style="sketch=0;outlineConnect=0;fontColor=#232F3E;gradientColor=none;strokeColor=#ffffff;fillColor=#232F3E;dashed=0;verticalLabelPosition=middle;verticalAlign=bottom;align=center;html=1;whiteSpace=wrap;fontSize=10;fontStyle=1;spacing=3;shape=mxgraph.aws4.productIcon;prIcon=mxgraph.aws4.network_load_balancer;" vertex="1" parent="Fb7DKyUG0hWQXaiTz3AM-1">
          <mxGeometry x="448" y="328.5" width="51" height="75" as="geometry" />
        </mxCell>
        <mxCell id="XmkVBD9lLCRrO0M9YFTc-91" value="Clus&lt;span style=&quot;background-color: initial;&quot;&gt;ter IP&lt;/span&gt;" style="sketch=0;outlineConnect=0;fontColor=#232F3E;gradientColor=none;strokeColor=#ffffff;fillColor=#232F3E;dashed=0;verticalLabelPosition=middle;verticalAlign=bottom;align=center;html=1;whiteSpace=wrap;fontSize=10;fontStyle=1;spacing=3;shape=mxgraph.aws4.productIcon;prIcon=mxgraph.aws4.network_load_balancer;" vertex="1" parent="Fb7DKyUG0hWQXaiTz3AM-1">
          <mxGeometry x="750" y="187" width="51" height="75" as="geometry" />
        </mxCell>
        <mxCell id="XmkVBD9lLCRrO0M9YFTc-92" value="Clus&lt;span style=&quot;background-color: initial;&quot;&gt;ter IP&lt;/span&gt;" style="sketch=0;outlineConnect=0;fontColor=#232F3E;gradientColor=none;strokeColor=#ffffff;fillColor=#232F3E;dashed=0;verticalLabelPosition=middle;verticalAlign=bottom;align=center;html=1;whiteSpace=wrap;fontSize=10;fontStyle=1;spacing=3;shape=mxgraph.aws4.productIcon;prIcon=mxgraph.aws4.network_load_balancer;" vertex="1" parent="Fb7DKyUG0hWQXaiTz3AM-1">
          <mxGeometry x="750" y="315.5" width="51" height="75" as="geometry" />
        </mxCell>
        <mxCell id="XmkVBD9lLCRrO0M9YFTc-94" value="Clus&lt;span style=&quot;background-color: initial;&quot;&gt;ter IP&lt;/span&gt;" style="sketch=0;outlineConnect=0;fontColor=#232F3E;gradientColor=none;strokeColor=#ffffff;fillColor=#232F3E;dashed=0;verticalLabelPosition=middle;verticalAlign=bottom;align=center;html=1;whiteSpace=wrap;fontSize=10;fontStyle=1;spacing=3;shape=mxgraph.aws4.productIcon;prIcon=mxgraph.aws4.network_load_balancer;" vertex="1" parent="Fb7DKyUG0hWQXaiTz3AM-1">
          <mxGeometry x="1035" y="173.5" width="51" height="75" as="geometry" />
        </mxCell>
        <mxCell id="XmkVBD9lLCRrO0M9YFTc-95" value="Clus&lt;span style=&quot;background-color: initial;&quot;&gt;ter IP&lt;/span&gt;" style="sketch=0;outlineConnect=0;fontColor=#232F3E;gradientColor=none;strokeColor=#ffffff;fillColor=#232F3E;dashed=0;verticalLabelPosition=middle;verticalAlign=bottom;align=center;html=1;whiteSpace=wrap;fontSize=10;fontStyle=1;spacing=3;shape=mxgraph.aws4.productIcon;prIcon=mxgraph.aws4.network_load_balancer;" vertex="1" parent="Fb7DKyUG0hWQXaiTz3AM-1">
          <mxGeometry x="1047" y="304" width="51" height="75" as="geometry" />
        </mxCell>
        <mxCell id="XmkVBD9lLCRrO0M9YFTc-96" value="Clus&lt;span style=&quot;background-color: initial;&quot;&gt;ter IP&lt;/span&gt;" style="sketch=0;outlineConnect=0;fontColor=#232F3E;gradientColor=none;strokeColor=#ffffff;fillColor=#232F3E;dashed=0;verticalLabelPosition=middle;verticalAlign=bottom;align=center;html=1;whiteSpace=wrap;fontSize=10;fontStyle=1;spacing=3;shape=mxgraph.aws4.productIcon;prIcon=mxgraph.aws4.network_load_balancer;" vertex="1" parent="Fb7DKyUG0hWQXaiTz3AM-1">
          <mxGeometry x="1033" y="70" width="51" height="75" as="geometry" />
        </mxCell>
        <mxCell id="XmkVBD9lLCRrO0M9YFTc-97" value="Clus&lt;span style=&quot;background-color: initial;&quot;&gt;ter IP&lt;/span&gt;" style="sketch=0;outlineConnect=0;fontColor=#232F3E;gradientColor=none;strokeColor=#ffffff;fillColor=#232F3E;dashed=0;verticalLabelPosition=middle;verticalAlign=bottom;align=center;html=1;whiteSpace=wrap;fontSize=10;fontStyle=1;spacing=3;shape=mxgraph.aws4.productIcon;prIcon=mxgraph.aws4.network_load_balancer;" vertex="1" parent="Fb7DKyUG0hWQXaiTz3AM-1">
          <mxGeometry x="1073" y="487" width="51" height="75" as="geometry" />
        </mxCell>
        <mxCell id="Fb7DKyUG0hWQXaiTz3AM-2" value="" style="shape=mxgraph.cisco.computers_and_peripherals.pc;html=1;pointerEvents=1;dashed=0;fillColor=#036897;strokeColor=#ffffff;strokeWidth=2;verticalLabelPosition=bottom;verticalAlign=top;align=center;outlineConnect=0;" parent="1" vertex="1">
          <mxGeometry x="-191" y="-5" width="78" height="70" as="geometry" />
        </mxCell>
        <mxCell id="Fb7DKyUG0hWQXaiTz3AM-3" value="" style="sketch=0;aspect=fixed;pointerEvents=1;shadow=0;dashed=0;html=1;strokeColor=none;labelPosition=center;verticalLabelPosition=bottom;verticalAlign=top;align=center;fillColor=#00188D;shape=mxgraph.mscae.enterprise.android_phone" parent="1" vertex="1">
          <mxGeometry x="-167" y="85" width="30" height="50" as="geometry" />
        </mxCell>
        <mxCell id="Fb7DKyUG0hWQXaiTz3AM-4" value="" style="sketch=0;html=1;aspect=fixed;strokeColor=none;shadow=0;fillColor=#3B8DF1;verticalAlign=top;labelPosition=center;verticalLabelPosition=bottom;shape=mxgraph.gcp2.phone_android" parent="1" vertex="1">
          <mxGeometry x="-171.60000000000002" y="162" width="39.2" height="70" as="geometry" />
        </mxCell>
        <mxCell id="Fb7DKyUG0hWQXaiTz3AM-5" value="" style="image;aspect=fixed;perimeter=ellipsePerimeter;html=1;align=center;shadow=0;dashed=0;spacingTop=3;image=img/lib/active_directory/user_accounts.svg;" parent="1" vertex="1">
          <mxGeometry x="-172" y="276" width="50" height="48.5" as="geometry" />
        </mxCell>
        <mxCell id="Fb7DKyUG0hWQXaiTz3AM-6" value="" style="endArrow=classic;html=1;rounded=0;fontSize=12;startSize=8;endSize=8;curved=1;" parent="1" edge="1">
          <mxGeometry width="50" height="50" relative="1" as="geometry">
            <mxPoint x="-98" y="51" as="sourcePoint" />
            <mxPoint x="53" y="142" as="targetPoint" />
          </mxGeometry>
        </mxCell>
        <mxCell id="Fb7DKyUG0hWQXaiTz3AM-7" value="" style="endArrow=classic;html=1;rounded=0;fontSize=12;startSize=8;endSize=8;curved=1;" parent="1" edge="1">
          <mxGeometry width="50" height="50" relative="1" as="geometry">
            <mxPoint x="-98" y="120" as="sourcePoint" />
            <mxPoint x="52" y="160" as="targetPoint" />
          </mxGeometry>
        </mxCell>
        <mxCell id="Fb7DKyUG0hWQXaiTz3AM-8" value="" style="endArrow=classic;html=1;rounded=0;fontSize=12;startSize=8;endSize=8;curved=1;" parent="1" edge="1">
          <mxGeometry width="50" height="50" relative="1" as="geometry">
            <mxPoint x="-113" y="203" as="sourcePoint" />
            <mxPoint x="50" y="174" as="targetPoint" />
          </mxGeometry>
        </mxCell>
        <mxCell id="Fb7DKyUG0hWQXaiTz3AM-9" value="" style="endArrow=classic;html=1;rounded=0;fontSize=12;startSize=8;endSize=8;curved=1;" parent="1" edge="1">
          <mxGeometry width="50" height="50" relative="1" as="geometry">
            <mxPoint x="-100" y="302" as="sourcePoint" />
            <mxPoint x="53" y="189" as="targetPoint" />
          </mxGeometry>
        </mxCell>
        <mxCell id="Fb7DKyUG0hWQXaiTz3AM-12" value="" style="sketch=0;outlineConnect=0;fontColor=#232F3E;gradientColor=none;fillColor=#8C4FFF;strokeColor=none;dashed=0;verticalLabelPosition=bottom;verticalAlign=top;align=center;html=1;fontSize=12;fontStyle=0;aspect=fixed;pointerEvents=1;shape=mxgraph.aws4.network_load_balancer;direction=west;" parent="1" vertex="1">
          <mxGeometry x="64" y="132" width="78" height="78" as="geometry" />
        </mxCell>
        <mxCell id="Fb7DKyUG0hWQXaiTz3AM-13" value="" style="endArrow=classic;html=1;rounded=0;fontSize=12;startSize=8;endSize=8;curved=1;" parent="1" source="Fb7DKyUG0hWQXaiTz3AM-12" target="Fb7DKyUG0hWQXaiTz3AM-10" edge="1">
          <mxGeometry width="50" height="50" relative="1" as="geometry">
            <mxPoint x="123" y="312" as="sourcePoint" />
            <mxPoint x="262" y="323" as="targetPoint" />
          </mxGeometry>
        </mxCell>
        <mxCell id="Fb7DKyUG0hWQXaiTz3AM-14" value="LoadBalancer&lt;div&gt;Ip&amp;nbsp; &amp;nbsp; : 34.155.81.69&lt;/div&gt;&lt;div&gt;Port : 80&lt;br&gt;(loadbalancer_other)&lt;/div&gt;" style="text;html=1;align=left;verticalAlign=middle;whiteSpace=wrap;rounded=0;fontSize=16;" parent="1" vertex="1">
          <mxGeometry x="-17" y="85" width="151" height="60" as="geometry" />
        </mxCell>
        <mxCell id="Fb7DKyUG0hWQXaiTz3AM-21" value="" style="fillColor=#28A8E0;verticalLabelPosition=bottom;sketch=0;html=1;strokeColor=#ffffff;verticalAlign=top;align=center;points=[[0.145,0.145,0],[0.5,0,0],[0.855,0.145,0],[1,0.5,0],[0.855,0.855,0],[0.5,1,0],[0.145,0.855,0],[0,0.5,0]];pointerEvents=1;shape=mxgraph.cisco_safe.compositeIcon;bgIcon=ellipse;resIcon=mxgraph.cisco_safe.capability.load_balancer;" parent="1" vertex="1">
          <mxGeometry x="91" y="402" width="43" height="43" as="geometry" />
        </mxCell>
        <mxCell id="Fb7DKyUG0hWQXaiTz3AM-22" value="" style="fillColor=#28A8E0;verticalLabelPosition=bottom;sketch=0;html=1;strokeColor=#ffffff;verticalAlign=top;align=center;points=[[0.145,0.145,0],[0.5,0,0],[0.855,0.145,0],[1,0.5,0],[0.855,0.855,0],[0.5,1,0],[0.145,0.855,0],[0,0.5,0]];pointerEvents=1;shape=mxgraph.cisco_safe.compositeIcon;bgIcon=ellipse;resIcon=mxgraph.cisco_safe.capability.load_balancer;" parent="1" vertex="1">
          <mxGeometry x="91" y="347" width="43" height="43" as="geometry" />
        </mxCell>
        <mxCell id="Fb7DKyUG0hWQXaiTz3AM-23" value="" style="fillColor=#28A8E0;verticalLabelPosition=bottom;sketch=0;html=1;strokeColor=#ffffff;verticalAlign=top;align=center;points=[[0.145,0.145,0],[0.5,0,0],[0.855,0.145,0],[1,0.5,0],[0.855,0.855,0],[0.5,1,0],[0.145,0.855,0],[0,0.5,0]];pointerEvents=1;shape=mxgraph.cisco_safe.compositeIcon;bgIcon=ellipse;resIcon=mxgraph.cisco_safe.capability.load_balancer;" parent="1" vertex="1">
          <mxGeometry x="91" y="292" width="43" height="43" as="geometry" />
        </mxCell>
        <mxCell id="Fb7DKyUG0hWQXaiTz3AM-25" value="Not: Bir Google Cloud sisteminde maksimum 4 loadbalancer ayağa kaldırılabilir." style="text;html=1;align=center;verticalAlign=middle;whiteSpace=wrap;rounded=0;fontSize=16;" parent="1" vertex="1">
          <mxGeometry x="19" y="457" width="175" height="104" as="geometry" />
        </mxCell>
        <mxCell id="Fb7DKyUG0hWQXaiTz3AM-24" value="LoadBalancers&lt;div&gt;Ip: 34.155.172.253&lt;/div&gt;&lt;div&gt;Port: 11111&lt;/div&gt;" style="text;html=1;align=center;verticalAlign=middle;whiteSpace=wrap;rounded=0;fontSize=16;" parent="1" vertex="1">
          <mxGeometry x="-53" y="334" width="144" height="68" as="geometry" />
        </mxCell>
        <mxCell id="nlwU2PpXcWKmxTWrh6bV-2" value="" style="edgeStyle=elbowEdgeStyle;elbow=horizontal;endArrow=classic;html=1;curved=0;rounded=0;endSize=8;startSize=8;fontSize=12;exitX=1;exitY=0.5;exitDx=0;exitDy=0;exitPerimeter=0;" parent="1" source="Fb7DKyUG0hWQXaiTz3AM-21" target="Fb7DKyUG0hWQXaiTz3AM-18" edge="1">
          <mxGeometry width="50" height="50" relative="1" as="geometry">
            <mxPoint x="536" y="194" as="sourcePoint" />
            <mxPoint x="586" y="144" as="targetPoint" />
            <Array as="points">
              <mxPoint x="1168" y="336" />
            </Array>
          </mxGeometry>
        </mxCell>
        <mxCell id="nlwU2PpXcWKmxTWrh6bV-28" value="" style="edgeStyle=elbowEdgeStyle;elbow=horizontal;endArrow=classic;html=1;curved=0;rounded=0;endSize=8;startSize=8;fontSize=12;exitX=0.005;exitY=0.63;exitDx=0;exitDy=0;exitPerimeter=0;" parent="1" source="nlwU2PpXcWKmxTWrh6bV-16" edge="1">
          <mxGeometry width="50" height="50" relative="1" as="geometry">
            <mxPoint x="659" y="109" as="sourcePoint" />
            <mxPoint x="521" y="76" as="targetPoint" />
          </mxGeometry>
        </mxCell>
      </root>
    </mxGraphModel>
  </diagram>
</mxfile>
